<svg width="160" height="85" viewBox="0 0 160 85" fill="none" xmlns="http://www.w3.org/2000/svg">
<rect x="0.844831" y="0.694929" width="158.186" height="82.8994" rx="7.61321" fill="#F3F3F3" stroke="#E9E9E9" stroke-width="0.845912"/>
<g clip-path="url(#clip0)">
<path d="M49.4834 11.6917H110.238V44.5703L107.231 49.2808L110.238 53.473V72.5973H49.4834V41.6028L51.3629 39.436L49.4834 37.3634V11.6917Z" fill="#016FD0"/>
<path d="M61.2783 54.1327V44.5706H71.3777L72.4613 45.9866L73.5807 44.5706H110.239V53.4732C110.239 53.4732 109.28 54.1231 108.172 54.1327H87.8731L86.6514 52.6254V54.1327H82.6481V51.5596C82.6481 51.5596 82.1012 51.9188 80.919 51.9188H79.5563V54.1327H73.495L72.413 52.6863L71.3144 54.1327H61.2783Z" fill="white"/>
<path d="M49.4844 37.3635L51.7618 32.0408H55.7004L56.9929 35.0224V32.0408H61.889L62.6584 34.1958L63.4043 32.0408H85.3826V33.1242C85.3826 33.1242 86.538 32.0408 88.4367 32.0408L95.5679 32.0658L96.8381 35.0083V32.0408H100.935L102.063 33.731V32.0408H106.198V41.6029H102.063L100.982 39.9072V41.6029H94.9625L94.3571 40.0956H92.7388L92.1433 41.6029H88.0608C86.427 41.6029 85.3826 40.5416 85.3826 40.5416V41.6029H79.2273L78.0056 40.0956V41.6029H55.117L54.512 40.0956H52.8988L52.2981 41.6029H49.4844V37.3635Z" fill="white"/>
<path d="M52.5679 33.2195L49.4961 40.3793H51.496L52.0628 38.9456H55.3577L55.9216 40.3793H57.9655L54.8967 33.2195H52.5679ZM53.7044 34.8858L54.7087 37.3912H52.6971L53.7044 34.8858Z" fill="#016FD0"/>
<path d="M58.1777 40.3781V33.2183L61.0197 33.2288L62.6727 37.845L64.2861 33.2183H67.1053V40.3781H65.3198V35.1024L63.4271 40.3781H61.8612L59.9632 35.1024V40.3781H58.1777Z" fill="#016FD0"/>
<path d="M68.3252 40.3781V33.2183H74.1516V34.8198H70.1295V36.0445H74.0576V37.5518H70.1295V38.8237H74.1516V40.3781H68.3252Z" fill="#016FD0"/>
<path d="M75.1855 33.2195V40.3793H76.9711V37.8357H77.7229L79.8637 40.3793H82.0457L79.6963 37.7415C80.6605 37.6599 81.6551 36.8303 81.6551 35.5423C81.6551 34.0356 80.4755 33.2195 79.1589 33.2195H75.1855ZM76.9711 34.821H79.0121C79.5017 34.821 79.8578 35.205 79.8578 35.5747C79.8578 36.0504 79.3964 36.3284 79.0385 36.3284H76.9711V34.821Z" fill="#016FD0"/>
<path d="M84.2079 40.3781H82.3848V33.2183H84.2079V40.3781Z" fill="#016FD0"/>
<path d="M88.5307 40.3781H88.1372C86.2332 40.3781 85.0771 38.8743 85.0771 36.8276C85.0771 34.7304 86.2202 33.2183 88.6247 33.2183H90.5981V34.914H88.5525C87.5765 34.914 86.8862 35.6776 86.8862 36.8453C86.8862 38.2319 87.6755 38.8142 88.8126 38.8142H89.2825L88.5307 40.3781Z" fill="#016FD0"/>
<path d="M92.4155 33.2195L89.3438 40.3793H91.3436L91.9104 38.9456H95.2054L95.7692 40.3793H97.8132L94.7443 33.2195H92.4155ZM93.552 34.8858L94.5564 37.3912H92.5447L93.552 34.8858Z" fill="#016FD0"/>
<path d="M98.0225 40.3781V33.2183H100.293L103.191 37.7167V33.2183H104.977V40.3781H102.78L99.808 35.7619V40.3781H98.0225Z" fill="#016FD0"/>
<path d="M62.5 52.9079V45.748H68.3264V47.3496H64.3043V48.5743H68.2324V50.0816H64.3043V51.3534H68.3264V52.9079H62.5Z" fill="#016FD0"/>
<path d="M91.0488 52.9079V45.748H96.8752V47.3496H92.8531V48.5743H96.7625V50.0816H92.8531V51.3534H96.8752V52.9079H91.0488Z" fill="#016FD0"/>
<path d="M68.5519 52.9079L71.3888 49.3721L68.4844 45.748H70.7339L72.4636 47.9884L74.1992 45.748H76.3606L73.4944 49.328L76.3365 52.9079H74.0873L72.4078 50.7028L70.7691 52.9079H68.5519Z" fill="#016FD0"/>
<path d="M76.5488 45.7493V52.9091H78.3813V50.6481H80.2608C81.8511 50.6481 83.0566 49.8023 83.0566 48.1575C83.0566 46.7949 82.1111 45.7493 80.4928 45.7493H76.5488ZM78.3813 47.3685H80.3607C80.8744 47.3685 81.2417 47.6841 81.2417 48.1928C81.2417 48.6706 80.8763 49.0171 80.3548 49.0171H78.3813V47.3685Z" fill="#016FD0"/>
<path d="M83.832 45.748V52.9079H85.6175V50.3642H86.3693L88.5102 52.9079H90.6922L88.3428 50.27C89.307 50.1885 90.3016 49.3589 90.3016 48.0709C90.3016 46.5642 89.1219 45.748 87.8054 45.748H83.832ZM85.6175 47.3496H87.6586C88.1482 47.3496 88.5043 47.7335 88.5043 48.1033C88.5043 48.5789 88.0429 48.8569 87.685 48.8569H85.6175V47.3496Z" fill="#016FD0"/>
<path d="M97.7023 52.9079V51.3534H101.276C101.804 51.3534 102.033 51.067 102.033 50.7529C102.033 50.4519 101.805 50.1476 101.276 50.1476H99.6609C98.2573 50.1476 97.4756 49.2903 97.4756 48.0032C97.4756 46.8551 98.1914 45.748 100.277 45.748H103.754L103.002 47.359H99.9953C99.4204 47.359 99.2435 47.6614 99.2435 47.9502C99.2435 48.247 99.4622 48.5743 99.9013 48.5743H101.593C103.158 48.5743 103.836 49.464 103.836 50.6292C103.836 51.8819 103.08 52.9079 101.508 52.9079H97.7023Z" fill="#016FD0"/>
<path d="M104.256 52.9079V51.3534H107.829C108.358 51.3534 108.587 51.067 108.587 50.7529C108.587 50.4519 108.359 50.1476 107.829 50.1476H106.215C104.811 50.1476 104.029 49.2903 104.029 48.0032C104.029 46.8551 104.745 45.748 106.831 45.748H110.308L109.556 47.359H106.549C105.974 47.359 105.797 47.6614 105.797 47.9502C105.797 48.247 106.016 48.5743 106.455 48.5743H108.147C109.711 48.5743 110.39 49.464 110.39 50.6292C110.39 51.8819 109.634 52.9079 108.061 52.9079H104.256Z" fill="#016FD0"/>
</g>
<defs>
<clipPath id="clip0">
<rect width="60.9057" height="60.9057" fill="white" transform="translate(49.4834 11.6919)"/>
</clipPath>
</defs>
</svg>
