<svg width="25" height="28" viewBox="0 0 25 28" fill="none" xmlns="http://www.w3.org/2000/svg">
<path fill-rule="evenodd" clip-rule="evenodd" d="M6.4337 0.563144C5.06089 0.72345 4.3957 1.68528 4.3957 3.51007V4.36242L3.3668 4.36293C1.53638 4.36387 0.840456 4.80224 0.699445 6.04304C0.658229 6.40578 0.661053 25.1228 0.702389 25.4563C0.796387 26.2149 1.38435 26.8769 2.11981 27.0524C2.3994 27.1191 23.0483 27.1203 23.3592 27.0536C23.9486 26.9272 24.4637 26.4339 24.6936 25.7757L24.7784 25.5328V15.7303V5.92778L24.6965 5.68462C24.5036 5.11215 24.0895 4.68455 23.5089 4.45807L23.3064 4.37907L22.1896 4.36877L21.0729 4.35846L21.061 3.41058C21.0324 1.1323 19.5667 0.038824 17.2982 0.603388C16.051 0.913786 15.5108 1.81622 15.5108 3.58952V4.36242H12.7349H9.95905L9.94566 3.42776C9.91318 1.16482 8.83225 0.283112 6.4337 0.563144ZM7.8498 2.53115C7.90729 2.56036 7.98504 2.63076 8.02253 2.68757L8.09072 2.79085V5.07406C8.09072 7.9515 8.18944 7.6756 7.15994 7.67539C6.14678 7.67521 6.24321 7.94859 6.24321 5.07671C6.24321 2.49994 6.22753 2.66635 6.48255 2.53863C6.65417 2.45267 7.68433 2.44702 7.8498 2.53115ZM18.9792 2.53805C19.2367 2.66417 19.2209 2.49769 19.2209 5.07671C19.2209 7.95077 19.3192 7.67521 18.2931 7.67539C17.2756 7.67557 17.3733 7.95257 17.3733 5.06902V2.79085L17.4415 2.68757C17.5865 2.46799 18.6292 2.36659 18.9792 2.53805ZM22.9309 17.6452V25.244H12.732H2.53317V17.6452V10.0464H12.732H22.9309V17.6452Z" fill="#291247"/>
</svg>
