<svg width="43" height="29" viewBox="0 0 43 29" fill="none" xmlns="http://www.w3.org/2000/svg">
<path d="M21.2884 28.6299C15.597 28.6299 9.90592 28.6326 4.21519 28.6379C3.45877 28.6538 2.7084 28.5 2.01928 28.1876C0.8794 27.6554 0.293491 26.7548 0.222623 25.5107C0.205654 25.2112 0.210646 24.9206 0.210646 24.6251C0.210646 17.962 0.213315 11.2989 0.218639 4.63579C0.218639 4.01374 0.236598 3.35276 0.436227 2.77664C0.942284 1.31489 2.18996 0.834628 3.59135 0.643921C3.84377 0.624598 4.0972 0.622266 4.34993 0.636934C15.6895 0.636934 27.0297 0.63427 38.3706 0.628945C39.1851 0.628945 39.9556 0.728793 40.6962 1.07925C41.8341 1.61443 42.421 2.51205 42.4929 3.75614C42.5099 4.05069 42.5049 4.34623 42.5049 4.64178C42.5049 11.3049 42.5022 17.968 42.4969 24.631C42.4969 25.2531 42.4789 25.9141 42.2793 26.4902C41.7732 27.9519 40.5256 28.4342 39.1242 28.6219C38.8299 28.6441 38.5345 28.6467 38.2398 28.6299H21.2884ZM21.4201 11.7359H3.58537C3.28592 11.7359 2.99447 11.7239 2.70002 11.7359C1.92945 11.7738 1.80867 11.8876 1.75976 12.6055C1.74579 12.8162 1.75976 13.0279 1.75976 13.2386C1.75976 16.8663 1.75976 20.4941 1.75976 24.1218C1.75976 24.3335 1.74778 24.5452 1.75976 24.7549C1.85958 26.1357 2.53233 26.8187 3.89579 26.9135C4.18924 26.9335 4.48569 26.9135 4.78114 26.9135H37.9194C38.1729 26.9135 38.4255 26.9225 38.678 26.9135C40.1912 26.8466 40.9278 26.1577 40.9398 24.632C40.9707 20.6681 40.9578 16.7032 40.9398 12.7383C40.9398 11.8607 40.806 11.7648 39.8808 11.7339C39.6282 11.7259 39.3747 11.7339 39.1222 11.7339L21.4201 11.7359ZM21.2954 6.19738C27.2842 6.19738 33.2707 6.19472 39.2549 6.1894C39.782 6.1894 40.5316 6.46397 40.7841 5.96973C41.0366 5.47549 40.9777 4.73663 40.8959 4.12657C40.7541 3.06021 40.1263 2.50806 39.0563 2.36727C38.7204 2.33912 38.383 2.33245 38.0462 2.3473H4.65537C4.44376 2.3473 4.23316 2.33931 4.02255 2.3473C2.51237 2.4162 1.82664 3.10814 1.75677 4.63379C1.6829 6.19239 1.6839 6.19539 3.20807 6.19539L21.2954 6.19738Z" fill="#291247"/>
<path d="M19.2371 19.5695C19.2205 22.3205 17.1895 24.2033 14.383 24.3099C11.6661 24.4114 9.40228 21.8286 9.52002 19.3512C9.64799 16.6092 11.7058 14.5594 14.4227 14.5851C17.2573 14.6133 19.3766 16.7556 19.2371 19.5695Z" fill="#291247"/>
<path d="M9.24468 24.2971C6.25457 24.5325 3.71938 22.0971 4.046 19.0763C4.41539 15.658 7.3381 14.3162 9.78255 14.6288C9.97696 14.6532 10.1545 14.8115 10.3399 14.9067C10.2401 15.0765 10.1727 15.2772 10.0379 15.4123C7.85007 17.6251 7.81766 21.1747 9.99381 23.6371C10.1262 23.8043 10.2491 23.9787 10.3619 24.1594C10.1559 24.216 9.94634 24.259 9.73459 24.2881C9.57175 24.3033 9.40798 24.3063 9.24468 24.2971Z" fill="#291247"/>
</svg>
