<svg width="43" height="29" viewBox="0 0 43 29" fill="none" xmlns="http://www.w3.org/2000/svg">
<path d="M21.6068 28.449C15.9154 28.449 10.2243 28.4517 4.53355 28.457C3.77713 28.4729 3.02676 28.3191 2.33764 28.0067C1.19776 27.4745 0.61185 26.5739 0.540982 25.3298C0.524014 25.0302 0.529005 24.7397 0.529005 24.4441C0.529005 17.7811 0.531675 11.118 0.536998 4.45488C0.536998 3.83283 0.554958 3.17185 0.754586 2.59574C1.26064 1.13398 2.50832 0.65372 3.90971 0.463013C4.16213 0.44369 4.41556 0.441357 4.66829 0.456026C16.0078 0.456026 27.3481 0.453362 38.6889 0.448037C39.5034 0.448037 40.274 0.547884 41.0146 0.898346C42.1525 1.43352 42.7394 2.33114 42.8113 3.57523C42.8282 3.86978 42.8232 4.16532 42.8232 4.46087C42.8232 11.124 42.8206 17.787 42.8153 24.4501C42.8153 25.0722 42.7973 25.7332 42.5977 26.3093C42.0916 27.771 40.8439 28.2533 39.4425 28.441C39.1482 28.4631 38.8528 28.4658 38.5582 28.449H21.6068ZM21.7385 11.555H3.90373C3.60428 11.555 3.31283 11.543 3.01838 11.555C2.24781 11.5929 2.12703 11.7067 2.07812 12.4246C2.06415 12.6353 2.07812 12.847 2.07812 13.0577C2.07812 16.6854 2.07812 20.3132 2.07812 23.9409C2.07812 24.1526 2.06614 24.3643 2.07812 24.5739C2.17794 25.9548 2.85069 26.6378 4.21415 26.7326C4.5076 26.7526 4.80405 26.7326 5.0995 26.7326H38.2378C38.4913 26.7326 38.7438 26.7416 38.9964 26.7326C40.5095 26.6657 41.2462 25.9768 41.2582 24.4511C41.2891 20.4872 41.2761 16.5223 41.2582 12.5574C41.2582 11.6798 41.1244 11.5839 40.1991 11.553C39.9466 11.545 39.6931 11.553 39.4405 11.553L21.7385 11.555ZM21.6137 6.01648C27.6026 6.01648 33.5891 6.01381 39.5733 6.00849C40.1003 6.00849 40.8499 6.28307 41.1024 5.78883C41.355 5.29458 41.2961 4.55572 41.2142 3.94566C41.0725 2.8793 40.4447 2.32715 39.3747 2.18636C39.0387 2.15822 38.7013 2.15155 38.3645 2.16639H4.97373C4.76212 2.16639 4.55152 2.15841 4.34091 2.16639C2.83072 2.23529 2.14499 2.92723 2.07512 4.45288C2.00126 6.01149 2.00226 6.01448 3.52643 6.01448L21.6137 6.01648Z" fill="white"/>
<path d="M19.5545 19.3887C19.5379 22.1397 17.5069 24.0225 14.7004 24.1291C11.9835 24.2306 9.71967 21.6478 9.8374 19.1704C9.96538 16.4284 12.0232 14.3786 14.7401 14.4043C17.5747 14.4325 19.694 16.5748 19.5545 19.3887Z" fill="white"/>
<path d="M9.56206 24.1163C6.57195 24.3517 4.03677 21.9163 4.36338 18.8955C4.73277 15.4772 7.65548 14.1354 10.0999 14.448C10.2943 14.4725 10.4719 14.6307 10.6573 14.7259C10.5575 14.8957 10.4901 15.0964 10.3553 15.2315C8.16746 17.4443 8.13504 20.9939 10.3112 23.4563C10.4435 23.6235 10.5664 23.7979 10.6793 23.9786C10.4733 24.0353 10.2637 24.0782 10.052 24.1073C9.88913 24.1225 9.72537 24.1255 9.56206 24.1163Z" fill="white"/>
</svg>
