<svg width="39" height="39" viewBox="0 0 39 39" fill="none" xmlns="http://www.w3.org/2000/svg">
<path d="M30.6103 5.08533H8.40508C6.66039 5.08533 5.23291 6.5128 5.23291 8.2575V30.4627C5.23291 32.2074 6.66039 33.6349 8.40508 33.6349H30.6103C32.355 33.6349 33.7824 32.2074 33.7824 30.4627V8.2575C33.7824 6.5128 32.355 5.08533 30.6103 5.08533ZM17.4616 26.1644C16.8431 26.783 15.8438 26.783 15.2252 26.1644L9.5312 20.4704C8.91263 19.8518 8.91263 18.8525 9.5312 18.234C10.1498 17.6154 11.149 17.6154 11.7676 18.234L16.3355 22.8019L27.2478 11.8896C27.8663 11.2711 28.8656 11.2711 29.4841 11.8896C30.1027 12.5082 30.1027 13.5074 29.4841 14.126L17.4616 26.1644Z" fill="#323232"/>
</svg>
