<svg width="35" height="24" viewBox="0 0 35 24" fill="none" xmlns="http://www.w3.org/2000/svg">
<path fill-rule="evenodd" clip-rule="evenodd" d="M3.63585 0.194688C2.09045 0.404494 0.770642 1.65004 0.499752 3.15433C0.379283 3.82311 0.405995 17.127 0.528977 17.7102C0.822215 19.1014 1.99755 20.2628 3.37137 20.5189C3.65681 20.5722 7.05606 20.5875 15.4931 20.5736L27.2182 20.5544L26.5524 19.9383L25.8865 19.3222L25.4064 19.4868C23.3053 20.2072 20.9887 19.9947 19.1172 18.9099L18.6449 18.6362L11.1404 18.6031L3.63585 18.5701L3.37137 18.4271C2.41893 17.9119 2.44895 18.093 2.4266 12.7329L2.40756 8.15251L9.36911 8.15238L16.3307 8.15225L16.5114 7.86624C17.025 7.05295 17.9904 6.13871 18.9459 5.56069L19.3623 5.30888L10.904 5.29208L2.44571 5.27528L2.4506 4.34656C2.45602 3.30864 2.59037 2.90259 3.04263 2.55752C3.54421 2.17475 2.66482 2.19955 15.717 2.20028L27.7032 2.20094L28.0385 2.35711C28.7463 2.68677 28.9926 3.2298 28.9926 4.46053V5.24221L27.6536 5.24333L26.3147 5.24446L26.5461 5.38409C29.9816 7.45748 31.3897 11.0856 30.1745 14.7328L29.9765 15.3271L30.4597 15.7911L30.9431 16.2551L30.96 9.83916C30.9764 3.63506 30.9727 3.40621 30.8462 2.90543C30.5351 1.67372 29.6337 0.741427 28.3314 0.304287C27.9912 0.190124 4.43973 0.0856174 3.63585 0.194688ZM21.6864 5.51313C18.4765 6.14672 16.2394 8.72108 16.1165 11.9227C15.9168 17.1226 21.2279 20.5329 25.9359 18.228L26.5489 17.9279L27.3574 18.6836C30.7245 21.8307 32.1965 23.1793 32.3528 23.2601C33.471 23.8386 34.6672 22.6501 34.1225 21.5018C34.0348 21.3169 30.1838 17.6504 28.7046 16.3436L28.4305 16.1015L28.5506 15.9137C31.7136 10.9674 27.373 4.39061 21.6864 5.51313ZM24.0006 7.85705C27.3628 8.72994 28.466 12.9601 25.9703 15.41C23.3352 17.9967 18.8834 16.4003 18.4155 12.7008C18.027 9.62837 20.9751 7.0716 24.0006 7.85705ZM5.20479 11.1732C4.87426 11.3063 4.77879 13.2002 5.08472 13.556L5.24427 13.7416L10.28 13.7593L15.3157 13.7771L15.2612 13.3956C15.2312 13.1857 15.2069 12.5899 15.2071 12.0715L15.2075 11.129L10.2482 11.1342C7.52055 11.137 5.25101 11.1546 5.20479 11.1732ZM20.2071 11.228C19.1916 11.5449 19.0146 13.0042 19.9309 13.5058C20.4623 13.7967 21.2566 13.7033 21.2566 13.3499C21.2566 13.1346 21.1296 13.0471 20.8173 13.0471C20.2333 13.0471 19.93 12.4383 20.2968 12.0021C20.4508 11.8191 20.5171 11.7904 20.7864 11.7904C21.1447 11.7904 21.2566 11.7081 21.2566 11.4448C21.2566 11.1353 20.804 11.0418 20.2071 11.228ZM21.6037 11.2374C21.4193 11.3153 22.0288 13.3459 22.3008 13.5597C22.7673 13.9266 23.0213 13.688 23.4772 12.4541C23.893 11.3291 23.8929 11.2426 23.4768 11.2073C23.1299 11.178 23.0854 11.2393 22.8738 12.0379L22.6854 12.7493L22.5635 12.3194C22.2485 11.2083 22.0915 11.0312 21.6037 11.2374ZM24.1824 11.2374C23.998 11.3153 24.6075 13.3459 24.8794 13.5597C25.3446 13.9255 25.5955 13.6909 26.0558 12.4601C26.4775 11.3327 26.4775 11.2431 26.0555 11.2073C25.7086 11.178 25.6641 11.2393 25.4525 12.0379L25.264 12.7493L25.1422 12.3194C24.8272 11.2083 24.6701 11.0312 24.1824 11.2374Z" fill="#291247"/>
</svg>
