<svg width="69" height="66" viewBox="0 0 69 66" fill="none" xmlns="http://www.w3.org/2000/svg">
<path fill-rule="evenodd" clip-rule="evenodd" d="M33.6209 0.92892C30.523 1.49921 28.7382 2.84044 27.1996 5.75441C26.9533 6.22082 26.5809 6.9268 26.372 7.32325C26.1632 7.7197 25.8695 8.27303 25.7194 8.55287C25.5693 8.83272 25.2265 9.48146 24.9577 9.99451C24.6888 10.5076 24.4417 10.9655 24.4084 11.0121C24.3751 11.0588 24.1282 11.5167 23.8595 12.0298C23.5909 12.5428 23.2289 13.2297 23.0551 13.5562C22.1883 15.1846 21.9915 15.5551 21.6817 16.1427C21.4972 16.4925 21.2223 17.0076 21.0706 17.2875C20.9191 17.5673 20.6429 18.0825 20.4568 18.4323C20.2707 18.7821 19.824 19.6217 19.464 20.298C19.1041 20.9742 18.6183 21.8901 18.3842 22.3332C18.1503 22.7763 17.5708 23.8639 17.0966 24.7501C16.6224 25.6362 16.0523 26.7047 15.8298 27.1245C15.6072 27.5443 15.2831 28.1549 15.1094 28.4813C14.9357 28.8078 14.6121 29.4184 14.3903 29.8382C14.1685 30.2579 13.7313 31.0784 13.4187 31.6614C12.5134 33.35 12.1152 34.0983 11.0946 36.0287C10.6904 36.7935 8.98734 39.9917 8.47558 40.9472C7.8581 42.1003 7.59381 42.5963 7.21052 43.3217C6.98866 43.7415 6.72175 44.2376 6.6172 44.4241C6.51274 44.6107 6.21836 45.164 5.96303 45.6537C5.20922 47.0998 4.10736 49.1664 4.04143 49.2578C4.00779 49.3045 3.66406 49.9532 3.27756 50.6995C2.89106 51.4457 2.37423 52.405 2.12904 52.8311C-0.85926 58.0251 1.55094 64.2627 7.12448 65.7595L7.88514 65.9638H34.6773H61.4696L62.1457 65.7679C67.58 64.1928 70.2162 57.7495 67.3139 53.1364C67.2034 52.9608 66.637 51.921 66.0551 50.8255C65.4733 49.7301 64.7417 48.3568 64.4294 47.7738C64.1172 47.1908 63.6325 46.2749 63.3524 45.7386C63.0723 45.2022 62.7575 44.6107 62.653 44.4241C62.5485 44.2376 62.2815 43.7415 62.0597 43.3217C61.8379 42.9019 61.5239 42.3104 61.362 42.0073C61.2 41.7041 60.9157 41.1698 60.73 40.82C60.5444 40.4702 60.2591 39.936 60.0961 39.6328C59.933 39.3296 59.6277 38.7572 59.4177 38.3608C59.2077 37.9643 58.7515 37.1057 58.4039 36.4527C58.0564 35.7998 57.6001 34.9411 57.39 34.5447C57.1798 34.1482 56.8753 33.5758 56.7134 33.2727C55.9952 31.9288 55.1662 30.3717 54.7947 29.6686C53.8081 27.8017 53.3811 26.9993 52.4708 25.3013C52.1582 24.7183 51.7207 23.8978 51.4987 23.478C50.4613 21.5172 50.3946 21.3915 49.0417 18.8563C47.5694 16.0975 47.2318 15.4619 46.7218 14.489C46.4285 13.9293 46.0421 13.2104 45.8631 12.8913C45.6843 12.5724 45.5379 12.2961 45.5379 12.2775C45.5379 12.2589 45.3341 11.8711 45.085 11.4159C44.8359 10.9606 44.4118 10.1684 44.1426 9.6553C43.8734 9.14225 43.3727 8.19577 43.03 7.55213C42.6873 6.90839 42.2121 6.01161 41.974 5.55928C40.2591 2.30068 36.7464 0.353539 33.6209 0.92892ZM36.2174 21.7074C37.6843 22.2613 38.8192 23.572 39.1334 25.0748C39.2351 25.5609 39.1749 26.6745 38.906 29.287C38.8363 29.9633 38.7007 31.2989 38.6045 32.255C38.5083 33.2112 38.3728 34.5358 38.3034 35.1987C38.234 35.8616 38.1246 36.9682 38.0603 37.6579C37.5415 43.2199 37.2833 45.3722 37.0857 45.7818C36.1232 47.7768 33.3714 47.8339 32.2317 45.8826C31.998 45.4825 31.7327 43.3234 31.1666 37.216C31.119 36.7029 31.0441 35.9778 31.0001 35.6047C30.9561 35.2316 30.8816 34.4874 30.8343 33.9511C30.7872 33.4147 30.69 32.4225 30.6185 31.7462C29.9398 25.327 29.9388 25.2269 30.5388 23.9754C31.5297 21.9081 34.0664 20.895 36.2174 21.7074ZM35.5998 49.4744C38.4136 50.5307 37.6085 54.7276 34.5921 54.7276C32.1394 54.7276 30.9859 51.5819 32.8485 49.9722C33.6148 49.3098 34.6584 49.121 35.5998 49.4744Z" fill="#D63422"/>
</svg>
