<svg width="57" height="31" viewBox="0 0 57 31" fill="none" xmlns="http://www.w3.org/2000/svg">
<path fill-rule="evenodd" clip-rule="evenodd" d="M27.9652 0.705138C18.6069 1.50282 8.92264 6.462 1.06071 14.4825C-0.135913 15.7033 -0.173606 15.3684 1.32782 16.8541C18.7788 34.1216 38.2107 34.7754 54.2927 18.6361C57.1749 15.7437 57.2008 15.6966 56.4223 14.7837C49.3146 6.44925 41.6727 1.87728 33.0701 0.812818C32.3105 0.718844 28.6985 0.642628 27.9652 0.705138ZM30.3099 3.35203C38.8746 4.32824 43.9477 13.2898 40.1954 20.815C35.573 30.0853 21.9283 30.0037 17.4289 20.6788C13.2639 12.047 20.5545 2.24013 30.3099 3.35203ZM28.2323 8.69075C22.4384 9.32193 19.8118 16.1324 23.7551 20.2997C27.9982 24.784 35.6773 22.062 36.0174 15.9532C36.2505 11.7658 32.4604 8.23018 28.2323 8.69075Z" fill="#291247"/>
</svg>
