<svg width="118" height="118" viewBox="0 0 118 118" fill="none" xmlns="http://www.w3.org/2000/svg">
<path d="M62.9607 27.3443C66.5948 23.154 66.5949 23.154 70.0452 26.6084C72.9121 29.4786 75.8341 32.2982 78.6183 35.2467C79.822 36.5162 80.7777 36.8888 81.7884 35.2467C82.6705 33.8069 83.4975 34.0277 84.4302 35.1593C84.7702 35.5686 85.1836 35.9228 85.5604 36.3C91.5101 42.2566 92.2773 45.4443 88.7764 53.2178C84.8345 61.9573 78.2094 68.0612 69.3607 71.6949C67.9564 72.3415 66.3855 72.5329 64.8674 72.2423C63.1813 71.8329 62.1981 72.4677 61.1092 73.6222C56.184 78.7555 51.2175 83.8474 46.2097 88.8979C44.2249 90.9034 41.8083 91.6578 39.0884 90.6274C36.7913 89.7489 35.321 88.0654 35.0224 85.5401C34.8736 84.4807 34.9817 83.401 35.3375 82.3923C35.6934 81.3835 36.2865 80.4753 37.0669 79.7445C42.8742 73.9764 48.6263 68.1486 54.4657 62.4127C55.5454 61.3547 55.5638 60.7752 54.4657 59.7218C50.827 56.2168 47.3399 52.5555 43.7012 49.0551C42.6261 48.0155 42.502 47.3256 43.7241 46.4424C44.0962 46.1704 44.4246 45.8431 44.6981 45.4719C45.6446 44.1885 46.421 44.2345 47.5558 45.4213C50.8867 48.9125 54.3417 52.2749 57.7507 55.6833C58.0769 56.0099 58.4169 56.318 58.7247 56.6584C59.2898 57.284 59.8274 57.3898 60.443 56.7044C61.0587 56.0191 60.5073 55.6097 60.0892 55.1911C56.4735 51.5573 52.9404 47.8315 49.1776 44.3495C47.588 42.8822 47.758 41.9945 49.2925 40.8767C49.5394 40.694 49.7577 40.4754 49.9403 40.2282C50.8592 38.9448 51.6035 38.9632 52.7429 40.1546C56.23 43.8114 59.8366 47.3486 63.4385 50.8903C63.9807 51.4193 64.4814 52.7624 65.5749 51.5389C66.4938 50.5086 65.3636 50.044 64.849 49.5242C61.3619 45.9778 57.8977 42.3992 54.282 38.9862C52.9037 37.6891 52.9542 36.8336 54.3647 35.7894C54.7355 35.5156 55.0624 35.1868 55.3341 34.8143C56.1243 33.7149 56.7124 33.8943 57.6083 34.8143C61.2332 38.5493 64.9317 42.2153 68.6348 45.8536C69.131 46.3412 69.5536 47.5555 70.6011 46.4746C71.52 45.4949 70.5414 44.9705 69.9993 44.4277C66.4478 40.8353 62.9102 37.2245 59.2761 33.7195C58.155 32.6386 57.8702 31.8475 59.2485 30.8723C59.4975 30.692 59.7162 30.4731 59.8963 30.2238C61.0265 28.6414 61.9592 28.5356 63.4064 30.1134C66.5122 33.4942 69.8385 36.6496 73.1005 39.9016C73.4221 40.2236 73.7529 40.5456 74.0745 40.8767C74.6442 41.4701 75.2139 41.9485 75.9765 41.1113C76.7392 40.2742 75.903 39.8832 75.4712 39.4508C71.9764 35.9152 68.4541 32.3964 64.9041 28.8944C64.288 28.3392 63.639 27.8215 62.9607 27.3443ZM85.5696 45.7432C85.4455 44.7543 85.4593 43.7148 84.8391 42.8914C83.9202 41.6817 83.1575 40.9963 81.623 42.528C68.2289 56.0267 54.7766 69.4825 41.2662 82.8953C40.6 83.5623 39.479 84.2752 40.554 85.3331C41.6291 86.3911 42.3275 85.3331 43.0442 84.6616C43.3796 84.3488 43.6966 84.0176 44.0182 83.691C49.4671 78.1254 54.9191 72.5612 60.3741 66.9986C60.9576 66.4099 61.5411 65.2047 62.584 66.1845C64.532 68.0243 66.5627 67.3988 68.5291 66.4834C74.5018 63.7236 79.0961 59.3079 82.6568 53.8434C84.2511 51.4038 85.249 48.6225 85.5696 45.7249V45.7432Z" fill="#291146"/>
<path d="M59.441 0.141479C91.5234 0.334668 117.863 25.4998 117.918 58.6823C117.978 91.1978 92.2585 117.356 59.2848 117.241C26.2376 117.131 0.817001 91.0598 0.936454 58.6409C1.05131 24.7454 27.9421 0.30247 59.441 0.141479ZM62.9603 27.3443C63.6461 27.8178 64.3028 28.3324 64.9267 28.8852C68.4613 32.381 71.9836 35.8998 75.4937 39.4416C75.9255 39.874 76.7709 40.2511 75.999 41.1021C75.2272 41.953 74.6667 41.4609 74.097 40.8675C73.7754 40.5363 73.4446 40.2143 73.123 39.8924C69.8794 36.6404 66.5347 33.4849 63.4289 30.1041C61.9817 28.5264 61.049 28.6322 59.9188 30.2145C59.7387 30.4638 59.52 30.6828 59.271 30.8631C57.8927 31.8382 58.1775 32.6294 59.2986 33.7103C62.9327 37.2153 66.4704 40.8261 70.0218 44.4185C70.5639 44.9613 71.5517 45.4856 70.6237 46.4654C69.5991 47.5463 69.1535 46.332 68.6573 45.8444C64.9496 42.1922 61.2512 38.5262 57.6308 34.8051C56.7487 33.8851 56.1468 33.6919 55.3566 34.8051C55.0849 35.1776 54.758 35.5064 54.3872 35.7802C52.9767 36.8243 52.9308 37.6799 54.3045 38.977C57.9157 42.39 61.3798 45.9686 64.8715 49.515C65.3861 50.0348 66.5163 50.4993 65.5974 51.5297C64.504 52.7532 64.0032 51.4101 63.4611 50.8811C59.8591 47.3393 56.2525 43.8021 52.7654 40.1453C51.626 38.954 50.8771 38.9356 49.9628 40.2189C49.7803 40.4661 49.5619 40.6847 49.315 40.8675C47.7805 41.9852 47.6105 42.873 49.2002 44.3403C52.963 47.8177 56.496 51.5481 60.1118 55.1819C60.5299 55.6004 61.1041 55.9868 60.4655 56.6952C59.8269 57.4035 59.3123 57.2748 58.7472 56.6492C58.4394 56.3088 58.0994 56.0006 57.7732 55.674C54.3642 52.2656 50.9093 48.9032 47.5784 45.412C46.4436 44.2253 45.6671 44.1793 44.7207 45.4626C44.4472 45.8339 44.1188 46.1611 43.7467 46.4332C42.5246 47.3163 42.6486 48.0063 43.7237 49.0458C47.3624 52.5462 50.8496 56.2076 54.4883 59.7126C55.5817 60.7659 55.5634 61.3455 54.4883 62.4034C48.6489 68.1393 42.8967 73.9672 37.0894 79.7352C36.3091 80.4661 35.7159 81.3743 35.3601 82.383C35.0042 83.3918 34.8961 84.4715 35.045 85.5309C35.3436 88.0561 36.8092 89.7396 39.111 90.6182C41.8308 91.6485 44.2475 90.8942 46.2322 88.8887C51.237 83.8321 56.2035 78.7402 61.1317 73.613C62.2206 72.4769 63.2038 71.8421 64.8899 72.2331C66.408 72.5236 67.9789 72.3323 69.3832 71.6857C78.2549 68.0519 84.857 61.9297 88.7989 53.2086C92.3136 45.435 91.5555 42.2474 85.5829 36.2908C85.2062 35.9136 84.7926 35.5594 84.4527 35.15C83.5338 34.0185 82.693 33.7977 81.8109 35.2374C80.8002 36.8979 79.8445 36.5254 78.6408 35.2374C75.8566 32.289 72.9346 29.4694 70.0677 26.5991C66.5944 23.1539 66.5944 23.1539 62.9603 27.3443Z" fill="#C84772"/>
<path d="M85.5688 45.7248C85.2523 48.6213 84.2592 51.4025 82.6697 53.8434C79.1045 59.3078 74.5193 63.7098 68.5421 66.4834C66.5757 67.4034 64.545 68.0151 62.597 66.1844C61.5541 65.2047 60.9706 66.4098 60.3871 66.9986C54.9198 72.552 49.4679 78.1161 44.0312 83.691C43.7096 84.0176 43.3926 84.3488 43.0572 84.6615C42.3405 85.3285 41.5962 86.345 40.5671 85.3331C39.5379 84.3212 40.613 83.5622 41.2792 82.8953C54.756 69.4364 68.2098 55.9746 81.6406 42.5096C83.1567 40.9779 83.9378 41.6633 84.8566 42.873C85.4585 43.7055 85.4447 44.7359 85.5688 45.7248Z" fill="#C44671"/>
</svg>
