<svg width="33" height="43" viewBox="0 0 33 43" fill="none" xmlns="http://www.w3.org/2000/svg">
<path fill-rule="evenodd" clip-rule="evenodd" d="M15.252 1.00117C14.2637 1.42154 13.2008 1.63821 12.1268 1.63821H12.0979C11.0372 1.63828 10.0126 2.06738 9.26296 2.81767L9.22134 2.85932C8.4706 3.61063 7.58099 4.20885 6.602 4.62072L6.56368 4.63684C5.63931 5.0257 4.90847 5.76754 4.53347 6.69762C4.14661 7.65694 3.57383 8.53028 2.8481 9.26736L2.77989 9.33664L2.74411 9.37298C2.01891 10.1094 1.6128 11.1018 1.61362 12.1354C1.6144 13.2007 1.40958 14.2561 1.0104 15.2438L0.959987 15.3685L0.933472 15.4341C0.531273 16.4292 0.542046 17.5436 0.96341 18.5308L0.987424 18.587C1.40577 19.567 1.61654 20.623 1.60645 21.6884C1.59678 22.7172 1.99829 23.7153 2.72191 24.4466C3.4686 25.2012 4.06124 26.0939 4.46675 27.0749L4.49164 27.1351C4.84307 27.9853 5.14539 28.6924 5.16336 28.7064C5.18133 28.7204 5.87005 29.0102 6.69378 29.3505C7.6826 29.7588 8.58152 30.3576 9.33945 31.1126L9.36994 31.143L9.39338 31.1663C10.133 31.9033 11.1345 32.3171 12.1786 32.3171H12.2736C13.2871 32.3171 14.2906 32.5182 15.2258 32.9088C16.9415 33.6254 16.6597 33.6254 18.3684 32.9091C19.3006 32.5183 20.3013 32.3171 21.3121 32.3171H21.4228C22.4738 32.3171 23.4849 31.8933 24.2246 31.1467C24.9898 30.3743 25.9149 29.758 26.9205 29.3443C27.9041 28.9398 28.6862 28.1603 29.094 27.178L29.109 27.142L29.1546 27.032C29.5551 26.0679 30.1404 25.1915 30.8775 24.4522C31.5925 23.7352 31.994 22.7542 31.994 21.7416C31.994 20.6909 32.1976 19.6502 32.5936 18.6769L32.6449 18.5509L32.6535 18.5299C33.065 17.5183 33.0619 16.3854 32.6449 15.376L32.62 15.3159C32.2067 14.3156 31.994 13.2439 31.994 12.1617C31.994 11.1112 31.5807 10.103 30.8432 9.35484L30.8253 9.33664L30.7567 9.26703C30.0305 8.53017 29.4573 7.65694 29.07 6.69762C28.6944 5.76744 27.9634 5.02545 27.0389 4.63605L27.0026 4.62072C26.0247 4.20884 25.1362 3.61105 24.3862 2.86051L24.3434 2.81767C23.589 2.06258 22.5633 1.63832 21.4959 1.63832C20.4024 1.63832 19.3078 1.41868 18.3009 0.992448C17.4616 0.637221 16.7694 0.350563 16.7624 0.355407C16.7554 0.360251 16.0757 0.650892 15.252 1.00117ZM18.4079 6.31666C25.5829 7.41841 29.5665 15.1253 26.3756 21.7319C23.1884 28.331 14.4175 29.7866 9.23911 24.5759C1.96975 17.2612 8.24871 4.75689 18.4079 6.31666ZM21.1893 12.1042C20.9833 12.2334 19.5632 13.6248 18.0334 15.1964C16.5036 16.768 15.2117 18.0715 15.1625 18.093C15.1132 18.1145 14.4873 17.5502 13.7718 16.839C12.753 15.8266 12.3764 15.5206 12.0368 15.4291C10.9582 15.1385 10.064 15.8702 10.0632 17.0442C10.0629 17.4151 10.2102 17.7709 10.4726 18.033L12.2295 19.7885C14.6252 22.1822 14.8596 22.3261 15.7521 21.9509C16.1075 21.8015 23.1369 14.6798 23.4053 14.1972C24.1455 12.8664 22.4811 11.2944 21.1893 12.1042ZM4.83398 36.358C3.75222 39.586 2.88569 42.243 2.90837 42.2622C2.93105 42.2816 4.48854 41.5779 6.36964 40.6986L7.13866 40.3391C8.76821 39.5773 10.6861 39.7839 12.116 40.8753C13.3953 41.8519 14.4802 42.6509 14.5267 42.6509C15.5147 42.6509 16.2535 37.7031 15.5575 35.7469L15.0906 34.4344C14.9335 33.9928 14.5964 33.6385 14.1632 33.4595C13.5254 33.1959 13.3735 33.1782 11.7445 33.1782H11.6799C10.6092 33.1782 9.58325 32.749 8.83152 31.9866C7.7135 30.8527 7.2506 30.486 6.93983 30.488C6.85168 30.4886 6.08005 32.6395 4.83398 36.358ZM26.1103 30.6995C25.9043 30.8111 25.2312 31.4144 24.6145 32.0403C23.8971 32.7683 22.9177 33.1782 21.8956 33.1782H21.8061C20.6926 33.1782 19.5901 33.3998 18.5631 33.8302L18.4618 33.8726C16.8369 34.5535 16.7971 34.564 16.4294 34.4095C16.2232 34.3227 16.0543 34.2879 16.0543 34.3321C16.0543 34.5318 19.0044 42.6509 19.077 42.6509C19.1219 42.6509 20.2063 41.8522 21.4865 40.876C22.9174 39.7848 24.8358 39.5783 26.4661 40.34L27.2354 40.6995C29.1172 41.5787 30.675 42.2824 30.6973 42.2633C30.8131 42.1641 26.794 30.4897 26.6451 30.493C26.5569 30.4949 26.3162 30.588 26.1103 30.6995Z" fill="#291247"/>
</svg>
