<svg width="43" height="41" viewBox="0 0 43 41" fill="none" xmlns="http://www.w3.org/2000/svg">
<path d="M34.1367 3.87509C35.459 2.7233 36.4598 1.90655 38.2655 0.505228L38.5177 0.309586C38.6696 0.191678 38.8613 0.137019 39.0526 0.157019C41.4688 0.409737 42.71 2.20485 42.318 4.87975C42.2339 5.45362 42.2679 5.41311 41.7153 5.59685C37.5427 6.98424 32.0198 12.5993 25.456 22.1276C23.9998 24.2417 21.8605 27.6173 21.6662 28.1079C20.9266 29.9753 18.8803 30.9349 16.9737 30.3084C16.13 30.0312 15.9787 29.9032 13.6291 27.4798C13.2835 27.1234 12.3501 26.1633 11.5549 25.3464C9.63716 23.3763 9.47657 23.1708 9.17685 22.304C8.42487 20.1293 9.92623 17.7848 12.0709 17.7848C13.0902 17.7848 13.5439 17.9744 14.1821 18.6669C14.4603 18.9688 15.0552 19.6048 15.5042 20.0801C15.9533 20.5555 16.7908 21.4485 17.3655 22.0646L18.1321 22.8862C18.2769 23.0414 18.527 23.0272 18.6533 22.8566C19.0644 22.3015 19.2696 21.9575 19.8743 20.8095C22.7769 15.299 27.6112 9.55911 34.1367 3.87509Z" fill="#291247"/>
<path d="M0.247766 11.1679C0.929182 7.87645 3.35926 5.41921 6.44271 4.90384C6.7803 4.8474 9.1906 4.83216 18.4723 4.82774L28.108 4.82312C28.8337 4.82277 29.1965 5.70104 28.682 6.21296C27.3212 7.56718 26.1627 8.78399 25.3902 9.67048C25.1485 9.94784 24.7989 10.1074 24.431 10.1081L16.046 10.1246L7.54928 10.1413C7.24171 10.1419 6.93809 10.2107 6.66024 10.3426C5.95508 10.6774 5.40568 11.3921 5.2622 12.1615C5.16512 12.6819 5.19158 33.0753 5.28985 33.4896C5.50993 34.4177 6.19526 35.1335 7.08409 35.3637C7.65408 35.5113 29.7296 35.4867 30.2141 35.338C31.0591 35.0784 31.7357 34.3555 31.9322 33.5021C31.9693 33.3411 31.9886 30.4457 31.9895 24.9241L31.9907 17.3049C31.9908 16.8424 32.1529 16.3946 32.4489 16.0393C33.3784 14.9234 33.6481 14.6094 34.2895 13.896C35.706 12.3205 36.9596 12.8567 36.9779 14.9753C37.0333 21.3828 37.112 33.754 36.9499 34.4743C36.2402 37.6276 34.0149 39.94 31.0673 40.5873C30.6881 40.6705 30.3011 40.7125 29.9128 40.7125H18.6265C7.20078 40.7125 6.73792 40.7087 6.26729 40.6106C2.87868 39.904 0.420524 37.0398 0.152478 33.4857C0.0305695 31.8686 0.116188 11.8034 0.247766 11.1679Z" fill="#291247"/>
</svg>
