<svg width="175" height="192" viewBox="0 0 175 192" fill="none" xmlns="http://www.w3.org/2000/svg">
<path d="M36.0458 54.1378C32.7454 55.5409 29.9664 56.7995 27.1339 57.9276C23.541 59.2904 20.4963 61.7975 18.4695 65.0622C16.4427 68.3269 15.5465 72.1678 15.919 75.9924C16.3421 80.3638 16.9743 84.7174 17.655 89.0645C19.2091 99.0785 20.7456 109.097 22.469 119.085C23.5947 125.704 27.5158 130.556 33.2615 133.894C54.6149 146.319 75.9822 158.716 97.3634 171.087C106.82 176.541 115.771 174.106 121.336 164.619C132.639 145.273 143.627 125.735 155.233 106.585C156.489 104.516 157.311 102.213 157.65 99.8164C157.989 97.4199 157.838 94.9794 157.207 92.6428C156.575 90.3063 155.476 88.1223 153.975 86.2232C152.474 84.3241 150.604 82.7494 148.477 81.5946C128.206 70.4257 108.172 58.7959 88.3746 46.7052C78.7037 40.8237 69.5249 40.4523 59.5669 45.2301C55.3772 47.2399 50.8382 48.5249 46.2371 50.2162C45.9523 48.7385 45.7576 48.0041 45.6792 47.2577C45.0561 41.5623 44.5417 35.8505 43.8328 30.1401C43.4515 26.9461 41.3651 25.0531 38.6183 25.1524C35.5989 25.2674 33.7687 26.9976 33.601 30.2554C33.5771 32.1635 33.7041 34.0706 33.981 35.9587C34.6351 41.866 35.3124 47.7421 36.0458 54.1378Z" fill="white"/>
<path d="M36.0467 54.1377C35.3134 47.742 34.6302 41.8675 33.9912 35.9939C33.7144 34.1058 33.5873 32.1987 33.6113 30.2905C33.7774 27.0269 35.6077 25.2967 38.6285 25.1876C41.3753 25.0883 43.4618 26.9813 43.8431 30.1753C44.5148 35.8641 45.0585 41.5681 45.6895 47.2929C45.7679 48.0393 45.9626 48.7737 46.2474 50.2514C50.8309 48.5648 55.3875 47.2751 59.5772 45.2653C69.5352 40.4875 78.7139 40.8589 88.3849 46.7404C108.178 58.782 128.219 70.4058 148.507 81.6118C150.634 82.7667 152.505 84.3413 154.005 86.2404C155.506 88.1395 156.606 90.3235 157.237 92.6601C157.869 94.9966 158.02 97.4371 157.681 99.8336C157.341 102.23 156.519 104.533 155.264 106.602C143.661 125.764 132.67 145.291 121.367 164.636C115.831 174.115 106.851 176.558 97.394 171.105C75.9964 158.75 54.6291 146.353 33.2921 133.911C27.5465 130.574 23.6563 125.719 22.4996 119.102C20.7528 109.121 19.2163 99.1019 17.6857 89.0817C17.0049 84.7346 16.3728 80.381 15.9497 76.0096C15.5772 72.185 16.4734 68.3441 18.5002 65.0794C20.527 61.8147 23.5716 59.3076 27.1645 57.9449C29.9673 56.7994 32.7463 55.5408 36.0467 54.1377ZM48.0659 61.2391C54.721 58.7329 61.1637 56.4214 67.4939 53.8755C72.1207 52.0202 76.3321 52.369 80.6345 54.8882C101.127 66.887 121.696 78.7712 142.222 90.7547C148.284 94.2915 148.715 95.7744 145.294 101.68C134.341 120.569 123.355 139.439 112.334 158.29C109.144 163.739 107.229 164.228 101.645 160.998C80.9206 149.019 60.208 137.011 39.5068 124.976C35.1856 122.48 32.8954 118.799 32.1825 113.951C30.4515 101.649 28.6946 89.3515 26.9116 77.059C26.1083 71.6566 27.3928 69.3856 32.5077 67.3317C33.9122 66.7707 35.326 66.245 37.1105 65.5519C36.9512 63.6699 36.7776 61.9237 36.628 59.7939C33.9498 60.6737 31.9838 61.2514 30.0082 61.9827C23.1369 64.5273 19.9029 70.0002 20.911 77.2663C21.5692 82.0029 22.1671 86.7493 22.8739 91.4793C24.0663 99.6147 25.2974 107.746 26.5674 115.873C26.9467 118.831 28.0323 121.654 29.7324 124.103C31.4325 126.553 33.6971 128.558 36.3351 129.948C39.8423 131.911 43.2864 133.991 46.7411 135.993C64.2908 146.198 81.8501 156.392 99.4191 166.575C106.893 170.882 112.457 169.407 116.975 162.16C118.796 159.231 120.43 156.213 122.186 153.232C131.711 136.836 141.246 120.444 150.792 104.059C153.535 99.37 154.532 94.7102 150.926 90.1893C149.298 88.318 147.346 86.7563 145.163 85.5794C125.322 73.9739 105.356 62.584 85.5773 50.8803C78.1148 46.4508 70.7875 44.9032 62.8557 49.4016C61.8772 49.9566 60.6626 50.071 59.5981 50.4915C55.3698 52.1658 51.1582 53.8796 46.8628 55.6094C46.8799 56.6709 46.951 57.7308 47.0758 58.7851C47.3422 59.6274 47.6731 60.4478 48.0659 61.2391ZM79.2637 79.2979C74.5766 85.6465 74.5606 85.657 77.3258 91.1305C83.2419 102.868 89.1784 114.596 95.1355 126.315C96.452 128.909 97.9969 131.392 99.5137 134.077C103.654 130.269 103.833 126.933 101.287 122.527C97.1946 115.437 93.8815 107.921 90.1821 100.607C86.6613 93.7304 83.1007 86.8454 79.2344 79.3057L79.2637 79.2979ZM118.271 97.9966C116.754 92.0602 109.008 87.1275 103.204 88.4083C97.6728 89.6291 93.2696 96.9777 94.6147 102.74C95.9803 108.603 104.556 113.674 110.363 112.047C115.84 110.507 119.688 103.67 118.242 98.0044L118.271 97.9966ZM83.7835 111.031C82.2342 104.902 74.6935 100.154 68.7392 101.556C63.0055 102.913 58.7218 110.261 60.3618 115.926C62.0871 121.889 69.9171 126.447 75.8046 124.912C81.692 123.376 85.2676 117.033 83.7835 111.031ZM48.7714 71.0882C49.0135 74.7529 49.2404 77.7677 49.4055 80.7864C49.5467 83.2642 48.0849 84.7711 45.9995 85.5628C45.0183 85.9945 43.914 86.0563 42.8907 85.7369C41.8674 85.4175 40.9943 84.7384 40.4328 83.8252C39.7095 82.5308 39.2335 81.1132 39.0291 79.6446C38.563 77.3409 38.2924 74.9916 37.8628 72.1375C31.9555 78.319 31.9496 84.678 37.2289 89.1266C38.4135 90.1719 39.8105 90.9483 41.3237 91.4023C42.837 91.8563 44.4306 91.9773 45.995 91.7567C47.5595 91.5362 49.0576 90.9795 50.3863 90.1249C51.7151 89.2703 52.8431 88.138 53.6926 86.8059C57.2002 81.3926 55.4074 74.9382 48.742 71.096L48.7714 71.0882Z" fill="#291247"/>
<path d="M48.0673 61.239C47.6958 60.4402 47.3864 59.6141 47.1418 58.7678C47.017 57.7135 46.9459 56.6536 46.9288 55.5921C51.2242 53.8623 55.4475 52.1454 59.6641 50.4743C60.7286 50.0538 61.9433 49.9393 62.9218 49.3843C70.8418 44.889 78.1632 46.4382 85.6433 50.863C105.43 62.5961 125.388 73.9566 145.229 85.5621C147.412 86.739 149.364 88.3008 150.992 90.172C154.597 94.687 153.6 99.3468 150.858 104.042C141.266 120.393 131.731 136.784 122.252 153.215C120.525 156.188 118.863 159.219 117.041 162.142C112.526 169.401 106.959 170.864 99.4852 166.557C81.8874 156.424 64.3281 146.23 46.8072 135.976C43.3286 133.955 39.8846 131.875 36.4012 129.931C33.7632 128.54 31.4985 126.536 29.7984 124.086C28.0983 121.637 27.0127 118.814 26.6334 115.856C25.3674 107.728 24.1363 99.5963 22.94 91.462C22.239 86.7304 21.6352 81.9856 20.977 77.249C19.9658 69.9712 23.1911 64.5132 30.0742 61.9654C32.0205 61.2419 34.0158 60.6564 36.6941 59.7767C36.873 61.8987 37.0173 63.6526 37.1766 65.5345C35.3921 66.2277 33.9782 66.7534 32.5738 67.3144C27.4572 69.3624 26.1743 71.6393 26.9776 77.0417C28.7567 89.3353 30.5136 101.633 32.2485 113.934C32.907 118.79 35.2281 122.469 39.5729 124.958C60.3008 136.937 81.0134 148.944 101.711 160.981C107.295 164.21 109.21 163.722 112.4 158.273C123.421 139.421 134.407 120.551 145.36 101.663C148.781 95.7571 148.35 94.2742 142.288 90.7375C121.768 78.7774 101.199 66.8932 80.7005 54.8709C76.3981 52.3517 72.1868 52.0029 67.56 53.8582C61.1651 56.4212 54.7224 58.7328 48.0673 61.239Z" fill="white"/>
<path d="M79.2352 79.3052C83.1191 86.8402 86.6621 93.7298 90.1598 100.638C93.8592 107.951 97.1754 115.48 101.265 122.558C103.81 126.964 103.632 130.3 99.4913 134.108C97.9745 131.422 96.4355 128.938 95.1132 126.345C89.1415 114.635 83.2049 102.907 77.3034 91.1613C74.5437 85.6612 74.5422 85.6553 79.2352 79.3052Z" fill="white"/>
<path d="M118.243 98.0035C119.688 103.67 115.841 110.506 110.333 112.048C104.526 113.675 95.9502 108.604 94.5846 102.741C93.2395 96.9788 97.6426 89.6302 103.173 88.4093C108.979 87.1344 116.726 92.0671 118.243 98.0035ZM103.776 95.7578C101.338 96.4543 100.354 98.174 101.063 100.47C101.892 103.168 106.625 105.843 109.291 105.13C111.571 104.526 112.558 102.699 111.889 100.317C111.047 97.3077 106.77 94.9075 103.776 95.7578Z" fill="white"/>
<path d="M83.7842 111.031C85.2977 117.025 81.6356 123.397 75.8053 124.911C69.975 126.425 62.0879 121.888 60.3626 115.926C58.7225 110.261 63.0062 102.912 68.74 101.556C74.6648 100.161 82.2056 104.91 83.7842 111.031ZM69.613 108.55C67.4369 109.07 66.0253 111.217 66.5502 113.197C67.234 115.777 72.106 118.642 74.7482 118.029C76.9071 117.539 78.337 115.342 77.7871 113.363C77.0537 110.715 72.2682 107.915 69.5836 108.557L69.613 108.55Z" fill="white"/>
<path d="M48.743 71.0956C55.4201 74.9347 57.2012 81.3922 53.6642 86.8134C52.8147 88.1454 51.6867 89.2777 50.358 90.1323C49.0292 90.9869 47.531 91.5437 45.9666 91.7642C44.4022 91.9847 42.8085 91.8638 41.2953 91.4098C39.782 90.9557 38.3851 90.1793 37.2005 89.134C31.9213 84.6854 31.9153 78.3295 37.8343 72.1449C38.2639 74.9991 38.5346 77.3483 39.0006 79.652C39.205 81.1206 39.681 82.5383 40.4044 83.8326C40.9658 84.7458 41.8389 85.4249 42.8622 85.7443C43.8855 86.0637 44.9898 86.0019 45.9711 85.5702C48.0564 84.7785 49.5168 83.2658 49.3771 80.7938C49.1885 77.7814 49.0144 74.7526 48.743 71.0956Z" fill="white"/>
<path d="M103.775 95.758C106.769 94.9077 111.046 97.3079 111.9 100.314C112.569 102.696 111.582 104.523 109.302 105.127C106.635 105.835 101.903 103.165 101.074 100.467C100.353 98.1743 101.337 96.4545 103.775 95.758Z" fill="#291247"/>
<path d="M69.5825 108.558C72.2671 107.915 77.0703 110.71 77.7743 113.366C78.3007 115.352 76.8942 117.542 74.7353 118.033C72.0606 118.641 67.2211 115.78 66.5374 113.201C65.9949 111.225 67.4079 109.084 69.5825 108.558Z" fill="#291247"/>
</svg>
