<svg width="36" height="37" viewBox="0 0 36 37" fill="none" xmlns="http://www.w3.org/2000/svg">
<path fill-rule="evenodd" clip-rule="evenodd" d="M21.6463 0.560907C20.6929 0.994275 20.6062 1.22664 20.24 4.32957C20.0037 6.33203 19.1746 7.53766 16.8108 9.31663C14.1996 11.2815 12.132 13.6493 10.8714 16.1182C10.0954 17.638 9.69037 18.1201 9.00455 18.3402C7.94297 18.6811 8.02292 17.9628 8.02292 27.1625V35.4014L8.36306 35.7418C8.5501 35.9291 8.80295 36.0824 8.92488 36.0824C9.04694 36.0824 10.9981 36.283 13.261 36.5282C17.1524 36.9499 17.6601 36.9741 22.64 36.9746C31.0138 36.9755 31.6618 36.7291 32.2106 33.3347C32.393 32.2072 32.4135 32.1661 33.1022 31.546C34.4575 30.326 34.7425 29.0014 33.9737 27.4962L33.5774 26.7206L34.3022 25.9949C35.5293 24.7664 35.5906 23.8457 34.5668 22.0165L34.1091 21.1987L34.5911 20.0851C36.3654 15.9854 34.2533 14.3731 27.1727 14.4213C22.062 14.4563 22.0805 14.4731 23.5566 11.1483C25.6204 6.50016 25.6921 6.26336 25.5811 4.47024C25.3784 1.19376 23.7699 -0.40446 21.6463 0.560907ZM0.48175 18.6826C0.150615 19.0141 0.150615 35.6716 0.48175 36.0032C0.879944 36.4017 6.55179 36.3211 6.83734 35.9127C7.02674 35.6421 7.05306 34.5957 7.05306 27.3429C7.05306 20.0901 7.02674 19.0437 6.83734 18.773C6.55179 18.3646 0.879944 18.284 0.48175 18.6826Z" fill="#C84772"/>
</svg>
