<svg width="555" height="284" viewBox="0 0 555 284" fill="none" xmlns="http://www.w3.org/2000/svg">
<g clip-path="url(#clip0)">
<path d="M278.441 0.141479C310.523 0.334668 336.863 25.4998 336.918 58.6823C336.978 91.1978 311.258 117.356 278.285 117.241C245.238 117.131 219.817 91.0598 219.936 58.6409C220.051 24.7454 246.942 0.30247 278.441 0.141479ZM281.96 27.3443C282.646 27.8178 283.303 28.3324 283.927 28.8852C287.461 32.381 290.984 35.8998 294.494 39.4416C294.926 39.874 295.771 40.2511 294.999 41.1021C294.227 41.953 293.667 41.4609 293.097 40.8675C292.775 40.5363 292.445 40.2143 292.123 39.8924C288.879 36.6404 285.535 33.4849 282.429 30.1041C280.982 28.5264 280.049 28.6322 278.919 30.2145C278.739 30.4638 278.52 30.6828 278.271 30.8631C276.893 31.8382 277.178 32.6294 278.299 33.7103C281.933 37.2153 285.47 40.8261 289.022 44.4185C289.564 44.9613 290.552 45.4856 289.624 46.4654C288.599 47.5463 288.153 46.332 287.657 45.8444C283.95 42.1922 280.251 38.5262 276.631 34.8051C275.749 33.8851 275.147 33.6919 274.357 34.8051C274.085 35.1776 273.758 35.5064 273.387 35.7802C271.977 36.8243 271.931 37.6799 273.305 38.977C276.916 42.39 280.38 45.9686 283.872 49.515C284.386 50.0348 285.516 50.4993 284.597 51.5297C283.504 52.7532 283.003 51.4101 282.461 50.8811C278.859 47.3393 275.253 43.8021 271.765 40.1453C270.626 38.954 269.877 38.9356 268.963 40.2189C268.78 40.4661 268.562 40.6847 268.315 40.8675C266.781 41.9852 266.611 42.873 268.2 44.3403C271.963 47.8177 275.496 51.5481 279.112 55.1819C279.53 55.6004 280.104 55.9868 279.466 56.6952C278.827 57.4035 278.312 57.2748 277.747 56.6492C277.439 56.3088 277.099 56.0006 276.773 55.674C273.364 52.2656 269.909 48.9032 266.578 45.412C265.444 44.2253 264.667 44.1793 263.721 45.4626C263.447 45.8339 263.119 46.1611 262.747 46.4332C261.525 47.3163 261.649 48.0063 262.724 49.0458C266.362 52.5462 269.85 56.2076 273.488 59.7126C274.582 60.7659 274.563 61.3455 273.488 62.4034C267.649 68.1393 261.897 73.9672 256.089 79.7352C255.309 80.4661 254.716 81.3743 254.36 82.383C254.004 83.3918 253.896 84.4715 254.045 85.5309C254.344 88.0561 255.809 89.7396 258.111 90.6182C260.831 91.6485 263.247 90.8942 265.232 88.8887C270.237 83.8321 275.203 78.7402 280.132 73.613C281.221 72.4769 282.204 71.8421 283.89 72.2331C285.408 72.5236 286.979 72.3323 288.383 71.6857C297.255 68.0519 303.857 61.9297 307.799 53.2086C311.314 45.435 310.556 42.2474 304.583 36.2908C304.206 35.9136 303.793 35.5594 303.453 35.15C302.534 34.0185 301.693 33.7977 300.811 35.2374C299.8 36.8979 298.845 36.5254 297.641 35.2374C294.857 32.289 291.935 29.4694 289.068 26.5991C285.594 23.1539 285.594 23.1539 281.96 27.3443Z" fill="#C84772"/>
<path d="M169.854 167.503C170.961 162.944 171.962 159.058 172.817 155.139C173.134 153.676 173.736 153.014 175.302 152.839C180.104 152.264 180.104 152.181 181.427 156.877C182.277 159.89 183.094 162.908 183.94 165.92C183.967 166.031 184.105 166.114 184.477 166.523C185.396 163.34 186.251 160.387 187.078 157.425C187.413 156.21 186.297 156.206 185.699 156.082C184.248 155.783 184.036 155.162 184.197 153.685C184.385 151.979 185.341 152.255 186.37 152.255C188.893 152.255 191.424 152.209 193.937 152.287C194.571 152.287 195.669 151.689 195.807 152.807C195.926 153.782 196.175 155.29 194.916 155.622C192.674 156.215 192.407 158.046 191.851 159.729C190.193 164.725 188.507 169.711 187 174.752C186.499 176.44 185.672 177.217 183.949 177.512C179.506 178.257 179.525 178.321 178.335 173.929C177.416 170.47 176.437 167.029 175.348 163.032C174.292 167.172 173.235 170.819 172.472 174.531C172.073 176.477 171.209 177.291 169.256 177.549C164.836 178.11 164.841 178.211 163.624 173.942C162.195 168.947 160.715 163.966 159.406 158.938C158.992 157.356 158.326 156.284 156.7 155.999C155.073 155.714 155.322 154.619 155.345 153.405C155.4 151.813 156.489 152.296 157.283 152.287C161.028 152.255 164.777 152.241 168.521 152.287C169.155 152.287 170.386 151.721 170.359 152.77C170.331 153.819 170.566 155.53 169.229 155.75C166.334 156.27 167.028 157.894 167.593 159.702C168.314 162.07 168.976 164.476 169.854 167.503Z" fill="#612261"/>
<path d="M321.325 163.45C324.426 164.494 326.379 166.339 326.507 169.554C326.636 172.769 324.803 175.019 321.348 176.348C318.895 177.268 316.322 177.53 313.712 177.526C310.28 177.526 306.844 177.549 303.412 177.498C302.828 177.498 301.79 177.958 301.735 176.955C301.684 176.081 301.386 174.743 302.681 174.425C305.277 173.791 305.245 171.964 305.176 169.862C305.056 166.21 305.052 162.549 305.176 158.897C305.24 157.351 304.716 156.597 303.283 156.463C301.905 156.344 301.804 155.589 301.836 154.43C301.868 153.271 302.171 152.646 303.435 152.475C308.442 151.79 313.469 151.459 318.49 152.015C321.247 152.314 323.76 153.294 324.711 156.284C325.547 158.86 324.702 160.603 321.325 163.45ZM312.706 169.977C312.706 170.897 312.706 171.817 312.706 172.737C312.706 173.197 312.683 173.597 313.262 173.827C315.1 174.559 317.902 173.538 318.582 171.817C319.501 169.517 318.665 167.379 316.547 166.44C313.758 165.212 312.697 165.87 312.697 168.837C312.701 169.214 312.701 169.596 312.706 169.977ZM312.706 159.297C312.653 159.978 312.653 160.662 312.706 161.344C312.812 162.038 312.136 163.271 313.556 163.225C314.714 163.188 316.198 163.961 316.924 162.254C317.532 160.936 317.725 159.463 317.475 158.032C317.08 156.026 315.596 155.346 313.754 155.493C311.806 155.649 313.005 157.25 312.701 158.165C312.644 158.54 312.644 158.922 312.701 159.297H312.706Z" fill="#632462"/>
<path d="M380.041 177.521C380.128 175.897 380.169 174.467 381.74 173.689C382.453 173.335 382.544 172.673 382.544 171.937C382.544 167.121 382.508 162.3 382.544 157.485C382.544 156.519 382.273 155.833 381.405 155.474C379.962 154.886 380.188 153.759 380.376 152.6C380.592 151.279 381.662 151.5 382.521 151.413C383.583 151.307 384.681 151.413 385.738 151.215C387.865 150.755 388.692 151.514 388.549 153.704C388.375 156.436 388.797 159.2 387.833 162.53C389.078 161.459 389.804 160.769 390.589 160.171C392.546 158.69 394.724 158.105 397.021 159.205C399.171 160.24 399.562 162.296 399.594 164.439C399.622 166.353 399.594 168.266 399.594 170.175C399.594 171.702 399.135 173.312 401.106 174.283C401.965 174.706 401.335 175.962 401.221 176.831C401.106 177.7 400.338 177.512 399.769 177.512C397.632 177.512 395 178.243 393.497 177.259C391.995 176.274 393.442 173.519 393.231 171.541C393.056 169.95 393.231 168.322 393.148 166.725C393.07 165.304 392.34 164.472 390.773 164.61C389.363 164.738 388.774 165.437 388.871 166.873C388.943 168.252 388.943 169.633 388.871 171.012C388.816 172.392 388.843 173.556 390.502 174.067C391.88 174.49 390.998 175.566 390.961 176.394C390.925 177.222 390.575 177.567 389.689 177.553C386.505 177.489 383.303 177.521 380.041 177.521Z" fill="#622361"/>
<path d="M249.883 159.283C250.223 157.241 250.048 155.663 247.93 154.904C246.823 154.508 247.282 153.556 247.471 152.747C247.659 151.937 247.88 151.335 248.913 151.367C250.059 151.374 251.203 151.309 252.341 151.174C255.313 150.879 255.41 150.962 255.419 154.053C255.419 159.329 255.46 164.605 255.451 169.881C255.451 171.463 255.548 172.871 257.234 173.758C258.221 174.278 257.849 176.518 256.774 177.194C254.234 178.832 251.261 178.073 249.772 175.327C248.183 177.719 245.853 178.367 243.244 177.857C240.74 177.369 239.431 175.497 238.723 173.165C238.122 171.304 237.942 169.333 238.194 167.393C238.447 165.454 239.127 163.595 240.184 161.951C242.454 158.303 246.125 157.356 249.883 159.283ZM249.212 168.533C249.212 167.539 249.189 166.541 249.212 165.548C249.235 164.554 249.212 163.671 248.045 163.368C246.878 163.064 246.065 163.607 245.541 164.527C244.117 167.029 244.163 169.646 245.229 172.254C245.771 173.574 246.91 173.611 248.128 173.427C249.538 173.216 249.157 172.144 249.198 171.293C249.24 170.442 249.212 169.453 249.212 168.533Z" fill="#632462"/>
<path d="M216.183 177.521C216.266 175.87 216.459 174.595 217.892 173.616C219.326 172.636 219.036 164.172 217.525 163.234C216.339 162.498 216.39 161.638 216.564 160.529C216.762 159.269 217.75 159.545 218.512 159.439C219.647 159.283 220.81 159.278 221.931 159.113C223.888 158.823 225.183 159.219 224.651 161.969C225.776 161.081 226.599 160.35 227.508 159.743C231.322 157.181 235.456 159.159 235.695 163.759C235.819 165.893 235.695 168.041 235.746 170.198C235.746 171.725 235.286 173.34 237.262 174.31C238.117 174.733 237.487 175.994 237.372 176.859C237.257 177.723 236.486 177.535 235.916 177.535C233.775 177.535 231.133 178.266 229.64 177.277C228.147 176.288 229.589 173.533 229.383 171.546C229.213 169.954 229.383 168.326 229.3 166.73C229.217 165.295 228.464 164.49 226.902 164.637C225.482 164.77 224.935 165.502 225.023 166.937C225.108 168.469 225.108 170.005 225.023 171.537C224.954 172.746 225.22 173.607 226.488 173.998C227.972 174.458 227.168 175.552 227.127 176.463C227.072 177.562 226.41 177.59 225.579 177.581C222.454 177.507 219.33 177.521 216.183 177.521Z" fill="#622361"/>
<path d="M357.16 174.669C355.634 176.73 353.838 178.022 351.307 177.981C348.775 177.939 347.3 176.803 346.767 174.333C346.115 171.307 346.51 168.229 346.45 165.18C346.45 164.122 346.372 163.22 345.256 162.737C344.24 162.277 344.236 161.555 344.337 160.502C344.461 158.841 345.196 158.616 346.634 158.662C353.319 158.768 352.634 157.949 352.653 164.674C352.653 166.431 352.653 168.193 352.717 169.95C352.758 171.33 353.397 172.162 354.863 171.987C356.085 171.849 357.013 171.422 356.866 169.839C356.758 168.388 356.758 166.93 356.866 165.479C356.944 164.205 356.696 163.234 355.363 162.77C354.031 162.305 354.293 161.252 354.445 160.134C354.619 158.814 355.469 158.832 356.397 158.754C357.775 158.662 359.154 158.621 360.505 158.423C362.342 158.156 363.004 159.03 362.995 160.723C362.995 163.782 362.995 166.845 362.995 169.922C362.995 171.187 363.238 172.319 364.272 173.206C365.811 174.54 365.439 176.684 363.578 177.493C360.73 178.708 358.584 177.847 357.16 174.669Z" fill="#632462"/>
<path d="M215.306 167.273C215.163 175.589 209.792 179.756 202.657 177.507C201.631 177.213 200.688 176.684 199.901 175.962C196.864 173.073 196.354 166.445 198.876 162.521C200.11 160.613 201.981 159.208 204.156 158.556C206.331 157.905 208.666 158.05 210.743 158.966C214.561 160.631 215.241 164.002 215.306 167.273ZM208.621 169.209C208.515 167.222 208.327 165.479 207.569 163.851C207.44 163.485 207.195 163.173 206.871 162.962C206.547 162.75 206.162 162.652 205.777 162.682C205.429 162.71 205.101 162.857 204.85 163.1C204.598 163.342 204.439 163.664 204.399 164.011C203.82 166.771 203.801 169.481 204.931 172.102C205.276 172.903 205.887 173.547 206.852 173.482C207.941 173.432 208.12 172.562 208.267 171.698C208.414 170.833 208.52 169.899 208.621 169.209Z" fill="#622362"/>
<path d="M267.819 177.981C262.306 177.981 259.407 175.561 258.552 171.081C257.519 165.626 260.064 160.336 264.525 158.745C269.703 156.905 273.755 159.886 273.792 165.621C273.819 169.798 273.819 169.798 269.772 169.798C268.706 169.798 267.631 169.757 266.556 169.798C266.032 169.826 265.233 169.43 265.122 170.41C265.107 170.721 265.187 171.03 265.351 171.296C265.515 171.561 265.756 171.77 266.041 171.895C267.654 172.871 269.377 172.572 270.865 171.803C272.041 171.196 272.602 171.196 273.466 172.263C274.385 173.4 273.962 174.071 273.259 174.991C272.633 175.865 271.819 176.587 270.878 177.104C269.937 177.622 268.891 177.921 267.819 177.981ZM264.603 165.598C264.998 166.104 264.208 167.438 265.651 167.291C266.625 167.199 267.893 167.07 267.557 165.474C267.337 164.43 267.658 162.802 266.179 162.747C264.456 162.678 264.943 164.416 264.626 165.598H264.603Z" fill="#622362"/>
<path d="M375.125 166.201C376.204 167.04 377.229 167.947 378.194 168.915C380.243 171.215 379.935 174.186 377.56 176.164C375.185 178.142 370.586 178.62 367.815 177.061C366.4 176.265 365.426 175.152 365.587 173.381C365.73 171.771 366.506 170.985 368.927 170.037C368.849 169.168 368.008 168.915 367.549 168.367C364.953 165.313 365.587 161.468 369.106 159.472C371.629 158.055 374.28 157.659 376.986 158.929C378.713 159.738 379.517 161.229 379.145 163.069C378.773 164.908 377.519 165.916 375.543 165.801C374.826 164.545 374.091 163.308 372.754 162.604C372.295 162.356 371.698 162.144 371.312 162.664C370.926 163.184 371.284 163.717 371.716 164.016C372.828 164.78 373.986 165.474 375.125 166.201ZM368.776 169.839C369.727 172.112 370.572 173.749 372.451 174.531C373.016 174.761 373.673 174.991 374.114 174.388C374.62 173.712 374.022 173.239 373.572 172.889C372.113 171.668 370.5 170.643 368.776 169.839Z" fill="#632462"/>
<path d="M283.178 163.685C283.959 162.176 284.607 160.723 285.834 159.669C286.909 158.749 288.062 158.409 289.426 158.938C290.791 159.467 291.218 160.534 291.264 161.827C291.309 162.667 291.275 163.509 291.163 164.343C290.947 165.851 290.557 166.643 288.526 166.183C284.207 165.212 282.094 167.963 283.532 172.291C283.913 173.423 285.14 173.211 286.022 173.455C287.276 173.832 288.108 174.154 287.86 175.902C287.616 177.576 286.785 177.544 285.563 177.526C282.659 177.48 279.755 177.526 276.833 177.498C276.19 177.498 275.133 177.848 274.996 177.185C274.812 176.297 274.77 174.885 275.616 174.425C277.757 173.303 277.417 171.509 277.348 169.701C277.302 168.321 277.233 166.942 277.293 165.562C277.343 164.398 277.182 163.432 275.974 162.949C274.839 162.489 275.055 161.643 275.143 160.649C275.271 159.426 276.089 159.412 276.921 159.357C278.593 159.242 280.421 158.713 281.901 159.205C283.789 159.881 282.121 162.181 283.178 163.685Z" fill="#612261"/>
<path d="M327.279 177.42C327.321 175.801 327.449 174.32 329.085 173.515C329.266 173.449 329.424 173.331 329.537 173.175C329.651 173.019 329.716 172.833 329.724 172.641C329.682 169.816 329.659 166.988 329.558 164.159C329.558 163.464 328.786 163.211 328.267 162.967C327.114 162.429 327.431 161.587 327.518 160.668C327.619 159.582 328.341 159.531 329.112 159.444L329.797 159.361C334.704 158.777 334.704 158.777 335.31 163.68C336.179 162.402 336.872 161.201 337.741 160.143C338.788 158.86 340.148 158.303 341.816 158.984C343.346 159.619 343.654 160.93 343.654 162.369C343.65 163.132 343.588 163.893 343.47 164.646C343.258 166.026 342.799 166.62 341.058 166.233C336.569 165.24 334.272 168.073 335.912 172.378C336.275 173.335 337.382 173.298 338.209 173.441C340.006 173.754 340.562 174.655 340.075 176.445C339.854 177.263 339.615 177.567 338.765 177.558C335.407 177.512 332.044 177.558 328.681 177.535C328.221 177.516 327.766 177.457 327.279 177.42Z" fill="#612261"/>
<path d="M307.896 227.157C309.274 230.28 311.64 231.411 315.086 230.749C317.682 230.248 319.221 228.238 319.221 225.271C319.221 223.362 319.253 221.448 319.221 219.535C319.221 218.712 319.368 218.247 320.337 218.288C321.164 218.325 321.357 218.721 321.348 219.448C321.316 221.895 321.348 224.342 321.302 226.807C321.279 227.267 321.18 227.719 321.008 228.146C319.736 231.623 315.794 233.417 311.236 232.607C307.928 232.019 305.567 229.13 305.53 225.602C305.53 223.537 305.53 221.462 305.53 219.406C305.53 218.638 305.594 218.077 306.605 218.091C307.616 218.104 307.698 218.656 307.685 219.429C307.622 220.655 307.622 221.883 307.685 223.109C307.758 223.987 306.991 225.409 308.953 225.344C310.565 225.285 312.132 225.262 312.334 223.164C312.444 222.028 312.334 220.864 312.38 219.728C312.38 219.034 312.072 218.109 313.363 218.114C314.654 218.118 314.544 218.978 314.516 219.848C314.489 220.607 314.516 221.37 314.516 222.148C314.452 225.62 312.95 227.12 309.463 227.207C309.012 227.166 308.557 227.157 307.896 227.157Z" fill="#682B67"/>
<path d="M210.596 227.157C211.937 230.271 214.317 231.407 217.772 230.749C220.368 230.257 221.907 228.238 221.907 225.28C221.907 223.44 221.907 221.6 221.907 219.76C221.907 218.983 221.779 218.219 223.005 218.27C224.044 218.311 224.025 218.928 224.021 219.65C224.021 221.95 224.021 224.25 224.021 226.549C224.003 227.085 223.899 227.615 223.713 228.118C222.449 231.6 218.507 233.394 213.945 232.589C212.322 232.284 210.858 231.415 209.812 230.135C208.766 228.855 208.206 227.246 208.23 225.593C208.23 223.527 208.23 221.453 208.23 219.397C208.23 218.643 208.271 218.058 209.296 218.072C210.32 218.086 210.398 218.624 210.384 219.401C210.325 220.628 210.333 221.856 210.407 223.081C210.481 223.96 209.691 225.381 211.657 225.326C213.27 225.275 214.846 225.257 215.048 223.159C215.167 221.95 215.08 220.717 215.089 219.48C215.089 218.794 214.983 218.1 216.072 218.1C217.161 218.1 217.294 218.725 217.248 219.599C217.203 220.473 217.248 221.274 217.225 222.115C217.166 225.593 215.668 227.097 212.172 227.175C211.717 227.166 211.262 227.157 210.596 227.157Z" fill="#682B67"/>
<path d="M188.594 227.157C189.803 230.225 192.187 231.388 195.688 230.758C198.219 230.298 199.855 228.297 199.887 225.556C199.915 223.569 199.887 221.582 199.887 219.576C199.887 218.817 199.887 218.247 200.944 218.27C202.001 218.293 202.014 218.84 202.01 219.608C201.982 221.908 202.01 224.208 201.982 226.508C201.969 227.044 201.872 227.575 201.693 228.081C200.461 231.568 196.552 233.371 191.953 232.598C190.327 232.307 188.856 231.449 187.801 230.176C186.747 228.903 186.176 227.297 186.191 225.643C186.191 223.578 186.191 221.504 186.191 219.447C186.191 218.739 186.136 218.068 187.202 218.068C188.158 218.068 188.36 218.527 188.342 219.351C188.263 220.576 188.263 221.805 188.342 223.031C188.433 223.891 187.574 225.33 189.545 225.33C191.259 225.307 192.872 225.229 193.005 222.985C193.074 221.766 193.005 220.538 193.005 219.305C193.005 218.652 193.037 218.091 193.924 218.095C194.81 218.1 195.192 218.431 195.164 219.314C195.127 220.303 195.164 221.297 195.137 222.29C195.063 225.51 193.529 227.055 190.363 227.166C189.835 227.175 189.251 227.157 188.594 227.157Z" fill="#682B67"/>
<path d="M397.177 227.483C397.177 232.731 397.177 232.754 391.949 232.644C391.269 232.644 390.111 233.251 390.015 231.83C389.927 230.165 391.274 230.869 392 230.841C395.032 230.735 395.036 230.781 395.036 227.837C395.036 226.614 394.981 225.386 395.036 224.158C395.119 222.552 394.288 221.559 392.983 220.883C390.157 219.42 388.788 220.082 388.388 223.155C388.021 225.882 387.736 228.615 387.469 231.347C387.378 232.212 387.171 232.759 386.091 232.681C384.874 232.593 385.292 231.761 385.347 231.195C385.646 228.155 386.008 225.119 386.312 222.083C386.394 221.255 386.849 220.151 385.237 220.202C384.584 220.202 384.676 219.581 384.672 219.162C384.672 218.583 385.071 218.38 385.59 218.403C387.947 218.5 390.336 218.077 392.661 218.725C395.804 219.608 397.177 221.485 397.196 224.705C397.177 225.648 397.177 226.563 397.177 227.483Z" fill="#682B67"/>
<path d="M370.397 233.923C369.878 232.437 370.397 231.834 371.652 231.71C373.885 231.489 374.234 230.39 373.577 228.311C372.797 225.589 372.173 222.825 371.707 220.032C371.601 219.484 370.788 218.495 372.217 218.274C373.365 218.1 373.632 218.767 373.829 219.691C374.468 222.755 375.208 225.795 375.814 228.891C376.113 230.418 376.733 230.514 377.951 229.811C379.407 228.969 379.825 227.653 379.857 226.131C379.908 223.987 379.857 221.844 379.857 219.691C379.857 219.024 379.683 218.311 380.776 218.265C381.87 218.219 382.035 218.762 382.017 219.677C381.971 221.743 382.063 223.817 381.985 225.878C381.856 229.42 380.496 231.172 377.078 232.179C374.918 232.846 372.685 233.343 370.397 233.923Z" fill="#6A2E69"/>
<path d="M295.877 222.847C295.877 221.697 295.909 220.547 295.877 219.401C295.877 218.647 296.079 218.256 296.906 218.293C297.6 218.325 298.073 218.454 298.055 219.314C297.995 221.839 298.055 224.374 297.922 226.885C297.765 229.811 295.896 231.393 293.272 232.17C291.375 232.736 289.431 233.178 287.497 233.601C287.116 233.688 286.463 234.397 286.252 233.412C286.128 232.828 286.064 232.235 286.84 231.885C287.911 231.402 289.725 231.936 289.9 230.252C290.019 229.102 289.44 227.879 289.183 226.687C288.669 224.388 288.126 222.088 287.658 219.751C287.557 219.263 287.015 218.481 288.085 218.321C288.898 218.196 289.546 218.288 289.762 219.342C290.378 222.331 291.081 225.321 291.756 228.284C291.921 228.997 291.82 230.123 292.56 230.229C293.506 230.353 294.457 229.696 295.069 228.849C295.882 227.75 295.932 226.439 295.891 225.119C295.859 224.378 295.877 223.61 295.877 222.847Z" fill="#6A2E69"/>
<path d="M240.849 225.505C240.849 223.744 240.923 221.982 240.849 220.229C240.776 218.909 241.065 218.39 242.568 218.353C251.756 218.058 253.709 219.811 253.162 228.661C253.116 229.58 253.116 230.501 253.162 231.421C253.19 232.225 253.011 232.699 252.05 232.704C251.09 232.708 250.906 232.276 250.92 231.453C250.952 229.314 250.92 227.17 250.92 225.013C250.92 221.637 249.615 220.317 246.257 220.262C243.041 220.202 243.041 220.202 243.041 223.523C243.041 225.97 243.041 228.417 243.041 230.882C243.041 231.609 243.5 232.653 242.035 232.695C240.422 232.745 240.914 231.586 240.886 230.786C240.813 229.019 240.849 227.262 240.849 225.505Z" fill="#6A2E69"/>
<path d="M367.774 232.662H357.758C357.041 232.662 356.38 232.718 356.435 231.641C356.485 230.662 357.138 230.823 357.717 230.818C359.701 230.818 361.682 230.818 364.149 230.818C361.479 226.568 358.976 222.589 356.435 218.555C357.923 217.994 358.856 218.366 359.554 219.654C360.207 220.855 360.997 221.986 361.751 223.132C362.109 223.67 362.274 224.512 363.193 224.342C363.649 224.279 364.079 224.094 364.438 223.806C364.797 223.519 365.072 223.14 365.233 222.709C365.665 221.591 365.481 220.441 365.477 219.309C365.477 218.449 365.881 218.297 366.607 218.302C367.333 218.307 367.526 218.578 367.526 219.259C367.572 221.89 367.778 224.581 364.723 225.869C363.873 226.232 363.832 226.582 364.346 227.331C365.518 228.955 366.524 230.648 367.774 232.662Z" fill="#632462"/>
<path d="M348.109 232.662C346.501 232.662 344.893 232.662 343.29 232.662C342.527 232.662 342.187 232.446 342.215 231.623C342.242 230.8 342.707 230.804 343.276 230.809C345.188 230.809 347.103 230.731 349.01 230.832C350.26 230.901 350.586 230.432 350.517 229.263C350.43 227.736 350.517 226.204 350.517 224.664C350.494 221.747 349.368 220.524 346.419 220.285C345.353 220.202 344.278 220.229 343.203 220.243C342.56 220.243 342.233 220.055 342.229 219.323C342.224 218.592 342.491 218.353 343.148 218.403C344.985 218.486 346.796 218.247 348.615 218.762C351.045 219.457 352.401 220.979 352.575 223.477C352.681 224.999 352.538 226.545 352.667 228.077C352.759 229.162 351.84 230.836 354.078 230.965C354.188 230.965 354.326 231.632 354.335 231.986C354.335 232.621 353.875 232.667 353.384 232.667L348.109 232.662Z" fill="#632462"/>
<path d="M176.543 220.257H174.939C171.204 220.257 170.892 219.866 171.438 216.117C171.53 215.492 171.64 215.142 172.357 215.16C173.074 215.179 173.676 215.28 173.506 216.122C173.046 218.514 174.494 218.472 176.148 218.422C177.985 218.348 179.823 218.518 181.633 218.371C183.306 218.238 183.581 218.877 183.609 220.427C183.655 223.026 183.182 225.239 180.999 226.894C179.529 228.003 179.621 229.705 179.621 231.296C179.621 232.216 179.433 232.708 178.367 232.676C177.213 232.639 177.475 231.867 177.448 231.241C177.448 228.872 177.843 226.683 179.961 225.174C180.387 224.855 180.733 224.44 180.972 223.964C182.327 221.356 181.67 220.252 178.803 220.248L176.543 220.257Z" fill="#632462"/>
<path d="M169.522 230.082C169.522 232.069 169.522 234.055 169.522 236.039C169.522 236.821 169.609 237.626 168.452 237.639C167.294 237.653 167.363 236.876 167.363 236.085C167.363 232.34 167.363 228.601 167.363 224.857C167.363 221.609 166.072 220.335 162.791 220.257C161.799 220.257 160.807 220.257 159.814 220.257C159.203 220.257 159.075 219.884 159.079 219.365C159.084 218.845 159.102 218.403 159.75 218.445C162.01 218.514 164.344 217.985 166.485 219.144C168.351 220.16 169.476 221.729 169.513 223.923C169.55 225.961 169.522 228.021 169.522 230.082Z" fill="#6A2E69"/>
<path d="M234.041 226.043C233.881 224.429 234.891 221.872 233.678 220.653C232.466 219.434 229.902 220.432 227.945 220.243C227.265 220.179 226.107 220.837 226.107 219.323C226.107 217.81 227.292 218.449 227.945 218.431C230.848 218.362 233.752 218.39 236.674 218.431C237.28 218.431 238.121 218.1 238.158 219.273C238.185 220.105 237.813 220.344 237.064 220.294C235.865 220.211 236.228 221.136 236.224 221.729C236.192 224.788 236.224 227.851 236.187 230.928C236.187 231.628 236.697 232.695 235.199 232.727C233.821 232.759 234.055 231.807 234.046 231.02C234.032 229.456 234.041 227.925 234.041 226.043Z" fill="#682B67"/>
<path d="M336.137 227.801C336.137 228.868 336.137 229.935 336.137 231.02C336.137 231.83 336.353 232.741 334.974 232.709C333.679 232.676 334.005 231.789 333.996 231.108C333.996 228.969 334.023 226.835 333.996 224.7C333.941 221.789 332.778 220.533 329.861 220.321C328.345 220.211 326.815 220.289 325.267 220.28C324.577 220.28 323.888 220.363 323.916 219.273C323.957 218.353 324.587 218.417 325.184 218.417C326.934 218.417 328.699 218.316 330.435 218.468C334.111 218.79 336.013 220.887 336.123 224.613C336.16 225.666 336.137 226.733 336.137 227.801Z" fill="#6A2E69"/>
<path d="M267.745 227.879C267.745 229.098 267.709 230.321 267.745 231.559C267.778 232.478 267.332 232.708 266.496 232.704C265.577 232.704 265.577 232.129 265.577 231.49C265.577 229.355 265.577 227.221 265.577 225.087C265.549 221.66 264.341 220.413 260.914 220.298C259.466 220.248 258.019 220.298 256.572 220.298C255.988 220.298 255.534 220.202 255.524 219.447C255.524 218.794 255.717 218.422 256.411 218.44C258.538 218.486 260.702 218.307 262.788 218.633C266.087 219.148 267.598 221.108 267.727 224.48C267.782 225.588 267.745 226.733 267.745 227.879Z" fill="#6A2E69"/>
<path d="M282.162 227.515C282.162 220.482 282.162 220.487 274.968 220.252C274.324 220.252 273.35 220.676 273.337 219.332C273.323 217.989 274.292 218.413 274.949 218.413C283.628 218.008 284.698 220.229 284.354 227.52C284.285 228.9 284.317 230.28 284.354 231.66C284.354 232.46 284.005 232.709 283.251 232.709C282.498 232.709 282.139 232.451 282.158 231.655C282.185 230.261 282.162 228.886 282.162 227.515Z" fill="#6A2E69"/>
<path d="M255.539 228.123C255.539 227.129 255.539 226.131 255.539 225.137C255.516 224.388 255.539 223.79 256.573 223.794C257.491 223.794 257.762 224.13 257.744 225.018C257.694 227.161 257.703 229.305 257.744 231.457C257.744 232.304 257.528 232.708 256.591 232.704C255.562 232.704 255.534 232.092 255.548 231.352C255.553 230.271 255.539 229.194 255.539 228.123Z" fill="#6A2E69"/>
<path d="M323.925 228.021C323.925 227.028 323.971 226.03 323.925 225.036C323.879 224.171 324.146 223.771 325.074 223.799C325.855 223.799 326.149 224.098 326.135 224.889C326.098 227.106 326.108 229.328 326.135 231.549C326.135 232.285 325.938 232.667 325.111 232.69C324.192 232.718 323.902 232.336 323.934 231.467C323.962 230.321 323.93 229.171 323.925 228.021Z" fill="#6A2E69"/>
<path d="M300.907 225.62V219.723C300.907 219.038 300.792 218.344 301.886 218.38C302.736 218.408 303.126 218.661 303.099 219.558C303.053 220.998 303.071 222.437 303.099 223.872C303.126 225.308 302.12 225.395 300.907 225.62Z" fill="#6A2E69"/>
<path d="M281.961 27.3443C285.595 23.154 285.595 23.154 289.045 26.6084C291.912 29.4786 294.834 32.2982 297.618 35.2467C298.822 36.5162 299.778 36.8888 300.788 35.2467C301.671 33.8069 302.498 34.0277 303.43 35.1593C303.77 35.5686 304.184 35.9228 304.56 36.3C310.51 42.2566 311.277 45.4443 307.776 53.2178C303.834 61.9573 297.209 68.0612 288.361 71.6949C286.956 72.3415 285.386 72.5329 283.867 72.2423C282.181 71.8329 281.198 72.4677 280.109 73.6222C275.184 78.7555 270.218 83.8474 265.21 88.8979C263.225 90.9034 260.808 91.6578 258.088 90.6274C255.791 89.7489 254.321 88.0654 254.022 85.5401C253.874 84.4807 253.982 83.401 254.338 82.3923C254.693 81.3835 255.287 80.4753 256.067 79.7445C261.874 73.9764 267.626 68.1486 273.466 62.4127C274.545 61.3547 274.564 60.7752 273.466 59.7218C269.827 56.2168 266.34 52.5555 262.701 49.0551C261.626 48.0155 261.502 47.3256 262.724 46.4424C263.096 46.1704 263.425 45.8431 263.698 45.4719C264.645 44.1885 265.421 44.2345 266.556 45.4213C269.887 48.9125 273.342 52.2749 276.751 55.6833C277.077 56.0099 277.417 56.318 277.725 56.6584C278.29 57.284 278.827 57.3898 279.443 56.7044C280.059 56.0191 279.507 55.6097 279.089 55.1911C275.473 51.5573 271.94 47.8315 268.178 44.3495C266.588 42.8822 266.758 41.9945 268.292 40.8767C268.539 40.694 268.758 40.4754 268.94 40.2282C269.859 38.9448 270.603 38.9632 271.743 40.1546C275.23 43.8114 278.837 47.3486 282.439 50.8903C282.981 51.4193 283.481 52.7624 284.575 51.5389C285.494 50.5086 284.364 50.044 283.849 49.5242C280.362 45.9778 276.898 42.3992 273.282 38.9862C271.904 37.6891 271.954 36.8336 273.365 35.7894C273.735 35.5156 274.062 35.1868 274.334 34.8143C275.124 33.7149 275.712 33.8943 276.608 34.8143C280.233 38.5493 283.932 42.2153 287.635 45.8536C288.131 46.3412 288.554 47.5555 289.601 46.4746C290.52 45.4949 289.541 44.9705 288.999 44.4277C285.448 40.8353 281.91 37.2245 278.276 33.7195C277.155 32.6386 276.87 31.8475 278.248 30.8723C278.497 30.692 278.716 30.4731 278.896 30.2238C280.026 28.6414 280.959 28.5356 282.406 30.1134C285.512 33.4942 288.838 36.6496 292.1 39.9016C292.422 40.2236 292.753 40.5456 293.074 40.8767C293.644 41.4701 294.214 41.9485 294.977 41.1113C295.739 40.2742 294.903 39.8832 294.471 39.4508C290.976 35.9152 287.454 32.3964 283.904 28.8944C283.288 28.3392 282.639 27.8215 281.961 27.3443ZM304.57 45.7432C304.446 44.7543 304.459 43.7148 303.839 42.8914C302.92 41.6817 302.158 40.9963 300.623 42.528C287.229 56.0267 273.777 69.4825 260.266 82.8953C259.6 83.5623 258.479 84.2752 259.554 85.3331C260.629 86.3911 261.327 85.3331 262.044 84.6616C262.38 84.3488 262.697 84.0176 263.018 83.691C268.467 78.1254 273.919 72.5612 279.374 66.9986C279.958 66.4099 280.541 65.2047 281.584 66.1845C283.532 68.0243 285.563 67.3988 287.529 66.4834C293.502 63.7236 298.096 59.3079 301.657 53.8434C303.251 51.4038 304.249 48.6225 304.57 45.7249V45.7432Z" fill="#291146"/>
<path d="M312.701 169.977V168.818C312.701 165.851 313.762 165.194 316.551 166.422C318.669 167.342 319.491 169.522 318.586 171.799C317.906 173.519 315.122 174.559 313.266 173.809C312.687 173.579 312.714 173.16 312.71 172.719C312.696 171.817 312.705 170.897 312.701 169.977Z" fill="#FAF9FA"/>
<path d="M312.701 159.297C312.643 158.922 312.643 158.54 312.701 158.165C313.004 157.245 311.782 155.649 313.753 155.493C315.591 155.346 317.079 156.026 317.475 158.032C317.724 159.463 317.532 160.936 316.923 162.254C316.197 163.961 314.713 163.174 313.556 163.225C312.136 163.271 312.811 162.038 312.706 161.344C312.651 160.663 312.65 159.978 312.701 159.297Z" fill="#FAF9FA"/>
<path d="M249.211 168.533C249.211 169.453 249.243 170.373 249.211 171.293C249.179 172.213 249.551 173.216 248.141 173.427C246.923 173.611 245.784 173.574 245.242 172.254C244.176 169.646 244.13 167.029 245.554 164.527C246.078 163.607 246.932 163.069 248.058 163.368C249.184 163.667 249.253 164.582 249.225 165.548C249.197 166.514 249.211 167.54 249.211 168.533Z" fill="#FAF9FA"/>
<path d="M208.621 169.209C208.52 169.899 208.409 170.81 208.258 171.711C208.106 172.613 207.931 173.446 206.843 173.496C205.878 173.547 205.267 172.903 204.922 172.116C203.792 169.494 203.81 166.767 204.389 164.025C204.43 163.678 204.589 163.356 204.841 163.113C205.092 162.871 205.42 162.723 205.768 162.696C206.153 162.666 206.538 162.764 206.862 162.975C207.186 163.187 207.431 163.499 207.559 163.864C208.35 165.479 208.515 167.222 208.621 169.209Z" fill="#FAF9FA"/>
<path d="M264.625 165.598C264.943 164.416 264.455 162.678 266.201 162.747C267.681 162.802 267.359 164.43 267.58 165.474C267.915 167.07 266.661 167.199 265.673 167.291C264.23 167.438 265.021 166.104 264.625 165.598Z" fill="#FAF9FA"/>
<path d="M368.775 169.839C370.505 170.641 372.122 171.667 373.586 172.889C374.045 173.238 374.633 173.712 374.128 174.388C373.668 174.977 373.03 174.761 372.465 174.531C370.572 173.749 369.726 172.112 368.775 169.839Z" fill="#FEFEFE"/>
<path d="M375.124 166.201C373.985 165.474 372.827 164.78 371.715 164.007C371.283 163.708 370.902 163.188 371.311 162.655C371.72 162.121 372.276 162.346 372.753 162.595C374.09 163.299 374.826 164.536 375.542 165.792L375.124 166.201Z" fill="#FEFEFE"/>
<path d="M304.569 45.7248C304.252 48.6213 303.259 51.4025 301.67 53.8434C298.105 59.3078 293.519 63.7098 287.542 66.4834C285.576 67.4034 283.545 68.0151 281.597 66.1844C280.554 65.2047 279.971 66.4098 279.387 66.9986C273.92 72.552 268.468 78.1161 263.031 83.691C262.71 84.0176 262.393 84.3488 262.057 84.6615C261.341 85.3285 260.596 86.345 259.567 85.3331C258.538 84.3212 259.613 83.5622 260.279 82.8953C273.756 69.4364 287.21 55.9746 300.641 42.5096C302.157 40.9779 302.938 41.6633 303.857 42.873C304.459 43.7055 304.445 44.7359 304.569 45.7248Z" fill="#C44671"/>
</g>
<path d="M491.076 210.942C492.744 182.879 512.069 155.531 539.813 144.106C542.23 166.768 514.407 204.968 491.076 210.942Z" fill="#291247"/>
<path d="M408.768 136.435C433.221 150.275 449.269 179.669 447.322 209.626C425.92 201.832 403.869 160.029 408.768 136.435Z" fill="#291247"/>
<path d="M493.661 234.063C506.943 220.535 528.886 215.204 548.054 221.704C539.242 234.298 508.17 241.377 493.661 234.063Z" fill="#291247"/>
<path d="M493.391 246.801C511.623 241.622 533.327 247.854 546.769 262.993C532.884 269.574 502.382 260.34 493.391 246.801Z" fill="#291247"/>
<path fill-rule="evenodd" clip-rule="evenodd" d="M366.667 256.296C365.982 256.908 366.023 257.993 366.764 258.535C379.917 268.145 396.125 273.816 413.657 273.816C457.62 273.816 493.259 238.155 493.259 194.164C493.259 174.397 486.064 156.312 474.15 142.388C473.617 141.765 472.672 141.722 472.073 142.282C471.494 142.823 471.453 143.724 471.967 144.326C483.423 157.734 490.341 175.14 490.341 194.164C490.341 236.545 456.007 270.898 413.657 270.898C396.789 270.898 381.192 265.447 368.53 256.21C367.965 255.798 367.188 255.83 366.667 256.296Z" fill="#2A1347"/>
<path fill-rule="evenodd" clip-rule="evenodd" d="M419.871 260.515C419.748 261.426 420.484 262.226 421.401 262.153C434.922 261.064 448.238 255.856 459.344 246.37C487.393 222.413 490.724 180.241 466.784 152.178C456.083 139.633 441.744 132.031 426.652 129.599C425.843 129.468 425.097 130.049 425.004 130.864C424.915 131.651 425.469 132.364 426.251 132.491C440.659 134.828 454.346 142.094 464.565 154.073C487.459 180.911 484.273 221.239 457.45 244.15C446.847 253.206 434.138 258.185 421.231 259.237C420.535 259.294 419.965 259.822 419.871 260.515Z" fill="#2A1347"/>
<path d="M63.874 217.868C62.2058 189.805 42.8809 162.457 15.1375 151.032C12.7204 173.694 40.5428 211.895 63.874 217.868Z" fill="#291247"/>
<path d="M146.183 143.361C121.729 157.202 105.681 186.596 107.628 216.552C129.03 208.759 151.082 166.956 146.183 143.361Z" fill="#291247"/>
<path d="M61.2891 240.989C48.0068 227.462 26.0642 222.13 6.89654 228.63C15.7085 241.224 46.7801 248.303 61.2891 240.989Z" fill="#291247"/>
<path d="M61.5592 253.727C43.3273 248.548 21.6231 254.781 8.18078 269.919C22.0663 276.5 52.5678 267.267 61.5592 253.727Z" fill="#291247"/>
<path fill-rule="evenodd" clip-rule="evenodd" d="M188.285 263.222C188.97 263.834 188.929 264.919 188.187 265.461C175.035 275.071 158.826 280.742 141.294 280.742C97.3311 280.742 61.6921 245.081 61.6921 201.09C61.6921 181.323 68.8878 163.238 80.801 149.315C81.3345 148.691 82.279 148.648 82.8786 149.208C83.4569 149.749 83.4981 150.651 82.984 151.252C71.5285 164.66 64.6105 182.066 64.6105 201.09C64.6105 243.471 98.9447 277.824 141.294 277.824C158.163 277.824 173.759 272.374 186.421 263.137C186.986 262.725 187.763 262.756 188.285 263.222Z" fill="#2A1347"/>
<path fill-rule="evenodd" clip-rule="evenodd" d="M135.079 267.441C135.203 268.353 134.467 269.153 133.55 269.079C120.029 267.991 106.712 262.783 95.606 253.296C67.5576 229.339 64.2266 187.168 88.166 159.104C98.8674 146.559 113.207 138.957 128.298 136.525C129.108 136.395 129.854 136.975 129.946 137.791C130.036 138.578 129.481 139.291 128.7 139.417C114.291 141.754 100.604 149.021 90.3851 161C67.4917 187.837 70.6772 228.166 97.5001 251.076C108.103 260.132 120.812 265.111 133.72 266.164C134.416 266.221 134.985 266.749 135.079 267.441Z" fill="#2A1347"/>
<defs>
<clipPath id="clip0">
<rect width="255.245" height="248.481" fill="white" transform="translate(150.779 0.141479)"/>
</clipPath>
</defs>
</svg>
