<svg width="165" height="85" viewBox="0 0 165 85" fill="none" xmlns="http://www.w3.org/2000/svg">
<rect x="3.338" y="0.694929" width="158.186" height="82.8994" rx="7.61321" fill="#F3F3F3" stroke="#E9E9E9" stroke-width="0.845912"/>
<path d="M74.3328 44.7936V39.6539C74.3328 37.7179 73.1004 36.4159 71.115 36.3987C70.5494 36.3618 69.9843 36.4775 69.4785 36.7336C68.9727 36.9898 68.5449 37.377 68.2395 37.855C67.9612 37.3913 67.5632 37.0112 67.0872 36.7549C66.6113 36.4987 66.0751 36.3756 65.5352 36.3987C65.0645 36.375 64.5959 36.4748 64.1756 36.6882C63.7553 36.9015 63.398 37.2211 63.139 37.6151V36.6043H61.3589V44.7936H63.1561V40.2534C63.1561 38.8315 63.9435 38.0778 65.1586 38.0778C66.3396 38.0778 66.9387 38.8487 66.9387 40.2364V44.7936H68.7359V40.2534C68.7359 38.8315 69.5575 38.0778 70.7385 38.0778C71.9536 38.0778 72.5356 38.8487 72.5356 40.2364V44.7936H74.3328ZM100.931 36.6043H98.0212V34.1202H96.2241V36.6043H94.5638V38.2319H96.2241V41.9667C96.2241 43.8685 96.96 44.9993 99.0652 44.9993C99.8517 45.0016 100.623 44.7819 101.29 44.3654L100.777 42.8405C100.3 43.1255 99.7577 43.2847 99.2022 43.3031C98.3122 43.3031 98.0212 42.7548 98.0212 41.9326V38.2319H100.931V36.6043ZM116.113 36.3987C115.679 36.3859 115.249 36.4906 114.87 36.7016C114.49 36.9127 114.175 37.2224 113.956 37.598V36.6043H112.193V44.7936H113.973V40.2021C113.973 38.8487 114.555 38.0948 115.719 38.0948C116.1 38.0896 116.478 38.1595 116.832 38.3005L117.379 36.6215C116.973 36.4758 116.545 36.4005 116.113 36.3987ZM93.1603 37.2554C92.1527 36.6557 90.9942 36.3583 89.8227 36.3987C87.7516 36.3987 86.4166 37.3924 86.4166 39.0199C86.4166 40.3563 87.4093 41.1787 89.2406 41.4357L90.0794 41.5556C91.0549 41.6926 91.5171 41.9496 91.5171 42.4122C91.5171 43.0461 90.8666 43.4059 89.6515 43.4059C88.674 43.434 87.7155 43.1323 86.93 42.5493L86.0914 43.9369C87.1282 44.6618 88.3702 45.0342 89.6344 44.9993C91.9963 44.9993 93.3656 43.8855 93.3656 42.3265C93.3656 40.8873 92.2874 40.1335 90.5073 39.8765L89.6687 39.7566C88.8984 39.6539 88.2823 39.4998 88.2823 38.9516C88.2823 38.3518 88.8641 37.9921 89.8398 37.9921C90.7357 38.0056 91.6134 38.2473 92.3901 38.6945L93.1603 37.2554ZM140.845 36.3987C140.411 36.3859 139.982 36.4905 139.602 36.7016C139.223 36.9127 138.907 37.2223 138.689 37.598V36.6043H136.926V44.7936H138.706V40.2021C138.706 38.8487 139.288 38.0948 140.452 38.0948C140.832 38.0896 141.21 38.1594 141.564 38.3005L142.112 36.6215C141.705 36.4758 141.277 36.4004 140.845 36.3987ZM117.91 40.6989C117.91 43.1832 119.639 44.9993 122.275 44.9993C123.343 45.053 124.393 44.7046 125.218 44.0226L124.363 42.5835C123.747 43.0531 122.997 43.3114 122.223 43.3201C120.803 43.3031 119.758 42.2751 119.758 40.6989C119.758 39.1228 120.803 38.0948 122.223 38.0778C122.997 38.0865 123.747 38.3449 124.363 38.8145L125.218 37.3753C124.393 36.6934 123.343 36.345 122.275 36.3987C119.639 36.3987 117.91 38.2147 117.91 40.6989ZM134.581 40.6989V36.6043H132.801V37.598C132.497 37.206 132.104 36.8927 131.654 36.684C131.204 36.4754 130.711 36.3775 130.216 36.3987C127.923 36.3987 126.126 38.1977 126.126 40.6989C126.126 43.2002 127.923 44.9993 130.216 44.9993C130.711 45.0204 131.204 44.9226 131.654 44.7139C132.104 44.5053 132.497 44.1919 132.801 43.8V44.7936H134.581V40.6989ZM127.957 40.6989C127.957 39.2598 128.898 38.0778 130.439 38.0778C131.911 38.0778 132.903 39.2084 132.903 40.6989C132.903 42.1894 131.911 43.3201 130.439 43.3201C128.898 43.3201 127.957 42.138 127.957 40.6989ZM106.477 36.3987C104.08 36.3987 102.403 38.1462 102.403 40.6989C102.403 43.3031 104.149 44.9993 106.596 44.9993C107.818 45.0422 109.012 44.6335 109.951 43.8513L109.078 42.5321C108.402 43.0743 107.565 43.3757 106.699 43.3887C105.552 43.3887 104.508 42.8577 104.251 41.3842H110.328C110.345 41.1615 110.362 40.9389 110.362 40.6989C110.345 38.1462 108.77 36.3987 106.477 36.3987ZM106.442 37.9921C107.589 37.9921 108.325 38.7116 108.513 39.9794H104.269C104.457 38.7973 105.176 37.9921 106.442 37.9921ZM151.098 40.6989V33.3149H149.318V37.598C149.014 37.2061 148.621 36.8927 148.171 36.684C147.721 36.4754 147.228 36.3775 146.733 36.3987C144.44 36.3987 142.642 38.1977 142.642 40.6989C142.642 43.2002 144.44 44.9993 146.733 44.9993C147.228 45.0204 147.721 44.9226 148.171 44.7139C148.621 44.5053 149.014 44.1919 149.318 43.8V44.7936H151.098V40.6989ZM153.178 44.0379C153.249 44.0375 153.319 44.0513 153.384 44.0787C153.446 44.1048 153.503 44.1427 153.552 44.1901C153.6 44.2375 153.638 44.2938 153.665 44.3558C153.692 44.4195 153.706 44.488 153.706 44.5573C153.706 44.6267 153.692 44.6952 153.665 44.7589C153.638 44.8206 153.6 44.8766 153.552 44.9239C153.503 44.9713 153.446 45.0094 153.384 45.0359C153.319 45.0637 153.249 45.0779 153.178 45.0774C153.074 45.0784 152.972 45.0488 152.885 44.9922C152.798 44.9355 152.729 44.8544 152.687 44.7589C152.66 44.6952 152.646 44.6266 152.646 44.5573C152.646 44.488 152.66 44.4195 152.687 44.3558C152.741 44.23 152.842 44.1304 152.969 44.0787C153.035 44.0512 153.106 44.0374 153.178 44.0379ZM153.178 44.9627C153.232 44.9631 153.285 44.9523 153.335 44.9309C153.382 44.9102 153.425 44.8808 153.462 44.8442C153.537 44.7679 153.58 44.6649 153.58 44.5576C153.58 44.4502 153.537 44.3472 153.462 44.2709C153.425 44.2344 153.382 44.2053 153.335 44.1851C153.285 44.164 153.232 44.1534 153.178 44.1538C153.123 44.1534 153.069 44.164 153.018 44.1851C152.957 44.211 152.904 44.2515 152.862 44.303C152.82 44.3545 152.792 44.4154 152.779 44.4804C152.767 44.5454 152.77 44.6126 152.789 44.676C152.808 44.7394 152.843 44.7972 152.889 44.8442C152.926 44.8811 152.97 44.9106 153.018 44.9309C153.069 44.9523 153.123 44.9631 153.178 44.9627ZM153.209 44.3143C153.26 44.311 153.31 44.3257 153.352 44.3558C153.368 44.3694 153.382 44.3866 153.39 44.4062C153.399 44.4257 153.403 44.4471 153.402 44.4684C153.403 44.4868 153.399 44.505 153.393 44.522C153.386 44.539 153.375 44.5544 153.362 44.5671C153.33 44.5952 153.29 44.612 153.248 44.6149L153.406 44.7971H153.283L153.136 44.6161H153.089V44.7971H152.986V44.3143H153.209ZM153.089 44.4048V44.5334H153.207C153.23 44.5346 153.253 44.529 153.272 44.5175C153.28 44.5121 153.287 44.5048 153.291 44.4962C153.295 44.4876 153.297 44.478 153.296 44.4684C153.297 44.4591 153.295 44.4497 153.291 44.4413C153.287 44.4329 153.28 44.4258 153.272 44.4207C153.253 44.4092 153.23 44.4037 153.207 44.4048H153.089ZM144.474 40.6989C144.474 39.2598 145.415 38.0778 146.956 38.0778C148.428 38.0778 149.42 39.2084 149.42 40.6989C149.42 42.1894 148.428 43.3201 146.956 43.3201C145.415 43.3201 144.474 42.138 144.474 40.6989ZM84.3627 40.6989V36.6043H82.5826V37.598C82.2788 37.206 81.8856 36.8926 81.4359 36.684C80.9863 36.4754 80.4932 36.3775 79.9981 36.3987C77.7046 36.3987 75.9075 38.1977 75.9075 40.6989C75.9075 43.2002 77.7046 44.9993 79.9981 44.9993C80.4932 45.0204 80.9863 44.9226 81.4359 44.714C81.8856 44.5053 82.2788 44.1919 82.5826 43.8V44.7936H84.3627V40.6989ZM77.7389 40.6989C77.7389 39.2598 78.6803 38.0778 80.2207 38.0778C81.6926 38.0778 82.6853 39.2084 82.6853 40.6989C82.6853 42.1894 81.6926 43.3201 80.2207 43.3201C78.6803 43.3201 77.7389 42.138 77.7389 40.6989Z" fill="#231F20"/>
<path d="M38.6301 30.9697H27.8657V50.3322H38.6301V30.9697Z" fill="#FF5F00"/>
<path d="M28.5578 40.6506C28.5561 38.7859 28.9783 36.9452 29.7923 35.2679C30.6064 33.5906 31.791 32.1207 33.2565 30.9694C31.4417 29.5415 29.2622 28.6536 26.967 28.407C24.6719 28.1604 22.3537 28.5652 20.2775 29.575C18.2013 30.5848 16.4508 32.159 15.2262 34.1176C14.0015 36.0761 13.3521 38.3401 13.3521 40.6506C13.3521 42.9612 14.0015 45.2251 15.2262 47.1837C16.4508 49.1423 18.2013 50.7165 20.2775 51.7263C22.3537 52.7361 24.6719 53.1409 26.967 52.8943C29.2622 52.6477 31.4417 51.7597 33.2565 50.3319C31.791 49.1806 30.6064 47.7107 29.7924 46.0334C28.9783 44.3561 28.5561 42.5154 28.5578 40.6506Z" fill="#EB001B"/>
<path d="M53.1509 40.6502C53.151 42.9607 52.5016 45.2246 51.277 47.1832C50.0524 49.1418 48.302 50.7159 46.2259 51.7258C44.1497 52.7356 41.8316 53.1404 39.5365 52.8938C37.2413 52.6472 35.0618 51.7593 33.2471 50.3314C34.7113 49.1789 35.895 47.7088 36.7089 46.0318C37.5228 44.3547 37.9457 42.5146 37.9457 40.6502C37.9457 38.7857 37.5228 36.9456 36.7089 35.2686C35.895 33.5915 34.7113 32.1214 33.2471 30.9689C35.0618 29.5411 37.2413 28.6531 39.5365 28.4065C41.8316 28.1599 44.1497 28.5647 46.2259 29.5745C48.302 30.5844 50.0524 32.1586 51.277 34.1171C52.5016 36.0757 53.151 38.3396 53.1509 40.6502Z" fill="#F79E1B"/>
<path d="M51.9955 48.2831V47.8867H52.1552V47.806H51.7485V47.8867H51.9083V48.2831H51.9955ZM52.7851 48.2831V47.8052H52.6604L52.517 48.1339L52.3736 47.8052H52.2489V48.2831H52.3369V47.9226L52.4714 48.2334H52.5627L52.6971 47.9218V48.2831H52.7851Z" fill="#F79E1B"/>
</svg>
