<svg width="160" height="85" viewBox="0 0 160 85" fill="none" xmlns="http://www.w3.org/2000/svg">
<rect x="0.82237" y="0.694929" width="158.186" height="82.8994" rx="7.61321" fill="#F3F3F3" stroke="#E9E9E9" stroke-width="0.845912"/>
<g clip-path="url(#clip0)">
<path d="M66.2465 32.0601H59.3182C58.8441 32.0601 58.4409 32.4043 58.367 32.8721L55.5649 50.6289C55.5092 50.9792 55.7807 51.2951 56.1362 51.2951H59.4438C59.918 51.2951 60.3212 50.9508 60.3951 50.482L61.1508 45.6928C61.2238 45.224 61.628 44.8797 62.1011 44.8797H64.2943C68.8581 44.8797 71.492 42.6724 72.1799 38.2983C72.4899 36.3846 72.1931 34.881 71.2965 33.8279C70.3118 32.6716 68.5653 32.0601 66.2465 32.0601ZM67.0458 38.5453C66.6669 41.0301 64.7674 41.0301 62.9308 41.0301H61.8853L62.6187 36.3896C62.6623 36.1092 62.9054 35.9026 63.1891 35.9026H63.6683C64.9194 35.9026 66.0996 35.9026 66.7094 36.6154C67.0731 37.0407 67.1846 37.6725 67.0458 38.5453Z" fill="#253B80"/>
<path d="M86.9562 38.4654H83.6385C83.3559 38.4654 83.1117 38.672 83.0682 38.9525L82.9213 39.8799L82.6893 39.5438C81.971 38.5019 80.3694 38.1536 78.7708 38.1536C75.1046 38.1536 71.9733 40.9289 71.3634 44.8221C71.0463 46.7641 71.4971 48.6211 72.5993 49.9161C73.6103 51.1069 75.057 51.603 76.7782 51.603C79.7322 51.603 81.3703 49.7045 81.3703 49.7045L81.2224 50.6259C81.1667 50.9783 81.4382 51.2942 81.7917 51.2942H84.7802C85.2553 51.2942 85.6565 50.9499 85.7315 50.4811L87.5246 39.1317C87.5813 38.7823 87.3108 38.4654 86.9562 38.4654ZM82.3317 44.9193C82.0116 46.8137 80.5072 48.0855 78.5885 48.0855C77.6251 48.0855 76.8551 47.7767 76.3608 47.1914C75.8705 46.6102 75.6841 45.783 75.8401 44.8616C76.1389 42.9833 77.6686 41.6701 79.558 41.6701C80.5001 41.6701 81.266 41.983 81.7705 42.5733C82.276 43.1696 82.4765 44.0019 82.3317 44.9193Z" fill="#253B80"/>
<path d="M104.626 38.4653H101.292C100.974 38.4653 100.675 38.6233 100.494 38.8876L95.8962 45.6573L93.9471 39.1518C93.8246 38.7448 93.4487 38.4653 93.0232 38.4653H89.747C89.3489 38.4653 89.0724 38.8541 89.199 39.2288L92.8713 50.0001L89.4188 54.8714C89.1473 55.2551 89.4209 55.7826 89.8899 55.7826H93.2198C93.5358 55.7826 93.8317 55.6287 94.011 55.3695L105.1 39.3715C105.365 38.9888 105.093 38.4653 104.626 38.4653Z" fill="#253B80"/>
<path d="M115.663 32.0601H108.734C108.261 32.0601 107.857 32.4043 107.783 32.8721L104.981 50.6289C104.926 50.9792 105.197 51.2951 105.551 51.2951H109.107C109.437 51.2951 109.719 51.0541 109.771 50.7261L110.566 45.6928C110.639 45.224 111.043 44.8797 111.517 44.8797H113.709C118.274 44.8797 120.906 42.6724 121.595 38.2983C121.906 36.3846 121.608 34.881 120.711 33.8279C119.727 32.6716 117.982 32.0601 115.663 32.0601ZM116.462 38.5453C116.084 41.0301 114.185 41.0301 112.347 41.0301H111.303L112.037 36.3896C112.081 36.1092 112.322 35.9026 112.607 35.9026H113.086C114.336 35.9026 115.517 35.9026 116.127 36.6154C116.491 37.0407 116.601 37.6725 116.462 38.5453Z" fill="#179BD7"/>
<path d="M136.372 38.4654H133.057C132.772 38.4654 132.53 38.672 132.487 38.9525L132.34 39.8799L132.107 39.5438C131.389 38.5019 129.789 38.1536 128.19 38.1536C124.524 38.1536 121.393 40.9289 120.784 44.8221C120.467 46.7641 120.916 48.6211 122.018 49.9161C123.031 51.1069 124.476 51.603 126.197 51.603C129.151 51.603 130.789 49.7045 130.789 49.7045L130.642 50.6259C130.586 50.9783 130.857 51.2942 131.213 51.2942H134.2C134.673 51.2942 135.077 50.9499 135.151 50.4811L136.945 39.1317C136.999 38.7823 136.728 38.4654 136.372 38.4654ZM131.748 44.9193C131.43 46.8137 129.923 48.0855 128.005 48.0855C127.043 48.0855 126.271 47.7767 125.777 47.1914C125.287 46.6102 125.102 45.783 125.256 44.8616C125.557 42.9833 127.085 41.6701 128.974 41.6701C129.916 41.6701 130.682 41.983 131.187 42.5733C131.694 43.1696 131.895 44.0019 131.748 44.9193Z" fill="#179BD7"/>
<path d="M140.284 32.5469L137.44 50.6287C137.384 50.979 137.656 51.2949 138.009 51.2949H140.868C141.343 51.2949 141.746 50.9506 141.819 50.4818L144.623 32.7261C144.679 32.3758 144.408 32.0588 144.054 32.0588H140.853C140.57 32.0599 140.327 32.2664 140.284 32.5469Z" fill="#179BD7"/>
<path d="M26.7928 54.7457L27.3226 51.3821L26.1424 51.3547H20.5068L24.4233 26.5345C24.4354 26.4596 24.4749 26.3897 24.5327 26.3401C24.5904 26.2905 24.6644 26.2632 24.7414 26.2632H34.2438C37.3984 26.2632 39.5754 26.9193 40.7121 28.2143C41.2449 28.8218 41.5843 29.4567 41.7484 30.1554C41.9206 30.8884 41.9237 31.7643 41.7555 32.8325L41.7434 32.9104V33.5949L42.2762 33.8967C42.725 34.1346 43.0816 34.407 43.3551 34.7188C43.811 35.2383 44.1058 35.8984 44.2304 36.6811C44.359 37.4861 44.3165 38.4439 44.1058 39.5284C43.8626 40.7758 43.4696 41.8622 42.9388 42.7512C42.4505 43.5704 41.8284 44.2498 41.0899 44.7763C40.3849 45.2765 39.5471 45.6562 38.5999 45.8992C37.682 46.1382 36.6356 46.2586 35.4878 46.2586H34.7483C34.2194 46.2586 33.7058 46.449 33.3026 46.7902C32.8984 47.1385 32.631 47.6144 32.5489 48.1349L32.4932 48.4376L31.5572 54.366L31.5146 54.5837C31.5035 54.6525 31.4842 54.687 31.4559 54.7102C31.4305 54.7315 31.3941 54.7457 31.3586 54.7457H26.7928Z" fill="#253B80"/>
<path d="M42.7813 32.9895C42.7529 33.1707 42.7205 33.356 42.6841 33.5464C41.4309 39.977 37.1437 42.1985 31.6682 42.1985H28.8803C28.2106 42.1985 27.6464 42.6845 27.542 43.3447L26.1146 52.3926L25.7104 54.9574C25.6426 55.3907 25.9769 55.7816 26.4145 55.7816H31.3592C31.9447 55.7816 32.4421 55.3563 32.5343 54.7792L32.583 54.5281L33.5139 48.623L33.5737 48.299C33.6649 47.7198 34.1633 47.2945 34.7489 47.2945H35.4884C40.2791 47.2945 44.0294 45.3505 45.1255 39.7249C45.5834 37.3748 45.3463 35.4125 44.1347 34.0324C43.768 33.6163 43.3132 33.271 42.7813 32.9895Z" fill="#179BD7"/>
<path d="M41.4699 32.4669C41.2784 32.4112 41.0809 32.3606 40.8783 32.315C40.6747 32.2705 40.466 32.231 40.2512 32.1966C39.4995 32.075 38.6759 32.0173 37.7936 32.0173H30.3456C30.1623 32.0173 29.988 32.0588 29.832 32.1338C29.4886 32.2988 29.2333 32.6238 29.1715 33.0218L27.5871 43.0519L27.5415 43.3445C27.6458 42.6843 28.2101 42.1983 28.8797 42.1983H31.6676C37.1432 42.1983 41.4304 39.9758 42.6835 33.5463C42.721 33.3559 42.7524 33.1706 42.7808 32.9894C42.4637 32.8213 42.1203 32.6775 41.7505 32.555C41.6593 32.5246 41.5651 32.4952 41.4699 32.4669Z" fill="#222D65"/>
<path d="M29.172 33.0218C29.2338 32.6239 29.4891 32.2988 29.8326 32.1348C29.9896 32.0599 30.1628 32.0184 30.3462 32.0184H37.7941C38.6765 32.0184 39.5001 32.0761 40.2518 32.1976C40.4665 32.232 40.6752 32.2715 40.8788 32.3161C41.0814 32.3616 41.279 32.4123 41.4704 32.4679C41.5657 32.4963 41.6599 32.5257 41.7521 32.555C42.1218 32.6775 42.4653 32.8223 42.7823 32.9894C43.1551 30.613 42.7793 28.995 41.4937 27.5298C40.0765 25.9169 37.5185 25.2263 34.2454 25.2263H24.743C24.0744 25.2263 23.504 25.7123 23.4007 26.3735L19.4427 51.4488C19.3647 51.945 19.7477 52.3925 20.2481 52.3925H26.1147L27.5876 43.0519L29.172 33.0218Z" fill="#253B80"/>
</g>
<defs>
<clipPath id="clip0">
<rect width="125.618" height="33.4135" fill="white" transform="translate(19.4326 25.2263)"/>
</clipPath>
</defs>
</svg>
