<svg width="153" height="53" viewBox="0 0 153 53" fill="none" xmlns="http://www.w3.org/2000/svg">
<path fill-rule="evenodd" clip-rule="evenodd" d="M70.9653 37.5076C68.733 37.5091 66.5003 37.5091 64.2671 37.5076C67.3401 29.4433 70.4125 21.3782 73.4843 13.3124C75.0649 9.04783 78.0381 7.10173 82.8813 7.10389C87.2895 7.10245 91.6981 7.10245 96.1072 7.10389C95.2702 9.28595 94.4339 11.468 93.5984 13.6501C89.8523 13.6501 86.1056 13.6493 82.3583 13.6479C80.8888 13.6501 80.0537 14.1155 79.4851 15.1264C79.4507 15.189 79.4245 15.261 79.3981 15.3334C79.3707 15.4087 79.343 15.4845 79.306 15.5507C78.8709 16.6908 78.4352 17.8302 77.9989 18.9688H91.5726C90.7489 21.1509 89.9258 23.3337 89.1033 25.5172C84.5787 25.5172 80.055 25.5164 75.5322 25.515C74.0103 29.514 72.4881 33.5115 70.9653 37.5076ZM102.271 14.7043C99.3861 22.3068 96.5013 29.9087 93.6166 37.5098H87.6917C90.5929 29.9072 93.4932 22.3054 96.3927 14.7043H102.271ZM98.281 11.2017C97.8689 10.522 97.6977 9.72323 97.836 8.87681C98.0358 7.77929 98.7407 6.7229 99.7618 6.00421C101.613 4.6599 103.954 4.82659 104.91 6.3852C105.909 7.94814 105.194 10.2276 103.351 11.5373C101.561 12.8036 99.3086 12.6348 98.281 11.2017ZM103.579 37.5098C101.603 37.5084 99.6283 37.5084 97.656 37.5098C101.637 27.0657 105.619 16.6201 109.601 6.17306H115.479L112.233 14.7065H116.21C115.47 16.6331 114.731 18.5604 113.992 20.4885C112.683 20.4885 111.372 20.4892 110.059 20.4906C107.899 26.1637 105.739 31.8367 103.579 37.5098Z" fill="#F05213"/>
<path d="M7.86868 48.8671C7.82257 49.0964 7.68257 49.211 7.44868 49.211H1.57387C1.33081 49.211 1.23505 49.0829 1.28658 48.8266L1.8616 45.9671C1.91043 45.7243 2.02807 45.4927 2.21455 45.2724C2.46315 44.9712 2.77581 44.7734 3.15251 44.679L3.268 44.652C3.36515 44.625 3.42186 44.571 3.43813 44.4901C3.46074 44.3777 3.41242 44.3215 3.29318 44.3215H1.91047L2.01083 43.8224C2.15096 43.1255 2.57416 42.7771 3.28043 42.7771H6.67185C8.28617 42.7771 8.92515 43.6134 8.58882 45.2859L7.86868 48.8671ZM6.3809 47.7475L6.8732 45.2994C6.95095 44.9127 6.92497 44.6542 6.79527 44.5238C6.66646 44.389 6.3911 44.3215 5.96918 44.3215H4.74468C4.18976 44.3215 3.86122 44.5755 3.75906 45.0836L3.22336 47.7475H6.3809ZM10.7818 44.7801C10.8433 44.4744 10.6997 44.3215 10.3512 44.3215H9.58074L9.6811 43.8224C9.82124 43.1255 10.2146 42.7771 10.8613 42.7771H11.4666C12.4068 42.7771 12.7846 43.2357 12.6002 44.1529L12.1852 46.2166C12.0803 46.7382 11.7504 46.9989 11.1955 46.9989C10.9524 46.9989 10.7619 46.9315 10.624 46.7966C10.4869 46.6572 10.4423 46.4684 10.4902 46.2301L10.7818 44.7801ZM16.2406 48.8671C16.1945 49.0964 16.0362 49.211 15.7656 49.211H12.3535L12.4674 48.6445C12.5244 48.3613 12.6631 48.1275 12.8837 47.9431C13.1042 47.7588 13.3543 47.6666 13.6341 47.6666H14.8173L15.376 44.888C15.452 44.5103 15.3065 44.3215 14.9396 44.3215H13.6738L13.7742 43.8224C13.9143 43.1255 14.3284 42.7771 15.0163 42.7771H15.7042C16.3142 42.7771 16.7287 42.9277 16.9479 43.229C17.1726 43.5257 17.2139 44.027 17.072 44.7329L16.2406 48.8671ZM19.1606 44.7801C19.2221 44.4744 19.0786 44.3215 18.73 44.3215H17.9596L18.0599 43.8224C18.2001 43.1255 18.5934 42.7771 19.2401 42.7771H19.8455C20.7856 42.7771 21.1635 43.2357 20.979 44.1529L20.564 46.2166C20.4592 46.7382 20.1293 46.9989 19.5743 46.9989C19.3313 46.9989 19.1408 46.9315 19.0028 46.7966C18.8657 46.6572 18.8211 46.4684 18.869 46.2301L19.1606 44.7801ZM22.8754 44.7801C22.9369 44.4744 22.7933 44.3215 22.4448 44.3215H21.6743L21.7747 43.8224C21.9148 43.1255 22.3082 42.7771 22.9548 42.7771H23.5602C24.5004 42.7771 24.8782 43.2357 24.6938 44.1529L24.2788 46.2166C24.1739 46.7382 23.844 46.9989 23.2891 46.9989C23.046 46.9989 22.8555 46.9315 22.7175 46.7966C22.5805 46.6572 22.5359 46.4684 22.5838 46.2301L22.8754 44.7801ZM31.7744 46.7089C31.6279 47.4373 31.2893 48.0263 30.7587 48.4759C30.1923 48.966 29.4941 49.211 28.664 49.211H26.16C25.4079 49.211 25.1168 48.7884 25.2868 47.9431L25.3424 47.6666H28.6375C29.4814 47.6666 29.9747 47.3114 30.1176 46.601L30.3373 45.5085C30.5054 44.6722 30.1997 44.2541 29.4201 44.2541H27.8585C27.3724 44.2541 27.0913 44.4429 27.0154 44.8206C26.9837 44.9779 27.0204 45.1151 27.1253 45.232C27.2357 45.3444 27.4032 45.4006 27.6279 45.4006H29.389L29.3225 45.731C29.1652 46.5134 28.6371 46.9045 27.7383 46.9045H27.6213C27.2361 46.9045 26.9611 46.8236 26.7965 46.6617C26.6318 46.4999 26.507 46.1627 26.4221 45.6501C26.0661 45.6411 25.8011 45.5107 25.6271 45.259C25.4539 45.0027 25.4034 44.6947 25.4758 44.335C25.5626 43.9034 25.7954 43.5437 26.1743 43.2559C26.6484 42.9052 27.2982 42.7299 28.1237 42.7299H29.7747C31.6413 42.7299 32.3937 43.6291 32.0321 45.4276L31.7744 46.7089ZM33.6882 44.8206C33.7551 44.4879 33.6326 44.3215 33.3207 44.3215H32.9561L33.0565 43.8224C33.2003 43.1076 33.5955 42.7501 34.2421 42.7501H34.6205C35.2442 42.7501 35.5242 43.1593 35.4605 43.9776C35.449 44.1259 35.5006 44.2001 35.6153 44.2001C35.6887 44.2001 35.7513 44.1394 35.8032 44.018C36.2006 43.1593 36.8281 42.7299 37.6858 42.7299H38.4287C39.1717 42.7299 39.7221 42.9345 40.0801 43.3436C40.4822 43.7842 40.5992 44.4227 40.431 45.259L40.1422 46.6955C39.9867 47.4688 39.6669 48.078 39.183 48.5231C38.6689 48.9817 38.0082 49.211 37.2011 49.211H36.7746C36.05 49.211 35.76 48.8513 35.9047 48.132L35.9982 47.6666H37.2021C37.8579 47.6666 38.2554 47.3204 38.3947 46.628L38.6225 45.495C38.7798 44.7127 38.4641 44.3215 37.6753 44.3215H36.8979C35.9715 44.3215 35.4184 44.7689 35.2384 45.6636L34.6444 48.6175C34.545 49.1121 34.2086 49.3594 33.6353 49.3594C33.0621 49.3594 32.8234 49.1211 32.9192 48.6445L33.6882 44.8206ZM42.9732 42.7771H46.0964C46.8668 42.7771 47.4338 42.9682 47.7972 43.3504C48.1652 43.7325 48.2741 44.2968 48.1241 45.0431L48.0969 45.178C47.9713 45.803 47.7035 46.2908 47.2936 46.6415C46.999 46.8978 46.5333 47.1383 45.8965 47.3631L45.7851 47.4036C45.2528 47.5879 44.9301 47.9611 44.8171 48.5231L44.6787 49.211H44.0596C43.3625 49.211 43.0804 48.8806 43.2133 48.2196L43.231 48.132C43.3675 47.453 43.8867 46.9922 44.7885 46.7494L44.9989 46.6955C45.7568 46.4841 46.1986 46.066 46.3243 45.441C46.4725 44.7037 46.1568 44.335 45.3772 44.335H41.5318L41.6267 43.8629C41.6945 43.5257 41.851 43.2604 42.0963 43.0671C42.3415 42.8738 42.6338 42.7771 42.9732 42.7771ZM41.9955 50.9915C41.8979 51.4771 41.567 51.7199 41.0029 51.7199C40.4205 51.7199 40.1772 51.4816 40.273 51.005L41.3363 45.7176C41.4348 45.2275 41.7662 44.9824 42.3302 44.9824C42.9127 44.9824 43.1555 45.223 43.0588 45.7041L41.9955 50.9915ZM52.129 44.045L52.6904 41.2529C52.7881 40.7673 53.1189 40.5246 53.683 40.5246C54.2655 40.5246 54.5088 40.7628 54.4129 41.2394L54.1037 42.7771H55.624C57.1833 42.7771 57.811 43.5324 57.5072 45.0431L57.4801 45.178C57.3544 45.803 57.0867 46.2908 56.6768 46.6415C56.3822 46.8978 55.921 47.1383 55.2934 47.3631L55.1752 47.4036C54.5576 47.6239 54.196 47.9971 54.0902 48.5231L53.9518 49.211H53.5253C53.0576 49.211 52.7331 49.1368 52.552 48.9885C52.3709 48.8401 52.3169 48.5838 52.3901 48.2196L52.4078 48.132C52.5371 47.489 53.1273 47.0282 54.1786 46.7494L54.3889 46.6955C55.1423 46.4841 55.5818 46.066 55.7074 45.441C55.8575 44.6947 55.5909 44.3215 54.9076 44.3215H52.3554C52.1674 44.3215 52.0919 44.2293 52.129 44.045ZM59.4588 44.7801C59.5203 44.4744 59.3767 44.3215 59.0282 44.3215H58.2577L58.3581 43.8224C58.4982 43.1255 58.8916 42.7771 59.5382 42.7771H60.1436C61.0838 42.7771 61.4521 43.2829 61.2487 44.2945L60.3767 48.631C60.279 49.1166 59.9527 49.3594 59.3978 49.3594C58.8246 49.3594 58.5859 49.1211 58.6817 48.6445L59.4588 44.7801ZM66.6728 45.441C66.7614 45.0004 66.7271 44.7037 66.5698 44.5508C66.4125 44.3979 66.1091 44.3215 65.6597 44.3215H62.4059L62.5062 43.8224C62.6464 43.1255 63.0696 42.7771 63.7758 42.7771H66.3624C68.073 42.7771 68.7601 43.6134 68.4238 45.2859L67.7511 48.631C67.6535 49.1166 67.3226 49.3594 66.7585 49.3594C66.1761 49.3594 65.9328 49.1211 66.0286 48.6445L66.6728 45.441ZM63.2315 48.631C63.1339 49.1166 62.803 49.3594 62.2389 49.3594C61.6565 49.3594 61.4132 49.1211 61.509 48.6445L62.0149 46.1289C62.1125 45.6434 62.4434 45.4006 63.0075 45.4006C63.5899 45.4006 63.8332 45.6389 63.7374 46.1155L63.2315 48.631ZM70.6305 44.7801C70.692 44.4744 70.5485 44.3215 70.2 44.3215H69.4295L69.5298 43.8224C69.67 43.1255 70.0634 42.7771 70.71 42.7771H71.3154C72.2555 42.7771 72.6334 43.2357 72.4489 44.1529L72.034 46.2166C71.9291 46.7382 71.5992 46.9989 71.0443 46.9989C70.8012 46.9989 70.6107 46.9315 70.4727 46.7966C70.3356 46.6572 70.291 46.4684 70.339 46.2301L70.6305 44.7801ZM76.0894 48.8671C76.0433 49.0964 75.8849 49.211 75.6143 49.211H72.2023L72.3162 48.6445C72.3732 48.3613 72.5119 48.1275 72.7324 47.9431C72.9529 47.7588 73.2031 47.6666 73.4828 47.6666H74.666L75.2248 44.888C75.3007 44.5103 75.1552 44.3215 74.7884 44.3215H73.5226L73.6229 43.8224C73.7631 43.1255 74.1771 42.7771 74.865 42.7771H75.5529C76.1629 42.7771 76.5775 42.9277 76.7966 43.229C77.0213 43.5257 77.0627 44.027 76.9207 44.7329L76.0894 48.8671ZM78.9819 44.7801C79.0433 44.4744 78.8998 44.3215 78.5513 44.3215H77.7808L77.8811 43.8224C78.0213 43.1255 78.4147 42.7771 79.0613 42.7771H79.6667C80.6068 42.7771 80.9752 43.2829 80.7718 44.2945L79.8997 48.631C79.8021 49.1166 79.4758 49.3594 78.9209 49.3594C78.3476 49.3594 78.1089 49.1211 78.2048 48.6445L78.9819 44.7801ZM89.2915 45.441C89.3801 45.0004 89.3458 44.7037 89.1885 44.5508C89.0312 44.3979 88.7278 44.3215 88.2784 44.3215H85.0246L85.1249 43.8224C85.2651 43.1255 85.6883 42.7771 86.3945 42.7771H88.9811C90.6917 42.7771 91.3788 43.6134 91.0425 45.2859L90.3698 48.631C90.2722 49.1166 89.9413 49.3594 89.3772 49.3594C88.7948 49.3594 88.5515 49.1211 88.6473 48.6445L89.2915 45.441ZM85.8502 48.631C85.7526 49.1166 85.4217 49.3594 84.8576 49.3594C84.2752 49.3594 84.0319 49.1211 84.1277 48.6445L84.6336 46.1289C84.7312 45.6434 85.0621 45.4006 85.6262 45.4006C86.2086 45.4006 86.4519 45.6389 86.3561 46.1155L85.8502 48.631ZM92.7802 44.8206C92.8471 44.4879 92.7246 44.3215 92.4128 44.3215H92.0482L92.1485 43.8224C92.2923 43.1076 92.6875 42.7501 93.3341 42.7501H93.7125C94.3362 42.7501 94.6162 43.1593 94.5526 43.9776C94.5411 44.1259 94.5927 44.2001 94.7073 44.2001C94.7807 44.2001 94.8433 44.1394 94.8953 44.018C95.2927 43.1593 95.9202 42.7299 96.7778 42.7299H97.5207C98.2637 42.7299 98.8142 42.9345 99.1722 43.3436C99.5743 43.7842 99.6912 44.4227 99.5231 45.259L99.2342 46.6955C99.0787 47.4688 98.759 48.078 98.2751 48.5231C97.7609 48.9817 97.1003 49.211 96.2931 49.211H95.8666C95.142 49.211 94.852 48.8513 94.9967 48.132L95.0903 47.6666H96.2941C96.9499 47.6666 97.3475 47.3204 97.4867 46.628L97.7145 45.495C97.8718 44.7127 97.5561 44.3215 96.7673 44.3215H95.9899C95.0636 44.3215 94.5104 44.7689 94.3305 45.6636L93.7365 48.6175C93.637 49.1121 93.3007 49.3594 92.7274 49.3594C92.1541 49.3594 91.9154 49.1211 92.0112 48.6445L92.7802 44.8206ZM102.065 42.7771H105.188C105.959 42.7771 106.526 42.9682 106.889 43.3504C107.257 43.7325 107.366 44.2968 107.216 45.0431L107.189 45.178C107.063 45.803 106.796 46.2908 106.386 46.6415C106.091 46.8978 105.625 47.1383 104.989 47.3631L104.877 47.4036C104.345 47.5879 104.022 47.9611 103.909 48.5231L103.771 49.211H103.152C102.455 49.211 102.172 48.8806 102.305 48.2196L102.323 48.132C102.46 47.453 102.979 46.9922 103.881 46.7494L104.091 46.6955C104.849 46.4841 105.291 46.066 105.416 45.441C105.565 44.7037 105.249 44.335 104.469 44.335H100.624L100.719 43.8629C100.787 43.5257 100.943 43.2604 101.188 43.0671C101.434 42.8738 101.726 42.7771 102.065 42.7771ZM101.088 50.9915C100.99 51.4771 100.659 51.7199 100.095 51.7199C99.5125 51.7199 99.2692 51.4816 99.3651 51.005L100.428 45.7176C100.527 45.2275 100.858 44.9824 101.422 44.9824C102.005 44.9824 102.248 45.223 102.151 45.7041L101.088 50.9915ZM112.612 45.441C112.701 45.0004 112.666 44.7037 112.509 44.5508C112.352 44.3979 112.048 44.3215 111.599 44.3215H108.345L108.445 43.8224C108.585 43.1255 109.009 42.7771 109.715 42.7771H112.301C114.012 42.7771 114.699 43.6134 114.363 45.2859L113.69 48.631C113.593 49.1166 113.262 49.3594 112.698 49.3594C112.115 49.3594 111.872 49.1211 111.968 48.6445L112.612 45.441ZM109.171 48.631C109.073 49.1166 108.742 49.3594 108.178 49.3594C107.596 49.3594 107.352 49.1211 107.448 48.6445L107.954 46.1289C108.052 45.6434 108.382 45.4006 108.947 45.4006C109.529 45.4006 109.772 45.6389 109.676 46.1155L109.171 48.631ZM123.53 48.685L123.425 49.211H117.495L117.609 48.6445C117.666 48.3613 117.804 48.1275 118.025 47.9431C118.245 47.7588 118.495 47.6666 118.775 47.6666H120.399C121.178 47.6666 121.652 47.2507 121.819 46.4189L122.016 45.441C122.166 44.6947 121.851 44.3215 121.071 44.3215H118.602L118.702 43.8224C118.842 43.1255 119.261 42.7771 119.958 42.7771H121.705C123.443 42.7771 124.153 43.5684 123.835 45.151L123.727 45.6906C123.58 46.4189 123.17 46.9203 122.495 47.1945L122.293 47.2755C122.199 47.3114 122.142 47.3766 122.123 47.471C122.097 47.6014 122.164 47.6666 122.325 47.6666H122.765C123.412 47.6666 123.667 48.0061 123.53 48.685ZM126.187 44.7801C126.248 44.4744 126.105 44.3215 125.756 44.3215H124.986L125.086 43.8224C125.226 43.1255 125.62 42.7771 126.266 42.7771H126.872C127.812 42.7771 128.18 43.2829 127.977 44.2945L127.105 48.631C127.007 49.1166 126.681 49.3594 126.126 49.3594C125.552 49.3594 125.314 49.1211 125.41 48.6445L126.187 44.7801ZM135.102 43.8224C135.002 44.3215 134.769 44.7599 134.404 45.1376C133.994 45.5332 133.484 45.8007 132.874 45.9401L132.802 45.9536C132.635 45.9896 132.541 46.057 132.521 46.1559C132.502 46.2503 132.566 46.329 132.714 46.392C133.687 46.7786 134.075 47.4598 133.879 48.4354L133.754 49.0559C133.733 49.1593 133.665 49.211 133.551 49.211H128.281L128.395 48.6445C128.455 48.3478 128.589 48.1117 128.799 47.9364C129.009 47.7565 129.271 47.6666 129.582 47.6666H132.231C132.3 47.3249 132.095 47.1226 131.617 47.0596L131.171 46.9855C130.787 46.9315 130.525 46.8348 130.383 46.6955C130.203 46.5201 130.101 46.2076 130.076 45.758C129.689 45.6771 129.391 45.4815 129.183 45.1713C128.979 44.861 128.922 44.4856 129.011 44.045L129.138 43.4111C129.237 42.921 129.577 42.6759 130.159 42.6759C130.407 42.6759 130.599 42.7479 130.735 42.8918C130.876 43.0356 130.921 43.2357 130.869 43.492L130.777 43.9506C130.582 44.9172 130.891 45.4006 131.703 45.4006H131.758C132.638 45.4006 133.175 44.9217 133.368 43.9641L133.471 43.4515C133.575 42.9345 133.904 42.6759 134.459 42.6759C135.041 42.6759 135.281 42.9345 135.177 43.4515L135.102 43.8224ZM136.932 44.7801C136.993 44.4744 136.85 44.3215 136.501 44.3215H135.731L135.831 43.8224C135.971 43.1255 136.365 42.7771 137.011 42.7771H137.617C138.557 42.7771 138.935 43.2357 138.75 44.1529L138.335 46.2166C138.23 46.7382 137.901 46.9989 137.346 46.9989C137.103 46.9989 136.912 46.9315 136.774 46.7966C136.637 46.6572 136.592 46.4684 136.64 46.2301L136.932 44.7801ZM143.842 46.4055L144.439 43.438C144.541 42.93 144.869 42.6759 145.424 42.6759C146.016 42.6759 146.262 42.9255 146.161 43.4245L145.533 46.5471C145.463 46.8978 145.276 47.1878 144.973 47.4171C144.675 47.6464 144.358 47.761 144.023 47.761C143.444 48.7277 142.778 49.211 142.026 49.211H138.435L138.549 48.6445C138.68 47.9926 139.069 47.6666 139.715 47.6666H140.775C140.903 47.6666 140.981 47.5969 141.009 47.4575C141.028 47.3631 140.991 47.2979 140.897 47.262C140.219 46.9877 139.953 46.4864 140.099 45.758L140.566 43.438C140.668 42.93 141.001 42.6759 141.565 42.6759C142.148 42.6759 142.389 42.9255 142.288 43.4245L141.686 46.4189C141.519 47.2507 141.754 47.6666 142.391 47.6666H142.488C143.221 47.6666 143.673 47.2462 143.842 46.4055Z" fill="#C8038F"/>
<path fill-rule="evenodd" clip-rule="evenodd" d="M9.58742 37.4973C7.35276 37.4959 5.12001 37.4959 2.88916 37.4973L14.4533 7.09141C19.6429 7.08997 24.83 7.08997 30.0146 7.09141C32.3079 7.09141 33.484 7.64126 34.2745 8.77991C35.0392 9.83414 35.113 11.2715 34.4055 13.131C33.4568 15.6219 32.5088 18.1128 31.5615 20.6037C31.0309 22.0389 30.2744 23.1386 29.2912 24.0695C27.4534 25.7579 25.5054 26.5611 23.1283 26.5589C20.0008 26.5603 16.8742 26.5611 13.7485 26.5611L9.58742 37.4973ZM18.645 13.6376L16.2964 19.846H22.8661C24.7139 19.8872 25.283 19.4629 25.774 18.1987L26.8436 15.4928C26.865 15.3946 26.8857 15.2965 26.9057 15.1984C26.9447 15.0872 26.9834 14.9747 27.0215 14.8607C27.1803 14.1441 26.8667 13.8043 25.7753 13.6376C25.649 13.6376 25.5626 13.6376 25.4323 13.6354C23.1705 13.6369 20.908 13.6376 18.645 13.6376ZM34.2649 37.4952C32.291 37.4966 30.3174 37.4973 28.3439 37.4973C30.4821 31.8531 32.6226 26.2082 34.7656 20.5626C36.2729 16.6336 39.0718 14.694 43.0469 14.694C44.3885 14.6925 45.7298 14.6925 47.0707 14.694C46.3324 16.6206 45.5938 18.5479 44.8552 20.476H42.6062C42.4772 20.4782 42.3487 20.4782 42.2605 20.476C41.2399 20.6037 40.5872 21.0258 40.2641 21.7034C40.1724 21.9271 40.0804 22.1522 39.9881 22.3788C38.0809 27.4183 36.1732 32.4571 34.2649 37.4952ZM42.8145 32.3928L42.8167 32.3864C44.411 28.1911 46.0051 23.9966 47.5991 19.8028C47.6754 19.5758 47.7929 19.3488 47.9103 19.1218C47.9676 19.0111 48.0248 18.9004 48.0774 18.7897C49.726 15.9993 52.1719 14.6918 55.4574 14.694H63.3677C66.6958 14.694 68.0852 16.0426 67.616 18.7897C67.5422 19.1274 67.4685 19.4651 67.3531 19.8006C65.744 23.9959 64.1363 28.1918 62.5299 32.3885C62.4096 32.7262 62.2495 33.0639 62.0477 33.3995C60.4022 36.1855 57.9979 37.4952 54.7119 37.4952C52.0601 37.4966 49.4084 37.4973 46.7569 37.4973C43.4758 37.4952 42.0846 36.1444 42.5529 33.4016C42.5848 33.064 42.6989 32.7306 42.8145 32.3929L42.8145 32.3928ZM52.6851 22.0411C51.6486 24.7441 50.6114 27.4472 49.5735 30.1502C49.3859 30.6135 49.4339 30.9923 49.661 31.3322C49.9351 31.6699 50.099 31.711 50.8324 31.711C52.4023 31.7124 53.9733 31.7124 55.5453 31.711C55.6058 31.698 55.6664 31.6843 55.7271 31.6699C56.0375 31.6287 56.4806 31.3754 56.8566 31.0334C57.1313 30.7801 57.3774 30.4446 57.4932 30.1069L60.5532 22.0411C60.7408 21.5778 60.6938 21.1947 60.4657 20.8591C60.2359 20.5214 60.0305 20.4782 59.2926 20.4782H54.5819C54.5359 20.4926 54.4901 20.5063 54.4444 20.5193C54.1314 20.5626 53.6955 20.7726 53.32 21.1124C52.996 21.409 52.8036 21.7012 52.6851 22.0411Z" fill="#5A1C73"/>
<path d="M39.3104 10.8186H40.9496L42.3911 6.55865C42.4096 6.52334 42.428 6.48804 42.4465 6.45274C42.5898 6.19385 42.779 6.07617 43.0302 6.07617H43.7481C43.7721 6.07617 43.796 6.07617 43.8199 6.07617C44.0484 6.13501 44.0986 6.25269 44.0194 6.48804L42.529 10.8186H44.1683L45.6586 6.48804C45.7313 6.28799 45.8324 6.19385 46.039 6.11147C46.127 6.08794 46.1771 6.07617 46.2249 6.07617H46.9428C47.23 6.07617 47.3335 6.22915 47.225 6.55865L45.7477 10.8186H47.3869L49.0519 5.99379C49.1972 5.59369 49.2046 5.35833 49.1381 5.13474C48.9853 4.66403 48.6512 4.46398 48.0769 4.46398H46.8205C46.1505 4.46398 45.6829 4.66403 45.3407 5.02883C45.262 4.6758 44.942 4.46398 44.26 4.46398H43.0036C42.4293 4.46398 41.9759 4.65226 41.4782 5.14651C41.2598 5.35833 41.1088 5.59369 40.9754 5.99379L39.3104 10.8186ZM49.1075 9.1711C48.8494 9.92424 48.9292 10.3361 49.3755 10.6421C49.567 10.7715 49.7737 10.8186 50.3002 10.8186H53.9017L54.4495 9.2064H51.2907H51.0872C50.8805 9.15933 50.8206 9.02989 50.9063 8.75923L50.9497 8.65332L55.1394 7.27648L55.5765 6.00556C55.6058 5.91142 55.6329 5.82904 55.6502 5.7349C55.8105 4.99353 55.5588 4.60519 54.8386 4.48751C54.7451 4.47575 54.6515 4.46398 54.5558 4.46398H52.3303C51.4449 4.46398 50.8111 4.85232 50.3572 5.62899C50.3018 5.7349 50.2584 5.84081 50.215 5.94672L49.1075 9.1711ZM51.4171 7.21764L51.6438 6.57042C51.7023 6.38213 51.8578 6.25269 52.1198 6.19385C52.2199 6.17031 52.2699 6.15854 52.3058 6.15854H53.4545C53.4784 6.15854 53.5143 6.15854 53.5361 6.17031C53.709 6.20561 53.7875 6.29976 53.7658 6.41743L53.7495 6.44097L53.743 6.47627L51.4171 7.21764ZM55.5252 9.21817C55.4026 9.55944 55.3887 9.8301 55.4412 10.0655C55.5689 10.6068 55.865 10.8186 56.4633 10.8186H58.7965C59.3229 10.8186 59.784 10.6538 60.2035 10.3243C60.5948 10.0184 60.7925 9.72419 61.0008 9.11226L63.4294 2.08688H61.7901L60.9701 4.46398H58.6369C57.7994 4.46398 56.9526 5.09944 56.624 6.04086L55.5252 9.21817ZM57.3163 8.78276L58.0885 6.53511C58.0929 6.51158 58.1113 6.47627 58.1276 6.45274C58.1873 6.32329 58.2623 6.24092 58.3427 6.19385C58.5015 6.11147 58.6157 6.07617 58.6755 6.07617H59.9438C60.207 6.07617 60.3072 6.18208 60.2813 6.45274C60.277 6.47627 60.2727 6.49981 60.2564 6.52334L59.4613 8.82983C59.4385 8.88867 59.4016 8.95928 59.3549 9.01812C59.2799 9.10049 59.1593 9.1711 59.0233 9.19464C58.9972 9.2064 58.9613 9.2064 58.9254 9.2064H57.5853C57.37 9.2064 57.2502 9.07696 57.262 8.94751L57.2664 8.92398L57.3163 8.78276ZM61.5698 10.8186H63.209L65.3946 4.46398H63.7673L61.5698 10.8186ZM64.1138 2.84002C64.0825 3.07538 64.1371 3.29897 64.2581 3.48725C64.5554 3.88736 65.1809 3.93443 65.6646 3.58139C66.1624 3.21659 66.3391 2.58113 66.0483 2.14572C65.7694 1.71031 65.1199 1.66324 64.62 2.03981C64.3439 2.23986 64.1581 2.53406 64.1138 2.84002ZM64.8304 9.38292C64.8011 9.47706 64.774 9.55944 64.7567 9.65358C64.6421 10.4067 65.045 10.8186 66.0022 10.8186H68.2397C68.4311 10.8186 68.629 10.7833 68.8193 10.7245C69.2641 10.5832 69.6369 10.3126 69.9378 9.91247C70.0823 9.71242 70.1789 9.51237 70.2494 9.32408L71.4068 5.95849C71.448 5.86435 71.4653 5.77021 71.4827 5.67606C71.6092 4.92292 71.3489 4.58166 70.5406 4.48751C70.459 4.47575 70.3655 4.46398 70.2697 4.46398H66.5486L66.016 5.99379H69.3303C69.3543 5.99379 69.3782 5.99379 69.4021 5.99379C69.6349 6.0291 69.6959 6.08794 69.6678 6.24092L69.6505 6.33506L69.6233 6.41743L69.5691 6.58218H67.3795C66.3984 6.58218 65.6027 7.13527 65.2718 8.08846L64.8304 9.38292ZM66.6323 8.88867L66.7777 8.48857C66.8775 8.20614 66.9785 8.112 67.1623 8.08846L67.2483 8.07669H67.344H68.6003C68.7319 8.07669 68.7776 8.08846 68.819 8.12377C68.9812 8.21791 68.9866 8.25321 68.9161 8.4415L68.7621 8.88867C68.7371 8.95928 68.6883 9.02989 68.6296 9.08873C68.5122 9.2064 68.3959 9.25347 68.2044 9.25347H66.9361C66.9122 9.25347 66.8763 9.25347 66.8545 9.24171C66.6815 9.2064 66.6151 9.11226 66.6215 8.94751C66.6258 8.92398 66.6301 8.90044 66.6323 8.88867Z" fill="#C6068F"/>
<mask id="mask0" mask-type="alpha" maskUnits="userSpaceOnUse" x="118" y="5" width="30" height="33">
<path fill-rule="evenodd" clip-rule="evenodd" d="M122.874 16.2408C119.328 17.5702 118.996 21.1155 118.996 22.6665C118.996 24.6607 120.547 26.8853 121.766 27.7628C124.536 29.757 127.527 28.9445 129.189 28.0951C125.555 23.8409 126.419 18.9366 127.305 17.0163C126.951 22.7773 129.853 26.1009 131.626 27.7628C134.063 27.4304 137.609 28.7968 139.603 29.6462C144.341 31.6645 145.086 30.6272 145.92 29.4641L145.92 29.4638C145.956 29.414 145.992 29.3639 146.028 29.3138C148.067 26.2117 147.247 20.1922 146.582 17.5703C145.031 11.9201 142.483 8.44871 140.821 6.60224C138.052 3.83251 135.947 6.15908 134.728 7.82091C133.731 9.48273 130.85 12.8064 129.632 13.4711C128.252 14.526 126.253 15.1521 124.561 15.6822L124.561 15.6822L124.56 15.6822L124.56 15.6822C123.942 15.8758 123.365 16.0566 122.874 16.2408ZM130.075 29.9785L125.422 31.0864C125.688 31.9727 126.788 34.6316 127.305 35.8503C128.13 37.3174 129.183 37.1149 129.773 37.0016L129.773 37.0016C129.896 36.9779 129.999 36.9582 130.075 36.9582C130.429 36.9582 131.995 35.7765 132.734 35.1856C133.62 34.6538 133.103 33.5607 132.734 33.0806L130.075 29.9785ZM144.563 16.8892C146.147 22.4233 145.922 27.3419 144.06 27.8751C142.198 28.4083 139.404 24.3543 137.819 18.8201C136.235 13.286 136.46 8.36745 138.322 7.83424C140.184 7.30103 142.978 11.3551 144.563 16.8892ZM140.642 22.2899C140.712 22.4351 140.859 22.5314 141.02 22.519C141.172 22.5073 141.324 22.4803 141.473 22.4373C143.169 21.9489 143.975 19.5757 143.273 17.1367C142.571 14.6976 140.626 13.1162 138.93 13.6046C138.863 13.6239 138.798 13.6462 138.733 13.6712C138.578 13.732 138.488 13.8907 138.495 14.0576C138.554 15.3832 138.815 16.9723 139.282 18.6409C139.663 20.0019 140.135 21.2461 140.642 22.2899Z" fill="#C4C4C4"/>
</mask>
<g mask="url(#mask0)">
<rect x="120.803" y="-4.65332" width="4.57456" height="42.7968" transform="rotate(17.5229 120.803 -4.65332)" fill="#FDC600"/>
<rect x="125.165" y="-3.27563" width="4.57456" height="42.7968" transform="rotate(17.5229 125.165 -3.27563)" fill="#F29C00"/>
<rect x="129.527" y="-1.89844" width="4.57456" height="42.7968" transform="rotate(17.5229 129.527 -1.89844)" fill="#F05213"/>
<rect x="133.89" y="-0.52124" width="4.57456" height="42.7968" transform="rotate(17.5229 133.89 -0.52124)" fill="#E11B18"/>
<rect x="138.252" y="0.856445" width="4.57456" height="42.7968" transform="rotate(17.5229 138.252 0.856445)" fill="#E70092"/>
<rect x="142.614" y="2.2334" width="4.57456" height="42.7968" transform="rotate(17.5229 142.614 2.2334)" fill="#C60691"/>
<rect x="146.977" y="3.61084" width="4.57456" height="42.7968" transform="rotate(17.5229 146.977 3.61084)" fill="#962390"/>
<rect x="151.338" y="4.98828" width="4.57456" height="42.7968" transform="rotate(17.5229 151.338 4.98828)" fill="#5A1C73"/>
</g>
</svg>
