<svg width="208" height="92" viewBox="0 0 208 92" fill="none" xmlns="http://www.w3.org/2000/svg">
<path fill-rule="evenodd" clip-rule="evenodd" d="M32.6874 9.57445C42.6744 12.163 48.0477 19.6726 48.0477 31.0428V35.9371L50.2613 36.1198C52.2419 36.2833 52.6097 36.458 53.7565 37.7776L55.0381 39.2529V58.7478V78.2427L53.5305 79.7431L52.0225 81.2432H27.6589H3.29538L1.78739 79.7431L0.279785 78.2427V58.7478V39.2529L1.56136 37.7776C2.70818 36.458 3.07596 36.2833 5.05658 36.1198L7.27021 35.9371V31.0428C7.27021 15.917 18.9838 6.02332 32.6874 9.57445ZM22.7408 14.3401C15.4482 16.7347 12.2136 21.6058 11.9934 30.5265L11.8575 36.0329H27.6512H43.4449L43.319 30.5265C43.0371 18.1802 33.6159 10.7696 22.7408 14.3401ZM4.94007 58.638V76.6062H27.6589H50.3778V58.638V40.6699H27.6589H4.94007V58.638ZM31.3876 51.7924C36.9345 54.6754 37.0055 62.1366 31.5192 65.5873L29.7452 66.7029L29.8454 68.8529L29.9456 71.0032H27.6589H25.3723L25.4725 68.8529L25.5727 66.7029L23.7987 65.5873C16.8681 61.2282 19.597 50.7166 27.6589 50.7166C28.7192 50.7166 30.0648 51.1049 31.3876 51.7924ZM26.1055 55.8203C23.0884 57.5422 24.2033 61.9225 27.6589 61.9225C31.1573 61.9225 32.2412 57.446 29.1409 55.8029C28.0823 55.2422 27.109 55.2477 26.1055 55.8203Z" fill="#291247"/>
<path d="M71.9751 81.3531C70.8937 81.3531 69.9509 81.1816 69.1465 80.8388C68.3553 80.4959 67.7487 80.0476 67.3267 79.4937C66.9179 78.9267 66.7004 78.3201 66.674 77.674C66.674 77.5685 66.7135 77.4762 66.7927 77.3971C66.8718 77.3179 66.9707 77.2784 67.0894 77.2784H68.0586C68.296 77.2784 68.4608 77.4102 68.5531 77.674C68.6718 78.2278 69.008 78.7091 69.5619 79.1179C70.1289 79.5135 70.9333 79.7113 71.9751 79.7113C73.0959 79.7113 73.9333 79.5135 74.4871 79.1179C75.041 78.7223 75.3179 78.1751 75.3179 77.4762C75.3179 77.0278 75.1794 76.6586 74.9025 76.3685C74.6388 76.0784 74.2366 75.8278 73.6959 75.6168C73.1685 75.3927 72.3707 75.1223 71.3025 74.8059C70.2872 74.5157 69.4762 74.2059 68.8696 73.8762C68.2762 73.5465 67.8278 73.1443 67.5245 72.6696C67.2212 72.1817 67.0696 71.5685 67.0696 70.8301C67.0696 70.118 67.2608 69.485 67.6432 68.9312C68.0256 68.3641 68.5795 67.9224 69.3047 67.6059C70.03 67.2762 70.8871 67.1114 71.8762 67.1114C72.9047 67.1114 73.7816 67.296 74.5069 67.6652C75.2454 68.0213 75.8058 68.4762 76.1882 69.0301C76.5706 69.5707 76.775 70.118 76.8014 70.6718C76.8014 70.7905 76.7618 70.8894 76.6827 70.9685C76.6036 71.0476 76.5047 71.0872 76.386 71.0872H75.397C75.2915 71.0872 75.1926 71.0542 75.1003 70.9883C75.008 70.9224 74.9421 70.8235 74.9025 70.6916C74.8234 70.1246 74.5069 69.6564 73.9531 69.2872C73.3992 68.918 72.7069 68.7334 71.8762 68.7334C70.9795 68.7334 70.2674 68.9114 69.7399 69.2674C69.2124 69.6103 68.9487 70.1246 68.9487 70.8103C68.9487 71.2718 69.0674 71.6476 69.3047 71.9377C69.5553 72.2278 69.9311 72.485 70.4322 72.7092C70.9465 72.9333 71.6915 73.1905 72.6674 73.4806C73.7882 73.7971 74.6652 74.1136 75.2981 74.43C75.9443 74.7465 76.4256 75.1421 76.7421 75.6168C77.0585 76.0784 77.2168 76.6784 77.2168 77.4168C77.2168 78.6564 76.7421 79.6256 75.7926 80.3245C74.8564 81.0102 73.5838 81.3531 71.9751 81.3531ZM84.241 81.3531C83.1597 81.3531 82.2169 81.1816 81.4125 80.8388C80.6213 80.4959 80.0147 80.0476 79.5927 79.4937C79.1839 78.9267 78.9663 78.3201 78.94 77.674C78.94 77.5685 78.9795 77.4762 79.0587 77.3971C79.1378 77.3179 79.2367 77.2784 79.3554 77.2784H80.3246C80.5619 77.2784 80.7268 77.4102 80.8191 77.674C80.9378 78.2278 81.274 78.7091 81.8279 79.1179C82.3949 79.5135 83.1993 79.7113 84.241 79.7113C85.3619 79.7113 86.1993 79.5135 86.7531 79.1179C87.307 78.7223 87.5839 78.1751 87.5839 77.4762C87.5839 77.0278 87.4454 76.6586 87.1685 76.3685C86.9048 76.0784 86.5026 75.8278 85.9619 75.6168C85.4344 75.3927 84.6366 75.1223 83.5685 74.8059C82.5531 74.5157 81.7422 74.2059 81.1356 73.8762C80.5422 73.5465 80.0938 73.1443 79.7905 72.6696C79.4872 72.1817 79.3356 71.5685 79.3356 70.8301C79.3356 70.118 79.5268 69.485 79.9092 68.9312C80.2916 68.3641 80.8455 67.9224 81.5707 67.6059C82.296 67.2762 83.1531 67.1114 84.1421 67.1114C85.1707 67.1114 86.0476 67.296 86.7729 67.6652C87.5114 68.0213 88.0718 68.4762 88.4542 69.0301C88.8366 69.5707 89.041 70.118 89.0674 70.6718C89.0674 70.7905 89.0278 70.8894 88.9487 70.9685C88.8696 71.0476 88.7707 71.0872 88.652 71.0872H87.663C87.5575 71.0872 87.4586 71.0542 87.3663 70.9883C87.274 70.9224 87.2081 70.8235 87.1685 70.6916C87.0894 70.1246 86.7729 69.6564 86.2191 69.2872C85.6652 68.918 84.9729 68.7334 84.1421 68.7334C83.2454 68.7334 82.5334 68.9114 82.0059 69.2674C81.4784 69.6103 81.2147 70.1246 81.2147 70.8103C81.2147 71.2718 81.3334 71.6476 81.5707 71.9377C81.8213 72.2278 82.1971 72.485 82.6982 72.7092C83.2125 72.9333 83.9575 73.1905 84.9333 73.4806C86.0542 73.7971 86.9311 74.1136 87.5641 74.43C88.2103 74.7465 88.6916 75.1421 89.0081 75.6168C89.3245 76.0784 89.4828 76.6784 89.4828 77.4168C89.4828 78.6564 89.008 79.6256 88.0586 80.3245C87.1223 81.0102 85.8498 81.3531 84.241 81.3531ZM92.5312 81.1553C92.3994 81.1553 92.2939 81.1157 92.2147 81.0366C92.1356 80.9443 92.0961 80.8322 92.0961 80.7003V67.7641C92.0961 67.6323 92.1356 67.5268 92.2147 67.4477C92.2939 67.3553 92.3994 67.3092 92.5312 67.3092H93.5202C93.6521 67.3092 93.7576 67.3553 93.8367 67.4477C93.9158 67.5268 93.9554 67.6323 93.9554 67.7641V79.4937H100.562C100.707 79.4937 100.819 79.5399 100.898 79.6322C100.991 79.7113 101.037 79.8168 101.037 79.9487V80.7003C101.037 80.8322 100.991 80.9443 100.898 81.0366C100.806 81.1157 100.694 81.1553 100.562 81.1553H92.5312ZM112.475 81.3531C110.721 81.3531 109.383 80.8784 108.46 79.9289C107.55 78.9663 107.062 77.6542 106.996 75.9927C106.983 75.6366 106.976 75.0564 106.976 74.252C106.976 73.4344 106.983 72.841 106.996 72.4718C107.062 70.8103 107.55 69.5048 108.46 68.5553C109.383 67.5927 110.721 67.1114 112.475 67.1114C113.649 67.1114 114.644 67.3224 115.462 67.7444C116.279 68.1531 116.893 68.6938 117.301 69.3663C117.723 70.0389 117.954 70.7575 117.994 71.5224C117.994 71.641 117.947 71.7399 117.855 71.8191C117.776 71.885 117.677 71.918 117.558 71.918H116.569C116.438 71.918 116.332 71.885 116.253 71.8191C116.174 71.7531 116.115 71.641 116.075 71.4828C115.851 70.4674 115.442 69.7553 114.849 69.3465C114.268 68.9378 113.477 68.7334 112.475 68.7334C110.18 68.7334 108.987 70.0125 108.895 72.5707C108.882 72.9267 108.875 73.474 108.875 74.2125C108.875 74.9509 108.882 75.5113 108.895 75.8938C108.987 78.4388 110.18 79.7113 112.475 79.7113C113.464 79.7113 114.255 79.5069 114.849 79.0981C115.442 78.6894 115.851 77.9839 116.075 76.9817C116.115 76.8234 116.174 76.7113 116.253 76.6454C116.332 76.5795 116.438 76.5465 116.569 76.5465H117.558C117.677 76.5465 117.776 76.5861 117.855 76.6652C117.947 76.7311 117.994 76.8234 117.994 76.9421C117.954 77.7069 117.723 78.4256 117.301 79.0981C116.893 79.7707 116.279 80.3179 115.462 80.7399C114.644 81.1487 113.649 81.3531 112.475 81.3531ZM121.12 81.1553C120.988 81.1553 120.882 81.1157 120.803 81.0366C120.724 80.9443 120.685 80.8322 120.685 80.7003V67.7839C120.685 67.6389 120.724 67.5268 120.803 67.4477C120.882 67.3553 120.988 67.3092 121.12 67.3092H122.069C122.214 67.3092 122.326 67.3553 122.405 67.4477C122.498 67.5268 122.544 67.6389 122.544 67.7839V73.2828H129.427V67.7839C129.427 67.6389 129.467 67.5268 129.546 67.4477C129.638 67.3553 129.75 67.3092 129.882 67.3092H130.832C130.977 67.3092 131.089 67.3553 131.168 67.4477C131.26 67.5268 131.306 67.6389 131.306 67.7839V80.7003C131.306 80.8322 131.26 80.9443 131.168 81.0366C131.076 81.1157 130.964 81.1553 130.832 81.1553H129.882C129.75 81.1553 129.638 81.1157 129.546 81.0366C129.467 80.9443 129.427 80.8322 129.427 80.7003V75.0037H122.544V80.7003C122.544 80.8322 122.498 80.9443 122.405 81.0366C122.313 81.1157 122.201 81.1553 122.069 81.1553H121.12ZM135.201 81.1553C135.07 81.1553 134.964 81.1157 134.885 81.0366C134.806 80.9443 134.766 80.8322 134.766 80.7003V67.7839C134.766 67.6389 134.806 67.5268 134.885 67.4477C134.964 67.3553 135.07 67.3092 135.201 67.3092H143.331C143.476 67.3092 143.588 67.3553 143.667 67.4477C143.76 67.5268 143.806 67.6389 143.806 67.7839V68.496C143.806 68.6279 143.76 68.7334 143.667 68.8125C143.588 68.8916 143.476 68.9312 143.331 68.9312H136.586V73.3421H142.896C143.041 73.3421 143.153 73.3883 143.232 73.4806C143.324 73.5597 143.371 73.6718 143.371 73.8169V74.4894C143.371 74.6212 143.324 74.7333 143.232 74.8256C143.153 74.9048 143.041 74.9443 142.896 74.9443H136.586V79.5135H143.489C143.634 79.5135 143.746 79.5597 143.826 79.652C143.918 79.7311 143.964 79.8432 143.964 79.9882V80.7003C143.964 80.8322 143.918 80.9443 143.826 81.0366C143.733 81.1157 143.621 81.1553 143.489 81.1553H135.201ZM151.552 81.3531C149.798 81.3531 148.46 80.8784 147.537 79.9289C146.627 78.9663 146.139 77.6542 146.073 75.9927C146.06 75.6366 146.053 75.0564 146.053 74.252C146.053 73.4344 146.06 72.841 146.073 72.4718C146.139 70.8103 146.627 69.5048 147.537 68.5553C148.46 67.5927 149.798 67.1114 151.552 67.1114C152.726 67.1114 153.722 67.3224 154.539 67.7444C155.357 68.1531 155.97 68.6938 156.379 69.3663C156.801 70.0389 157.031 70.7575 157.071 71.5224C157.071 71.641 157.025 71.7399 156.932 71.8191C156.853 71.885 156.754 71.918 156.636 71.918H155.647C155.515 71.918 155.409 71.885 155.33 71.8191C155.251 71.7531 155.192 71.641 155.152 71.4828C154.928 70.4674 154.519 69.7553 153.926 69.3465C153.346 68.9378 152.554 68.7334 151.552 68.7334C149.258 68.7334 148.064 70.0125 147.972 72.5707C147.959 72.9267 147.952 73.474 147.952 74.2125C147.952 74.9509 147.959 75.5113 147.972 75.8938C148.064 78.4388 149.258 79.7113 151.552 79.7113C152.541 79.7113 153.333 79.5069 153.926 79.0981C154.519 78.6894 154.928 77.9839 155.152 76.9817C155.192 76.8234 155.251 76.7113 155.33 76.6454C155.409 76.5795 155.515 76.5465 155.647 76.5465H156.636C156.754 76.5465 156.853 76.5861 156.932 76.6652C157.025 76.7311 157.071 76.8234 157.071 76.9421C157.031 77.7069 156.801 78.4256 156.379 79.0981C155.97 79.7707 155.357 80.3179 154.539 80.7399C153.722 81.1487 152.726 81.3531 151.552 81.3531ZM160.197 81.1553C160.065 81.1553 159.96 81.1157 159.88 81.0366C159.801 80.9443 159.762 80.8322 159.762 80.7003V67.7839C159.762 67.6389 159.801 67.5268 159.88 67.4477C159.96 67.3553 160.065 67.3092 160.197 67.3092H161.127C161.272 67.3092 161.384 67.3553 161.463 67.4477C161.555 67.5268 161.601 67.6389 161.601 67.7839V72.7092L166.962 67.6257C167.173 67.4147 167.43 67.3092 167.733 67.3092H168.722C168.828 67.3092 168.92 67.3488 168.999 67.4279C169.078 67.507 169.118 67.5993 169.118 67.7048C169.118 67.8103 169.085 67.896 169.019 67.9619L162.848 73.9355L169.434 80.4827C169.5 80.5619 169.533 80.6542 169.533 80.7597C169.533 80.8652 169.494 80.9575 169.415 81.0366C169.335 81.1157 169.243 81.1553 169.138 81.1553H168.109C167.924 81.1553 167.779 81.1289 167.674 81.0762C167.568 81.0102 167.456 80.9311 167.338 80.8388L161.601 75.241V80.7003C161.601 80.8322 161.555 80.9443 161.463 81.0366C161.371 81.1157 161.259 81.1553 161.127 81.1553H160.197ZM175.795 81.3531C174.08 81.3531 172.755 80.9047 171.819 80.008C170.882 79.0981 170.388 77.7333 170.335 75.9135C170.322 75.5179 170.315 74.9575 170.315 74.2322C170.315 73.507 170.322 72.9531 170.335 72.5707C170.388 70.7773 170.896 69.4191 171.858 68.496C172.834 67.5729 174.146 67.1114 175.795 67.1114C177.443 67.1114 178.748 67.5729 179.711 68.496C180.674 69.4191 181.181 70.7773 181.234 72.5707C181.26 73.3355 181.274 73.8894 181.274 74.2322C181.274 74.5619 181.26 75.1223 181.234 75.9135C181.181 77.7333 180.687 79.0981 179.751 80.008C178.827 80.9047 177.509 81.3531 175.795 81.3531ZM175.795 79.7113C176.849 79.7113 177.693 79.3948 178.326 78.7619C178.959 78.1157 179.302 77.1333 179.355 75.8146C179.381 75.0234 179.395 74.496 179.395 74.2322C179.395 73.9421 179.381 73.4147 179.355 72.6498C179.302 71.3312 178.959 70.3487 178.326 69.7026C177.693 69.0564 176.849 68.7334 175.795 68.7334C174.74 68.7334 173.889 69.0564 173.243 69.7026C172.61 70.3487 172.274 71.3312 172.234 72.6498C172.221 73.0322 172.214 73.5597 172.214 74.2322C172.214 74.8916 172.221 75.419 172.234 75.8146C172.274 77.1333 172.61 78.1157 173.243 78.7619C173.876 79.3948 174.726 79.7113 175.795 79.7113ZM189.399 81.3531C187.698 81.3531 186.386 80.8981 185.463 79.9882C184.54 79.0652 184.079 77.674 184.079 75.8146V67.7839C184.079 67.6389 184.118 67.5268 184.197 67.4477C184.276 67.3553 184.382 67.3092 184.514 67.3092H185.463C185.608 67.3092 185.72 67.3553 185.799 67.4477C185.892 67.5268 185.938 67.6389 185.938 67.7839V75.8542C185.938 77.1465 186.235 78.1091 186.828 78.7421C187.435 79.3751 188.292 79.6915 189.399 79.6915C190.494 79.6915 191.338 79.3751 191.931 78.7421C192.538 78.0959 192.841 77.1333 192.841 75.8542V67.7839C192.841 67.6389 192.881 67.5268 192.96 67.4477C193.039 67.3553 193.151 67.3092 193.296 67.3092H194.246C194.377 67.3092 194.483 67.3553 194.562 67.4477C194.654 67.5268 194.7 67.6389 194.7 67.7839V75.8146C194.7 77.674 194.239 79.0652 193.316 79.9882C192.406 80.8981 191.1 81.3531 189.399 81.3531ZM201.528 81.1553C201.397 81.1553 201.284 81.1157 201.192 81.0366C201.113 80.9443 201.074 80.8322 201.074 80.7003V69.0103H197.256C197.124 69.0103 197.012 68.9707 196.92 68.8916C196.841 68.7993 196.801 68.6872 196.801 68.5553V67.7839C196.801 67.6389 196.841 67.5268 196.92 67.4477C197.012 67.3553 197.124 67.3092 197.256 67.3092H206.75C206.895 67.3092 207.008 67.3553 207.087 67.4477C207.166 67.5268 207.205 67.6389 207.205 67.7839V68.5553C207.205 68.6872 207.159 68.7993 207.067 68.8916C206.988 68.9707 206.882 69.0103 206.75 69.0103H202.953V80.7003C202.953 80.8322 202.906 80.9443 202.814 81.0366C202.722 81.1157 202.61 81.1553 202.478 81.1553H201.528Z" fill="black"/>
<path d="M68.3008 33.9622C68.1152 33.9622 67.9482 33.8972 67.7997 33.7673C67.6697 33.6188 67.6048 33.4517 67.6048 33.2661V15.1958C67.6048 14.9916 67.6697 14.8246 67.7997 14.6947C67.9296 14.5462 68.0967 14.4719 68.3008 14.4719H81.2479C81.4521 14.4719 81.6192 14.5462 81.7491 14.6947C81.8976 14.8246 81.9719 14.9916 81.9719 15.1958V18.1472C81.9719 18.3514 81.8976 18.5185 81.7491 18.6484C81.6192 18.7783 81.4521 18.8433 81.2479 18.8433H72.7279V22.7135H80.6911C80.8953 22.7135 81.0623 22.7877 81.1923 22.9362C81.3408 23.0662 81.415 23.2332 81.415 23.4374V26.3888C81.415 26.593 81.3408 26.76 81.1923 26.89C81.0623 27.0199 80.8953 27.0849 80.6911 27.0849H72.7279V33.2661C72.7279 33.4517 72.6629 33.6188 72.533 33.7673C72.4031 33.8972 72.236 33.9622 72.0318 33.9622H68.3008ZM93.1674 34.2406C90.5316 34.2406 88.4619 33.6002 86.9584 32.3194C85.4734 31.0386 84.731 29.1174 84.731 26.5559V15.1958C84.731 14.9916 84.7959 14.8246 84.9259 14.6947C85.0558 14.5462 85.2228 14.4719 85.427 14.4719H89.2416C89.4457 14.4719 89.6128 14.5462 89.7427 14.6947C89.8912 14.8246 89.9655 14.9916 89.9655 15.1958V26.5002C89.9655 27.651 90.2346 28.5142 90.7729 29.0896C91.3298 29.665 92.1187 29.9527 93.1396 29.9527C94.1605 29.9527 94.9401 29.665 95.4784 29.0896C96.0353 28.4956 96.3137 27.6325 96.3137 26.5002V15.1958C96.3137 14.9916 96.3787 14.8246 96.5086 14.6947C96.6571 14.5462 96.8335 14.4719 97.0377 14.4719H100.824C101.029 14.4719 101.196 14.5462 101.326 14.6947C101.474 14.8246 101.548 14.9916 101.548 15.1958V26.5559C101.548 29.1174 100.806 31.0386 99.3208 32.3194C97.8358 33.6002 95.7847 34.2406 93.1674 34.2406ZM105.851 33.9622C105.665 33.9622 105.498 33.8972 105.35 33.7673C105.22 33.6188 105.155 33.4517 105.155 33.2661V15.168C105.155 14.9638 105.22 14.7967 105.35 14.6668C105.498 14.5369 105.665 14.4719 105.851 14.4719H109.749C109.953 14.4719 110.12 14.5369 110.25 14.6668C110.38 14.7967 110.445 14.9638 110.445 15.168V29.5908H118.798C119.002 29.5908 119.169 29.665 119.299 29.8135C119.448 29.9435 119.522 30.1105 119.522 30.3147V33.2661C119.522 33.4703 119.448 33.6373 119.299 33.7673C119.169 33.8972 119.002 33.9622 118.798 33.9622H105.851ZM122.546 33.9622C122.361 33.9622 122.193 33.8972 122.045 33.7673C121.915 33.6188 121.85 33.4517 121.85 33.2661V15.168C121.85 14.9638 121.915 14.7967 122.045 14.6668C122.193 14.5369 122.361 14.4719 122.546 14.4719H126.444C126.648 14.4719 126.815 14.5369 126.945 14.6668C127.075 14.7967 127.14 14.9638 127.14 15.168V29.5908H135.493C135.697 29.5908 135.865 29.665 135.994 29.8135C136.143 29.9435 136.217 30.1105 136.217 30.3147V33.2661C136.217 33.4703 136.143 33.6373 135.994 33.7673C135.865 33.8972 135.697 33.9622 135.493 33.9622H122.546ZM141.48 33.9622C141.294 33.9622 141.127 33.8972 140.978 33.7673C140.848 33.6188 140.783 33.4517 140.783 33.2661V27.3355L134.352 15.3629C134.296 15.2701 134.268 15.168 134.268 15.0566C134.268 14.9081 134.324 14.7782 134.435 14.6668C134.565 14.5369 134.704 14.4719 134.853 14.4719H138.528C138.788 14.4719 139.002 14.5369 139.169 14.6668C139.336 14.7967 139.456 14.936 139.531 15.0845L143.401 22.0731L147.271 15.0845C147.345 14.936 147.466 14.7967 147.633 14.6668C147.8 14.5369 148.013 14.4719 148.273 14.4719H151.949C152.097 14.4719 152.227 14.5369 152.338 14.6668C152.468 14.7782 152.533 14.9081 152.533 15.0566C152.533 15.168 152.505 15.2701 152.45 15.3629L146.018 27.3355V33.2661C146.018 33.4703 145.944 33.6373 145.795 33.7673C145.665 33.8972 145.498 33.9622 145.294 33.9622H141.48Z" fill="#291247"/>
<path d="M74.9832 61.6197C73.1827 61.6197 71.6513 61.3599 70.3891 60.8401C69.1269 60.3204 68.1709 59.6336 67.5212 58.7797C66.8716 57.9259 66.5282 56.9978 66.491 55.9954C66.491 55.8284 66.5467 55.6891 66.6581 55.5778C66.788 55.4664 66.9365 55.4107 67.1036 55.4107H70.8067C71.0295 55.4107 71.2058 55.4478 71.3358 55.5221C71.4843 55.5963 71.642 55.7263 71.8091 55.9119C72.0504 56.3574 72.4216 56.7286 72.9228 57.0256C73.4426 57.304 74.1294 57.4433 74.9832 57.4433C75.9856 57.4433 76.7559 57.2948 77.2942 56.9978C77.8325 56.6822 78.1017 56.2553 78.1017 55.717C78.1017 55.3272 77.9624 55.0116 77.684 54.7703C77.4056 54.5104 76.9601 54.2877 76.3475 54.1021C75.735 53.8979 74.8533 53.6751 73.7024 53.4338C71.4564 52.9883 69.7765 52.3108 68.6628 51.4013C67.5491 50.4917 66.9922 49.1924 66.9922 47.5032C66.9922 46.3524 67.3078 45.3315 67.9389 44.4405C68.5886 43.5309 69.4981 42.8256 70.6675 42.3244C71.8555 41.8232 73.2291 41.5726 74.7883 41.5726C76.4218 41.5726 77.8325 41.8603 79.0205 42.4358C80.227 42.9926 81.1458 43.698 81.777 44.5518C82.4266 45.3871 82.77 46.2132 82.8072 47.0299C82.8072 47.197 82.7515 47.3455 82.6401 47.4754C82.5287 47.5868 82.3895 47.6424 82.2225 47.6424H78.3244C77.916 47.6424 77.6005 47.4754 77.3777 47.1413C77.2664 46.7515 76.9786 46.4266 76.5146 46.1668C76.0505 45.8883 75.4751 45.7491 74.7883 45.7491C74.0087 45.7491 73.4054 45.8883 72.9785 46.1668C72.5516 46.4452 72.3381 46.8536 72.3381 47.3919C72.3381 47.9302 72.6165 48.3571 73.1734 48.6726C73.7303 48.9696 74.7698 49.2759 76.2918 49.5915C78.0367 49.907 79.4196 50.3061 80.4405 50.7887C81.48 51.2528 82.241 51.8653 82.7236 52.6264C83.2248 53.3689 83.4754 54.3155 83.4754 55.4664C83.4754 56.7286 83.1134 57.8238 82.3895 58.7519C81.6656 59.68 80.6632 60.3946 79.3824 60.8958C78.1017 61.3784 76.6352 61.6197 74.9832 61.6197ZM86.8449 61.3413C86.6592 61.3413 86.4922 61.2763 86.3437 61.1464C86.2137 60.9979 86.1488 60.8308 86.1488 60.6452V42.575C86.1488 42.3708 86.2137 42.2037 86.3437 42.0738C86.4736 41.9253 86.6407 41.8511 86.8449 41.8511H99.9869C100.191 41.8511 100.358 41.9253 100.488 42.0738C100.637 42.2037 100.711 42.3708 100.711 42.575V45.3315C100.711 45.5356 100.637 45.7027 100.488 45.8326C100.358 45.9626 100.191 46.0275 99.9869 46.0275H91.1884V49.5636H99.3743C99.5785 49.5636 99.7456 49.6379 99.8755 49.7864C100.024 49.9163 100.098 50.0834 100.098 50.2876V52.8213C100.098 53.0255 100.024 53.2018 99.8755 53.3503C99.7456 53.4802 99.5785 53.5452 99.3743 53.5452H91.1884V57.1648H100.21C100.414 57.1648 100.581 57.2391 100.711 57.3876C100.859 57.5175 100.934 57.6846 100.934 57.8887V60.6452C100.934 60.8494 100.859 61.0165 100.711 61.1464C100.581 61.2763 100.414 61.3413 100.21 61.3413H86.8449ZM111.924 61.6197C109.27 61.6197 107.182 60.9793 105.66 59.6986C104.156 58.4178 103.358 56.543 103.265 54.0742C103.247 53.5731 103.237 52.7563 103.237 51.624C103.237 50.4732 103.247 49.6379 103.265 49.1181C103.358 46.7051 104.165 44.8488 105.688 43.5495C107.228 42.2316 109.307 41.5726 111.924 41.5726C113.576 41.5726 115.052 41.8418 116.351 42.3801C117.669 42.9184 118.709 43.698 119.47 44.7189C120.231 45.7398 120.63 46.9464 120.667 48.3385C120.667 48.5056 120.602 48.6448 120.472 48.7562C120.361 48.8675 120.222 48.9232 120.055 48.9232H116.101C115.841 48.9232 115.646 48.8768 115.516 48.784C115.405 48.6726 115.303 48.4777 115.21 48.1993C114.95 47.2898 114.551 46.6587 114.013 46.306C113.493 45.9347 112.797 45.7491 111.924 45.7491C109.827 45.7491 108.741 46.9185 108.667 49.2574C108.648 49.7585 108.639 50.5289 108.639 51.5683C108.639 52.6078 108.648 53.3967 108.667 53.935C108.741 56.2738 109.827 57.4433 111.924 57.4433C112.778 57.4433 113.474 57.2576 114.013 56.8864C114.57 56.5152 114.969 55.884 115.21 54.9931C115.284 54.7146 115.386 54.529 115.516 54.4362C115.646 54.3248 115.841 54.2691 116.101 54.2691H120.055C120.222 54.2691 120.361 54.3248 120.472 54.4362C120.602 54.5476 120.667 54.6868 120.667 54.8538C120.63 56.246 120.231 57.4525 119.47 58.4735C118.709 59.4944 117.669 60.274 116.351 60.8123C115.052 61.3506 113.576 61.6197 111.924 61.6197ZM131.778 61.6197C129.142 61.6197 127.073 60.9793 125.569 59.6986C124.084 58.4178 123.342 56.4966 123.342 53.935V42.575C123.342 42.3708 123.407 42.2037 123.537 42.0738C123.666 41.9253 123.834 41.8511 124.038 41.8511H127.852C128.056 41.8511 128.224 41.9253 128.353 42.0738C128.502 42.2037 128.576 42.3708 128.576 42.575V53.8793C128.576 55.0302 128.845 55.8933 129.384 56.4687C129.941 57.0442 130.729 57.3319 131.75 57.3319C132.771 57.3319 133.551 57.0442 134.089 56.4687C134.646 55.8748 134.924 55.0116 134.924 53.8793V42.575C134.924 42.3708 134.989 42.2037 135.119 42.0738C135.268 41.9253 135.444 41.8511 135.648 41.8511H139.435C139.639 41.8511 139.806 41.9253 139.936 42.0738C140.085 42.2037 140.159 42.3708 140.159 42.575V53.935C140.159 56.4966 139.416 58.4178 137.932 59.6986C136.447 60.9793 134.395 61.6197 131.778 61.6197ZM144.462 61.3413C144.276 61.3413 144.109 61.2763 143.961 61.1464C143.831 60.9979 143.766 60.8308 143.766 60.6452V42.575C143.766 42.3708 143.831 42.2037 143.961 42.0738C144.091 41.9253 144.258 41.8511 144.462 41.8511H152.119C154.569 41.8511 156.481 42.4079 157.854 43.5217C159.247 44.6354 159.943 46.2039 159.943 48.2272C159.943 49.5265 159.636 50.631 159.024 51.5405C158.43 52.45 157.604 53.1554 156.546 53.6566L160.305 60.4503C160.36 60.5617 160.388 60.6638 160.388 60.7566C160.388 60.9051 160.332 61.0443 160.221 61.1742C160.11 61.2856 159.97 61.3413 159.803 61.3413H155.878C155.339 61.3413 154.959 61.0907 154.736 60.5895L151.673 54.5476H149V60.6452C149 60.8494 148.926 61.0165 148.778 61.1464C148.648 61.2763 148.481 61.3413 148.276 61.3413H144.462ZM152.091 50.4546C152.889 50.4546 153.492 50.2597 153.901 49.8699C154.328 49.4615 154.541 48.9047 154.541 48.1993C154.541 47.4939 154.328 46.9278 153.901 46.5009C153.492 46.0739 152.889 45.8605 152.091 45.8605H149V50.4546H152.091ZM163.822 61.3413C163.636 61.3413 163.469 61.2763 163.32 61.1464C163.19 60.9979 163.125 60.8308 163.125 60.6452V42.575C163.125 42.3708 163.19 42.2037 163.32 42.0738C163.45 41.9253 163.617 41.8511 163.822 41.8511H176.964C177.168 41.8511 177.335 41.9253 177.465 42.0738C177.613 42.2037 177.687 42.3708 177.687 42.575V45.3315C177.687 45.5356 177.613 45.7027 177.465 45.8326C177.335 45.9626 177.168 46.0275 176.964 46.0275H168.165V49.5636H176.351C176.555 49.5636 176.722 49.6379 176.852 49.7864C177.001 49.9163 177.075 50.0834 177.075 50.2876V52.8213C177.075 53.0255 177.001 53.2018 176.852 53.3503C176.722 53.4802 176.555 53.5452 176.351 53.5452H168.165V57.1648H177.186C177.39 57.1648 177.558 57.2391 177.687 57.3876C177.836 57.5175 177.91 57.6846 177.91 57.8887V60.6452C177.91 60.8494 177.836 61.0165 177.687 61.1464C177.558 61.2763 177.39 61.3413 177.186 61.3413H163.822ZM181.686 61.3413C181.5 61.3413 181.333 61.2763 181.185 61.1464C181.055 60.9979 180.99 60.8308 180.99 60.6452V42.575C180.99 42.3708 181.055 42.2037 181.185 42.0738C181.315 41.9253 181.482 41.8511 181.686 41.8511H189.009C191.756 41.8511 193.89 42.51 195.413 43.8279C196.935 45.1273 197.733 47.0021 197.807 49.4523C197.826 49.9906 197.835 50.7052 197.835 51.5962C197.835 52.4872 197.826 53.1925 197.807 53.7123C197.621 58.7983 194.735 61.3413 189.148 61.3413H181.686ZM189.009 57.1648C190.178 57.1648 191.041 56.8864 191.598 56.3295C192.155 55.7727 192.452 54.8817 192.489 53.6566C192.526 53.1183 192.545 52.4222 192.545 51.5683C192.545 50.7145 192.526 50.0277 192.489 49.5079C192.452 48.32 192.127 47.4475 191.514 46.8907C190.92 46.3153 190.039 46.0275 188.869 46.0275H186.224V57.1648H189.009Z" fill="#291247"/>
</svg>
