<svg width="215" height="65" viewBox="0 0 215 65" fill="none" xmlns="http://www.w3.org/2000/svg">
<rect x="0.892578" y="14.7588" width="211.901" height="46.5252" rx="6.34434" transform="rotate(-2.5112 0.892578 14.7588)" fill="#C84772"/>
<path d="M27.5493 41.5203C27.3239 41.5302 27.1289 41.4597 26.9642 41.3089C26.7996 41.158 26.7123 40.9699 26.7024 40.7446L26.0249 25.2961C26.014 25.0483 26.0845 24.8532 26.2363 24.7111C26.3871 24.5464 26.5752 24.4592 26.8006 24.4493L29.6063 24.3262C29.8317 24.3163 30.0267 24.3868 30.1914 24.5376C30.356 24.6885 30.4433 24.8766 30.4532 25.1019L31.1307 40.5504C31.1406 40.7757 31.0701 40.9707 30.9193 41.1354C30.7685 41.3001 30.5804 41.3874 30.355 41.3972L27.5493 41.5203ZM27.6355 48.121C27.4102 48.1308 27.2152 48.0604 27.0505 47.9095C26.8858 47.7587 26.7985 47.5706 26.7887 47.3452L26.6478 44.1339C26.637 43.886 26.7074 43.691 26.8592 43.5488C27.0101 43.3841 27.1982 43.2969 27.4235 43.287L30.6011 43.1476C30.849 43.1368 31.0553 43.2067 31.22 43.3576C31.3846 43.5084 31.4719 43.6965 31.4818 43.9219L31.6226 47.1332C31.6325 47.3586 31.562 47.5536 31.4112 47.7183C31.2604 47.883 31.061 47.9707 30.8131 47.9816L27.6355 48.121ZM36.3668 39.8127C36.1415 39.8226 35.9465 39.7521 35.7818 39.6013C35.6171 39.4504 35.5299 39.2623 35.52 39.037L35.0915 29.2676C35.0806 29.0197 35.1511 28.8247 35.3029 28.6826C35.4538 28.5179 35.6419 28.4306 35.8672 28.4207L38.7406 28.2947C38.9885 28.2839 39.1835 28.3543 39.3256 28.5061C39.4893 28.6344 39.5766 28.8225 39.5874 29.0704L40.0159 38.8398C40.0258 39.0652 39.9553 39.2602 39.8045 39.4248C39.6762 39.5885 39.4881 39.6758 39.2402 39.6867L36.3668 39.8127ZM55.3326 46.9063C55.1073 46.9161 54.9123 46.8457 54.7476 46.6948C54.5829 46.544 54.4956 46.3559 54.4858 46.1305L54.044 36.0569C53.9036 32.8568 52.2221 31.3275 48.9995 31.4688L44.2669 31.6763C44.019 31.6872 43.8127 31.6172 43.6481 31.4664C43.4834 31.3156 43.3961 31.1275 43.3862 30.9021L43.2988 28.9077C43.2889 28.6823 43.3593 28.4873 43.5102 28.3226C43.661 28.158 43.8604 28.0702 44.1083 28.0593L49.0437 27.8429C52.0409 27.7114 54.3129 28.2891 55.8596 29.5761C57.4053 30.8405 58.2399 32.8812 58.3635 35.6982L58.8127 45.9408C58.8225 46.1661 58.7521 46.3611 58.6012 46.5258C58.4729 46.6895 58.2848 46.7768 58.0369 46.7876L55.3326 46.9063ZM67.6781 27.0256C70.6754 26.8942 72.8352 27.4881 74.1575 28.8075C75.4798 30.1268 76.2072 32.2964 76.3396 35.3162C76.4651 38.1783 75.7885 40.5111 74.3096 42.3145C72.8307 44.118 70.9014 45.4332 68.5217 46.2601L67.155 46.7603C66.9326 46.8378 66.7278 46.8016 66.5406 46.6518C66.3534 46.5019 66.2543 46.3031 66.2435 46.0552L66.1352 43.5875C66.1263 43.3847 66.1855 43.1901 66.3129 43.0039C66.4627 42.8167 66.6596 42.6726 66.9035 42.5716L68.0659 42.0464C69.3503 41.4708 70.321 40.6944 70.9781 39.7172C71.6577 38.7391 71.958 37.3486 71.879 35.5457C71.8246 34.3062 71.6356 33.3436 71.312 32.6578C71.01 31.9486 70.514 31.451 69.8241 31.1651C69.1567 30.8783 68.237 30.7606 67.0652 30.812L66.1525 30.852L66.0172 30.8579L62.2297 30.9902C61.9818 31.001 61.776 30.9423 61.6124 30.814C61.4477 30.6632 61.3604 30.4751 61.3505 30.2497L61.051 23.4213C61.0412 23.196 61.1116 23.0009 61.2625 22.8363C61.4133 22.6716 61.6127 22.5838 61.8606 22.573L64.3283 22.4647C64.5762 22.4539 64.7712 22.5243 64.9133 22.6762C65.077 22.8045 65.1643 22.9926 65.1751 23.2405L65.3456 27.1279L67.6781 27.0256ZM81.5484 45.7565C81.3231 45.7664 81.128 45.6959 80.9634 45.5451C80.7987 45.3943 80.7114 45.2062 80.7015 44.9808L79.9262 27.3013C79.9153 27.0534 79.9858 26.8584 80.1376 26.7163C80.2884 26.5516 80.4765 26.4643 80.7019 26.4544L83.5414 26.3299C83.7893 26.319 83.9843 26.3895 84.1265 26.5413C84.2901 26.6696 84.3774 26.8577 84.3883 27.1056L85.1637 44.7851C85.1735 45.0105 85.1031 45.2055 84.9522 45.3701C84.8239 45.5338 84.6358 45.6211 84.3879 45.632L81.5484 45.7565ZM92.8018 31.6476C92.8621 33.0223 93.2572 33.7953 93.9873 33.9665L95.0824 34.2233C95.2656 34.283 95.4068 34.4123 95.5058 34.6111C95.6264 34.7865 95.6921 34.9981 95.703 35.246L95.7916 36.4953C95.8045 36.7882 95.6792 37.0195 95.4156 37.1891C95.1521 37.3587 94.8391 37.4289 94.4765 37.3997L93.0787 37.19C91.944 37.0591 91.0164 36.5015 90.2958 35.517C89.5743 34.51 89.1774 33.1839 89.1053 31.5388L88.9022 26.9077C88.9138 26.6588 88.9843 26.4638 89.1136 26.3226C89.2644 26.1579 89.4525 26.0707 89.6779 26.0608L96.2021 25.7746C98.9289 25.6551 101.012 26.3088 102.452 27.7359C103.892 29.163 104.728 31.2262 104.959 33.9256C104.991 34.15 105.019 34.5213 105.042 35.0396C105.066 35.5805 105.071 35.9641 105.058 36.1904C105.064 38.8997 104.413 41.0282 103.103 42.5758C101.794 44.1235 99.7754 44.9571 97.0486 45.0767L90.9301 45.3451C90.7047 45.3549 90.5097 45.2845 90.345 45.1336C90.1804 44.9828 90.0931 44.7947 90.0832 44.5693L89.9898 42.4397C89.9799 42.2143 90.0504 42.0193 90.2012 41.8546C90.3521 41.69 90.5402 41.6027 90.7655 41.5928L96.715 41.3319C98.0897 41.2716 99.1532 40.8072 99.9053 39.9388C100.657 39.0479 101.032 37.8347 101.033 36.2993C101.045 36.0729 101.041 35.7118 101.019 35.2161C100.998 34.7428 100.972 34.394 100.939 34.1696C100.827 32.6391 100.347 31.4748 99.4991 30.6765C98.6728 29.8548 97.5723 29.474 96.1976 29.5343L92.7158 29.687L92.8018 31.6476ZM110.17 44.5013C109.944 44.5112 109.749 44.4407 109.585 44.2899C109.42 44.139 109.333 43.9509 109.323 43.7256L108.547 26.0461C108.536 25.7982 108.607 25.6032 108.759 25.461C108.91 25.2964 109.098 25.2091 109.323 25.1992L112.163 25.0747C112.41 25.0638 112.605 25.1343 112.748 25.2861C112.911 25.4144 112.999 25.6025 113.009 25.8504L113.785 43.5299C113.795 43.7552 113.724 43.9502 113.573 44.1149C113.445 44.2786 113.257 44.3659 113.009 44.3767L110.17 44.5013ZM121.423 30.3924C121.483 31.7671 121.878 32.54 122.608 32.7112L123.704 32.968C123.887 33.0277 124.028 33.157 124.127 33.3559C124.248 33.5312 124.313 33.7429 124.324 33.9908L124.413 35.24C124.426 35.533 124.3 35.7643 124.037 35.9339C123.773 36.1035 123.46 36.1737 123.098 36.1444L121.7 35.9348C120.565 35.8039 119.638 35.2462 118.917 34.2618C118.195 33.2548 117.799 31.9287 117.726 30.2836L117.523 25.6524C117.535 25.4035 117.605 25.2085 117.735 25.0674C117.886 24.9027 118.074 24.8154 118.299 24.8055L124.823 24.5194C127.55 24.3998 129.633 25.0536 131.073 26.4807C132.513 27.9077 133.349 29.971 133.58 32.6703C133.613 32.8947 133.64 33.2661 133.663 33.7844C133.687 34.3253 133.692 34.7089 133.68 34.9352C133.685 37.6445 133.034 39.7729 131.724 41.3206C130.415 42.8683 128.397 43.7019 125.67 43.8215L119.551 44.0898C119.326 44.0997 119.131 44.0292 118.966 43.8784C118.802 43.7276 118.714 43.5395 118.704 43.3141L118.611 41.1845C118.601 40.9591 118.672 40.7641 118.822 40.5994C118.973 40.4347 119.161 40.3475 119.387 40.3376L125.336 40.0767C126.711 40.0164 127.774 39.552 128.526 38.6836C129.278 37.7926 129.653 36.5794 129.654 35.044C129.667 34.8177 129.662 34.4566 129.64 33.9608C129.62 33.4876 129.593 33.1387 129.56 32.9144C129.448 31.3839 128.968 30.2195 128.12 29.4213C127.294 28.5995 126.193 28.2188 124.819 28.2791L121.337 28.4318L121.423 30.3924ZM145.933 35.0075C145.707 35.0174 145.512 34.9469 145.348 34.796C145.183 34.6452 145.096 34.4571 145.086 34.2318L144.657 24.4624C144.646 24.2145 144.717 24.0195 144.869 23.8774C145.02 23.7127 145.208 23.6254 145.433 23.6155L148.306 23.4895C148.554 23.4786 148.749 23.5491 148.891 23.7009C149.055 23.8292 149.142 24.0173 149.153 24.2652L149.582 34.0346C149.592 34.2599 149.521 34.455 149.37 34.6196C149.242 34.7833 149.054 34.8706 148.806 34.8815L145.933 35.0075ZM155.129 42.5295C154.904 42.5394 154.709 42.4689 154.544 42.3181C154.379 42.1672 154.292 41.9791 154.282 41.7538L154.189 39.6241C154.178 39.3762 154.248 39.1812 154.4 39.0391C154.551 38.8744 154.739 38.7871 154.965 38.7773L159.832 38.5638C161.455 38.4926 162.643 38.0341 163.396 37.1882C164.171 36.3188 164.557 35.0938 164.556 33.5133C164.565 33.2194 164.561 32.8583 164.542 32.4301C164.523 32.002 164.497 31.6531 164.462 31.3837C164.208 28.166 162.493 26.6268 159.315 26.7662L154.447 26.9797C154.222 26.9895 154.027 26.9191 153.862 26.7682C153.697 26.6174 153.61 26.4293 153.6 26.2039L153.507 24.0743C153.496 23.8264 153.566 23.6314 153.718 23.4892C153.869 23.3246 154.057 23.2373 154.283 23.2274L159.319 23.0065C162.317 22.8751 164.569 23.5101 166.075 24.9117C167.582 26.3133 168.452 28.3863 168.685 31.1308C168.72 31.4227 168.748 31.7941 168.768 32.2448C168.788 32.7181 168.794 33.1017 168.784 33.3956C168.792 36.15 168.107 38.2912 166.729 39.8193C165.351 41.3474 163.163 42.1771 160.166 42.3086L155.129 42.5295ZM186.491 41.1541C186.266 41.1639 186.071 41.0935 185.906 40.9426C185.741 40.7918 185.654 40.6037 185.644 40.3783L185.202 30.3048C185.062 27.1046 183.392 25.5748 180.192 25.7151L173.194 26.022C172.969 26.0319 172.774 25.9614 172.609 25.8106C172.445 25.6597 172.357 25.4716 172.347 25.2463L172.26 23.2518C172.249 23.0039 172.32 22.8089 172.471 22.6668C172.622 22.5021 172.81 22.4149 173.036 22.405L180.202 22.0907C186.174 21.8288 189.283 24.4923 189.528 30.0812L189.971 40.1886C189.981 40.4139 189.91 40.609 189.76 40.7736C189.631 40.9373 189.443 41.0246 189.195 41.0355L186.491 41.1541ZM173.882 41.707C173.657 41.7169 173.462 41.6465 173.297 41.4956C173.132 41.3448 173.045 41.1567 173.035 40.9313L172.57 30.3169C172.559 30.069 172.629 29.874 172.781 29.7318C172.932 29.5672 173.12 29.4799 173.345 29.47L176.05 29.3514C176.298 29.3405 176.493 29.411 176.635 29.5628C176.799 29.6911 176.886 29.8792 176.897 30.1271L177.362 40.7416C177.372 40.9669 177.302 41.1619 177.151 41.3266C177.022 41.4903 176.834 41.5776 176.586 41.5884L173.882 41.707Z" fill="white"/>
</svg>
