<svg width="44" height="26" viewBox="0 0 44 26" fill="none" xmlns="http://www.w3.org/2000/svg">
<path d="M14.1488 21.447C13.1147 18.3327 11.4982 16.931 9.00086 16.9366C6.50357 16.9422 4.84762 18.3876 3.87825 21.4442C3.31548 21.4442 2.72738 21.4695 2.14632 21.4442C1.42457 21.4048 0.93637 20.9212 0.851954 20.2027C0.828037 19.9462 0.819572 19.6884 0.826622 19.4308C0.826622 13.7375 0.826622 8.0451 0.826622 2.35364C0.826622 0.807052 1.23746 0.385254 2.77663 0.385254H24.2913C25.6982 0.385254 26.1625 0.839391 26.1625 2.22289C26.1625 5.73318 26.1625 9.24441 26.1625 12.7566C26.1625 15.3811 26.1625 18.0019 26.1625 20.6189C26.1625 21.0913 26.0936 21.4625 25.4914 21.4541C21.7251 21.4442 17.9531 21.447 14.1488 21.447Z" fill="#291247"/>
<path d="M28.7182 21.4063C27.5631 21.5005 27.5068 21.4499 27.5068 20.3546C27.5068 15.8338 27.5068 11.3126 27.5068 6.79097C27.5068 5.73367 27.656 5.58885 28.7351 5.58885C30.6105 5.58885 32.4874 5.60572 34.3628 5.58885C35.6459 5.57339 36.6139 6.06829 37.3173 7.15091C38.3373 8.72281 39.3771 10.2835 40.4506 11.8202C40.6808 12.1202 40.9998 12.3401 41.3622 12.4487C42.3344 12.7397 43.0745 13.5032 43.0942 14.5099C43.1308 16.4544 43.1209 18.4003 43.104 20.3447C43.104 21.007 42.7045 21.4231 42.0643 21.4428C41.0358 21.4752 40.006 21.4513 38.9339 21.4513C38.6525 19.944 37.9701 18.704 36.7053 17.8379C35.8128 17.2169 34.7418 16.9039 33.6551 16.9465C31.2338 17.0125 29.5792 18.5029 28.7182 21.4063ZM29.5877 7.67675V10.4466C29.5877 12.4599 29.5877 12.4487 31.6263 12.4149C33.0459 12.3939 34.4669 12.4149 35.8865 12.4065C36.59 12.4065 37.2836 12.3446 38.0447 12.3081C37.9772 12.0494 37.9758 11.9228 37.9167 11.8329C37.0725 10.5675 36.2467 9.29364 35.3842 8.04653C35.307 7.94567 35.2098 7.86178 35.0987 7.8001C34.9876 7.73842 34.8649 7.70026 34.7384 7.688C33.0529 7.65847 31.3717 7.67675 29.5877 7.67675Z" fill="#291247"/>
<path d="M33.8181 25.9546C33.0374 25.9546 32.2742 25.7227 31.6256 25.2884C30.977 24.8541 30.4721 24.237 30.1751 23.5155C29.8781 22.7939 29.8023 22.0004 29.9574 21.2357C30.1125 20.4711 30.4915 19.7697 31.0463 19.2207C31.601 18.6716 32.3065 18.2997 33.0731 18.1521C33.8398 18.0045 34.633 18.0879 35.3522 18.3917C36.0713 18.6955 36.6839 19.206 37.1121 19.8584C37.5404 20.5108 37.765 21.2756 37.7575 22.0558C37.7519 23.0947 37.3339 24.0889 36.5952 24.8199C35.8566 25.551 34.8577 25.9591 33.8181 25.9546Z" fill="#291247"/>
<path d="M5.08327 21.9939C5.0881 21.2138 5.32473 20.4527 5.76313 19.8073C6.20153 19.1618 6.82194 18.6611 7.54561 18.3686C8.26928 18.0761 9.06359 18.0051 9.82772 18.1645C10.5919 18.324 11.2914 18.7067 11.8375 19.2641C12.3836 19.8215 12.7517 20.5285 12.895 21.2953C13.0383 22.0622 12.9505 22.8543 12.6426 23.5711C12.3346 24.288 11.8205 24.8972 11.1655 25.3216C10.5105 25.7459 9.7441 25.9662 8.96358 25.9546C8.44842 25.9496 7.93929 25.8432 7.46534 25.6413C6.99138 25.4395 6.56191 25.1463 6.20149 24.7784C5.84108 24.4105 5.55679 23.9752 5.36491 23.4974C5.17303 23.0196 5.07733 22.5087 5.08327 21.9939Z" fill="#291247"/>
</svg>
